M48
; DRILL file {KiCad 8.0.1-8.0.1-1~ubuntu22.04.1} date 2024-04-18T14:36:52-0700
; FORMAT={-:-/ absolute / inch / decimal}
; #@! TF.CreationDate,2024-04-18T14:36:52-07:00
; #@! TF.GenerationSoftware,Kicad,Pcbnew,8.0.1-8.0.1-1~ubuntu22.04.1
; #@! TF.FileFunction,Plated,1,4,PTH
FMAT,2
INCH
; #@! TA.AperFunction,Plated,PTH,ViaDrill
T1C0.0157
; #@! TA.AperFunction,Plated,PTH,ComponentDrill
T2C0.0320
; #@! TA.AperFunction,Plated,PTH,ComponentDrill
T3C0.0380
; #@! TA.AperFunction,Plated,PTH,ComponentDrill
T4C0.0390
; #@! TA.AperFunction,Plated,PTH,ComponentDrill
T5C0.0450
; #@! TA.AperFunction,Plated,PTH,ComponentDrill
T6C0.0510
; #@! TA.AperFunction,Plated,PTH,ComponentDrill
T7C0.0590
; #@! TA.AperFunction,Plated,PTH,ComponentDrill
T8C0.0787
%
G90
G05
T1
X3.8492Y-3.8961
X3.8632Y-3.8159
X3.8734Y-3.7474
X4.2323Y-3.7795
X4.2402Y-3.8425
X4.3543Y-3.6063
T2
X2.1628Y-2.6307
X2.1628Y-3.8866
X4.1591Y-2.3846
X4.4776Y-1.5614
X4.4882Y-2.2079
X4.7307Y-1.5626
X4.7417Y-1.7118
X4.765Y-2.2118
T3
X0.8081Y-1.4567
X1.0081Y-1.4567
T4
X2.9431Y-2.9447
X2.9431Y-4.1416
X3.0431Y-2.9447
X3.0431Y-4.1416
X3.1431Y-2.9447
X3.1431Y-4.1416
X3.2431Y-2.9447
X3.2431Y-4.1416
X3.3431Y-2.9447
X3.3431Y-4.1416
X3.9482Y-2.9449
X3.9482Y-4.1418
X4.0482Y-2.9449
X4.0482Y-4.1418
X4.1482Y-2.9449
X4.1482Y-4.1418
X4.2482Y-2.9449
X4.2482Y-4.1418
X4.3482Y-2.9449
X4.3482Y-4.1418
T5
X1.3622Y-1.4553
X1.5433Y-1.1476
T6
X1.1314Y-2.3365
X1.1314Y-2.8168
X1.133Y-3.5856
X1.133Y-4.0659
X1.3677Y-2.2578
X1.3692Y-3.5069
X1.6039Y-2.3365
X1.6039Y-2.8168
X1.6054Y-3.5856
X1.6054Y-4.0659
X4.7205Y-3.063
X4.7205Y-3.2598
X4.7205Y-3.4567
X4.7205Y-3.6535
X4.7205Y-3.8504
T7
X1.285Y-0.8913
X1.285Y-1.6913
X3.085Y-0.8913
X3.085Y-1.2913
T8
X0.5965Y-1.1417
X0.5965Y-1.5354
X0.6638Y-2.4248
X0.6638Y-2.8185
X0.735Y-3.678
X0.735Y-4.0717
M30
