%TF.GenerationSoftware,KiCad,Pcbnew,8.0.1-8.0.1-1~ubuntu22.04.1*%
%TF.CreationDate,2024-04-18T14:36:56-07:00*%
%TF.ProjectId,all_components,616c6c5f-636f-46d7-906f-6e656e74732e,rev?*%
%TF.SameCoordinates,Original*%
%TF.FileFunction,Soldermask,Bot*%
%TF.FilePolarity,Negative*%
%FSLAX46Y46*%
G04 Gerber Fmt 4.6, Leading zero omitted, Abs format (unit mm)*
G04 Created by KiCad (PCBNEW 8.0.1-8.0.1-1~ubuntu22.04.1) date 2024-04-18 14:36:56*
%MOMM*%
%LPD*%
G01*
G04 APERTURE LIST*
%ADD10C,1.320800*%
%ADD11C,3.000000*%
%ADD12C,1.803400*%
%ADD13C,2.500000*%
%ADD14C,2.000000*%
%ADD15C,1.498600*%
G04 APERTURE END LIST*
D10*
%TO.C,SDA1*%
X121030000Y-56180000D03*
%TD*%
%TO.C,SCL1*%
X114000000Y-56080000D03*
%TD*%
%TO.C,S1*%
X105640000Y-60570000D03*
%TD*%
%TO.C,S3*%
X54935898Y-98719505D03*
%TD*%
%TO.C,S2*%
X54935898Y-66819505D03*
%TD*%
%TO.C,AVCC1*%
X120160000Y-39690000D03*
%TD*%
%TO.C,AGND1*%
X113730000Y-39660000D03*
%TD*%
D11*
%TO.C,J7*%
X18670000Y-103420000D03*
X18670000Y-93420000D03*
%TD*%
%TO.C,J6*%
X16860000Y-71590000D03*
X16860000Y-61590000D03*
%TD*%
%TO.C,J1*%
X15150000Y-39000000D03*
X15150000Y-29000000D03*
%TD*%
%TO.C,u1*%
X32640000Y-22640000D03*
X32640000Y-42960000D03*
X78360000Y-32800000D03*
X78360000Y-22640000D03*
%TD*%
D12*
%TO.C,J3*%
X28738399Y-71547205D03*
X40738395Y-71547205D03*
X28738399Y-59347204D03*
X40738395Y-59347204D03*
X34738395Y-57347204D03*
%TD*%
%TO.C,J5*%
X119900000Y-97800000D03*
X119900000Y-92800000D03*
X119900000Y-87800000D03*
X119900000Y-82800000D03*
X119900000Y-77800000D03*
%TD*%
D13*
%TO.C,MOV1*%
X39200001Y-29150000D03*
X34599999Y-36964000D03*
%TD*%
D10*
%TO.C,J2*%
X120440000Y-43480000D03*
%TD*%
D14*
%TO.C,F1*%
X25605000Y-37000000D03*
X20525000Y-37000000D03*
%TD*%
D12*
%TO.C,J4*%
X28778399Y-103275005D03*
X40778395Y-103275005D03*
X28778399Y-91075004D03*
X40778395Y-91075004D03*
X34778395Y-89075004D03*
%TD*%
D15*
%TO.C,ONES*%
X84916000Y-105196000D03*
X82376000Y-105196000D03*
X79836000Y-105196000D03*
X77296000Y-105196000D03*
X74756000Y-105196000D03*
X74756000Y-74796010D03*
X77296000Y-74796010D03*
X79836000Y-74796010D03*
X82376000Y-74796010D03*
X84916000Y-74796010D03*
%TD*%
%TO.C,TENS*%
X110444602Y-105200995D03*
X107904602Y-105200995D03*
X105364602Y-105200995D03*
X102824602Y-105200995D03*
X100284602Y-105200995D03*
X100284602Y-74801005D03*
X102824602Y-74801005D03*
X105364602Y-74801005D03*
X107904602Y-74801005D03*
X110444602Y-74801005D03*
%TD*%
M02*
