%TF.GenerationSoftware,KiCad,Pcbnew,8.0.1-8.0.1-1~ubuntu22.04.1*%
%TF.CreationDate,2024-04-18T14:36:56-07:00*%
%TF.ProjectId,all_components,616c6c5f-636f-46d7-906f-6e656e74732e,rev?*%
%TF.SameCoordinates,Original*%
%TF.FileFunction,Soldermask,Top*%
%TF.FilePolarity,Negative*%
%FSLAX46Y46*%
G04 Gerber Fmt 4.6, Leading zero omitted, Abs format (unit mm)*
G04 Created by KiCad (PCBNEW 8.0.1-8.0.1-1~ubuntu22.04.1) date 2024-04-18 14:36:56*
%MOMM*%
%LPD*%
G01*
G04 APERTURE LIST*
G04 Aperture macros list*
%AMRoundRect*
0 Rectangle with rounded corners*
0 $1 Rounding radius*
0 $2 $3 $4 $5 $6 $7 $8 $9 X,Y pos of 4 corners*
0 Add a 4 corners polygon primitive as box body*
4,1,4,$2,$3,$4,$5,$6,$7,$8,$9,$2,$3,0*
0 Add four circle primitives for the rounded corners*
1,1,$1+$1,$2,$3*
1,1,$1+$1,$4,$5*
1,1,$1+$1,$6,$7*
1,1,$1+$1,$8,$9*
0 Add four rect primitives between the rounded corners*
20,1,$1+$1,$2,$3,$4,$5,0*
20,1,$1+$1,$4,$5,$6,$7,0*
20,1,$1+$1,$6,$7,$8,$9,0*
20,1,$1+$1,$8,$9,$2,$3,0*%
G04 Aperture macros list end*
%ADD10C,1.320800*%
%ADD11R,1.000000X2.108200*%
%ADD12R,1.454899X0.558000*%
%ADD13C,3.000000*%
%ADD14R,2.500000X2.500000*%
%ADD15R,1.016000X1.549400*%
%ADD16R,2.108200X0.812800*%
%ADD17R,0.812800X2.108200*%
%ADD18R,4.000000X2.000000*%
%ADD19C,1.803400*%
%ADD20R,2.108200X1.000000*%
%ADD21R,1.450000X1.449997*%
%ADD22R,1.500000X0.750000*%
%ADD23R,1.000000X1.244600*%
%ADD24R,0.558800X1.549400*%
%ADD25R,2.006600X0.731000*%
%ADD26C,2.500000*%
%ADD27R,0.457200X1.244600*%
%ADD28R,1.346200X1.346200*%
%ADD29R,1.399200X0.752400*%
%ADD30C,2.000000*%
%ADD31R,0.731000X2.006600*%
%ADD32R,0.750000X1.500000*%
%ADD33C,1.498600*%
%ADD34RoundRect,0.019360X0.817640X0.222640X-0.817640X0.222640X-0.817640X-0.222640X0.817640X-0.222640X0*%
G04 APERTURE END LIST*
D10*
%TO.C,SDA1*%
X121030000Y-56180000D03*
%TD*%
%TO.C,SCL1*%
X114000000Y-56080000D03*
%TD*%
D11*
%TO.C,R23*%
X106534100Y-40320000D03*
X105105900Y-40320000D03*
%TD*%
D10*
%TO.C,S1*%
X105640000Y-60570000D03*
%TD*%
%TO.C,S3*%
X54935898Y-98719505D03*
%TD*%
%TO.C,S2*%
X54935898Y-66819505D03*
%TD*%
D12*
%TO.C,ONES-SR1*%
X76842252Y-85201000D03*
X76842252Y-86471000D03*
X76842252Y-87741000D03*
X76842252Y-89011000D03*
X76842252Y-90281000D03*
X76842252Y-91551000D03*
X76842252Y-92821000D03*
X76842252Y-94091000D03*
X82284948Y-94091000D03*
X82284948Y-92821000D03*
X82284948Y-91551000D03*
X82284948Y-90281000D03*
X82284948Y-89011000D03*
X82284948Y-87741000D03*
X82284948Y-86471000D03*
X82284948Y-85201000D03*
%TD*%
%TO.C,TENS-SR1*%
X102020904Y-85256000D03*
X102020904Y-86526000D03*
X102020904Y-87796000D03*
X102020904Y-89066000D03*
X102020904Y-90336000D03*
X102020904Y-91606000D03*
X102020904Y-92876000D03*
X102020904Y-94146000D03*
X107463600Y-94146000D03*
X107463600Y-92876000D03*
X107463600Y-91606000D03*
X107463600Y-90336000D03*
X107463600Y-89066000D03*
X107463600Y-87796000D03*
X107463600Y-86526000D03*
X107463600Y-85256000D03*
%TD*%
D10*
%TO.C,AVCC1*%
X120160000Y-39690000D03*
%TD*%
%TO.C,AGND1*%
X113730000Y-39660000D03*
%TD*%
D13*
%TO.C,J7*%
X18670000Y-103420000D03*
X18670000Y-93420000D03*
%TD*%
%TO.C,J6*%
X16860000Y-71590000D03*
X16860000Y-61590000D03*
%TD*%
%TO.C,J1*%
X15150000Y-39000000D03*
X15150000Y-29000000D03*
%TD*%
D14*
%TO.C,TVS1*%
X92967000Y-53600000D03*
X88936600Y-53600000D03*
%TD*%
D15*
%TO.C,D2*%
X33034098Y-85464006D03*
X36437698Y-85464006D03*
%TD*%
D11*
%TO.C,R10*%
X51549998Y-105219505D03*
X50121798Y-105219505D03*
%TD*%
D16*
%TO.C,R9*%
X47535898Y-93364105D03*
X47535898Y-92119505D03*
%TD*%
D17*
%TO.C,R5*%
X46435898Y-73319505D03*
X47680498Y-73319505D03*
%TD*%
D13*
%TO.C,u1*%
X32640000Y-22640000D03*
X32640000Y-42960000D03*
X78360000Y-32800000D03*
X78360000Y-22640000D03*
%TD*%
D18*
%TO.C,C2*%
X92948000Y-44900000D03*
X86052000Y-44900000D03*
%TD*%
D19*
%TO.C,J3*%
X28738399Y-71547205D03*
X40738395Y-71547205D03*
X28738399Y-59347204D03*
X40738395Y-59347204D03*
X34738395Y-57347204D03*
%TD*%
D20*
%TO.C,R12*%
X111733334Y-76852000D03*
X111733334Y-78284000D03*
%TD*%
D21*
%TO.C,C4*%
X108394799Y-49800000D03*
X106645201Y-49800000D03*
%TD*%
D19*
%TO.C,J5*%
X119900000Y-97800000D03*
X119900000Y-92800000D03*
X119900000Y-87800000D03*
X119900000Y-82800000D03*
X119900000Y-77800000D03*
%TD*%
D22*
%TO.C,T2*%
X47666298Y-58272005D03*
X47666298Y-56367005D03*
X45735898Y-57319505D03*
%TD*%
D20*
%TO.C,R19*%
X102800000Y-101568000D03*
X102800000Y-103000000D03*
%TD*%
D23*
%TO.C,LED2*%
X108485300Y-40310000D03*
X110034700Y-40310000D03*
%TD*%
D20*
%TO.C,R14*%
X86381998Y-77009451D03*
X86381998Y-78441451D03*
%TD*%
%TO.C,R22*%
X77195150Y-76984000D03*
X77195150Y-78416000D03*
%TD*%
D24*
%TO.C,Q1*%
X47665898Y-69994505D03*
X50205898Y-69994505D03*
X50205898Y-63644505D03*
X47665898Y-63644505D03*
%TD*%
D11*
%TO.C,R1*%
X79000000Y-53500000D03*
X80428200Y-53500000D03*
%TD*%
D25*
%TO.C,C6*%
X109999052Y-85257800D03*
X109999052Y-84044200D03*
%TD*%
D22*
%TO.C,T3*%
X47543595Y-90194305D03*
X47543595Y-88289305D03*
X45613195Y-89241805D03*
%TD*%
D23*
%TO.C,active1*%
X55882098Y-73319505D03*
X53789698Y-73319505D03*
%TD*%
D11*
%TO.C,R4*%
X105681800Y-57390000D03*
X107110000Y-57390000D03*
%TD*%
D26*
%TO.C,MOV1*%
X39200001Y-29150000D03*
X34599999Y-36964000D03*
%TD*%
D27*
%TO.C,LED1*%
X75264700Y-53500000D03*
X76814100Y-53500000D03*
%TD*%
D28*
%TO.C,C1*%
X86084000Y-36800000D03*
X88116000Y-36800000D03*
%TD*%
D20*
%TO.C,R11*%
X110400000Y-101584000D03*
X110400000Y-103016000D03*
%TD*%
D29*
%TO.C,L2*%
X104125201Y-49159000D03*
X104125201Y-47406600D03*
%TD*%
%TO.C,L1*%
X110725201Y-49170000D03*
X110725201Y-47417600D03*
%TD*%
D20*
%TO.C,R16*%
X107900000Y-76884000D03*
X107900000Y-78316000D03*
%TD*%
D10*
%TO.C,J2*%
X120440000Y-43480000D03*
%TD*%
D20*
%TO.C,R24*%
X99000000Y-76984000D03*
X99000000Y-78416000D03*
%TD*%
D30*
%TO.C,F1*%
X25605000Y-37000000D03*
X20525000Y-37000000D03*
%TD*%
D20*
%TO.C,R26*%
X73100000Y-76984000D03*
X73100000Y-78416000D03*
%TD*%
D16*
%TO.C,R6*%
X47635898Y-61519505D03*
X47635898Y-60274905D03*
%TD*%
D20*
%TO.C,R20*%
X102833333Y-76916000D03*
X102833333Y-78348000D03*
%TD*%
D24*
%TO.C,Q2*%
X47565898Y-101894505D03*
X50105898Y-101894505D03*
X50105898Y-95544505D03*
X47565898Y-95544505D03*
%TD*%
D11*
%TO.C,R2*%
X115414100Y-53300000D03*
X113985900Y-53300000D03*
%TD*%
D20*
%TO.C,R21*%
X77300000Y-101084000D03*
X77300000Y-102516000D03*
%TD*%
D11*
%TO.C,R3*%
X122328200Y-53340000D03*
X120900000Y-53340000D03*
%TD*%
D31*
%TO.C,C3*%
X108126800Y-44810000D03*
X106913200Y-44810000D03*
%TD*%
D11*
%TO.C,R7*%
X51649998Y-73319505D03*
X50221798Y-73319505D03*
%TD*%
D20*
%TO.C,R15*%
X106600000Y-101584000D03*
X106600000Y-103016000D03*
%TD*%
D23*
%TO.C,active2*%
X55882098Y-105219505D03*
X53789698Y-105219505D03*
%TD*%
D17*
%TO.C,R8*%
X47558198Y-105219505D03*
X46313598Y-105219505D03*
%TD*%
D19*
%TO.C,J4*%
X28778399Y-103275005D03*
X40778395Y-103275005D03*
X28778399Y-91075004D03*
X40778395Y-91075004D03*
X34778395Y-89075004D03*
%TD*%
D32*
%TO.C,T1*%
X106640000Y-52414800D03*
X107592500Y-54345200D03*
X105687500Y-54345200D03*
%TD*%
D20*
%TO.C,R13*%
X85000000Y-101142000D03*
X85000000Y-102574000D03*
%TD*%
D15*
%TO.C,D1*%
X33094098Y-53891705D03*
X36497698Y-53891705D03*
%TD*%
D25*
%TO.C,C5*%
X84770400Y-85252800D03*
X84770400Y-84039200D03*
%TD*%
D20*
%TO.C,R17*%
X81150000Y-101026000D03*
X81150000Y-102458000D03*
%TD*%
%TO.C,R18*%
X82400000Y-77000000D03*
X82400000Y-78432000D03*
%TD*%
D33*
%TO.C,ONES*%
X84916000Y-105196000D03*
X82376000Y-105196000D03*
X79836000Y-105196000D03*
X77296000Y-105196000D03*
X74756000Y-105196000D03*
X74756000Y-74796010D03*
X77296000Y-74796010D03*
X79836000Y-74796010D03*
X82376000Y-74796010D03*
X84916000Y-74796010D03*
%TD*%
%TO.C,TENS*%
X110444602Y-105200995D03*
X107904602Y-105200995D03*
X105364602Y-105200995D03*
X102824602Y-105200995D03*
X100284602Y-105200995D03*
X100284602Y-74801005D03*
X102824602Y-74801005D03*
X105364602Y-74801005D03*
X107904602Y-74801005D03*
X110444602Y-74801005D03*
%TD*%
D34*
%TO.C,U2*%
X118270000Y-44980000D03*
X118270000Y-44480000D03*
X118270000Y-43980000D03*
X118270000Y-43480000D03*
X118270000Y-42980000D03*
X113970000Y-42980000D03*
X113970000Y-43480000D03*
X113970000Y-43980000D03*
X113970000Y-44480000D03*
X113970000Y-44980000D03*
%TD*%
M02*
