%TF.GenerationSoftware,KiCad,Pcbnew,8.0.1-8.0.1-1~ubuntu22.04.1*%
%TF.CreationDate,2024-04-18T14:36:56-07:00*%
%TF.ProjectId,all_components,616c6c5f-636f-46d7-906f-6e656e74732e,rev?*%
%TF.SameCoordinates,Original*%
%TF.FileFunction,Legend,Top*%
%TF.FilePolarity,Positive*%
%FSLAX46Y46*%
G04 Gerber Fmt 4.6, Leading zero omitted, Abs format (unit mm)*
G04 Created by KiCad (PCBNEW 8.0.1-8.0.1-1~ubuntu22.04.1) date 2024-04-18 14:36:56*
%MOMM*%
%LPD*%
G01*
G04 APERTURE LIST*
%ADD10C,0.125000*%
%ADD11C,0.250000*%
%ADD12C,0.300000*%
%ADD13C,0.500000*%
%ADD14C,0.150000*%
%ADD15C,0.187500*%
%ADD16C,0.100000*%
%ADD17C,0.152400*%
%ADD18C,0.127000*%
%ADD19C,0.200000*%
G04 APERTURE END LIST*
D10*
X105087474Y-62188500D02*
X105158902Y-62212309D01*
X105158902Y-62212309D02*
X105277950Y-62212309D01*
X105277950Y-62212309D02*
X105325569Y-62188500D01*
X105325569Y-62188500D02*
X105349378Y-62164690D01*
X105349378Y-62164690D02*
X105373188Y-62117071D01*
X105373188Y-62117071D02*
X105373188Y-62069452D01*
X105373188Y-62069452D02*
X105349378Y-62021833D01*
X105349378Y-62021833D02*
X105325569Y-61998023D01*
X105325569Y-61998023D02*
X105277950Y-61974214D01*
X105277950Y-61974214D02*
X105182712Y-61950404D01*
X105182712Y-61950404D02*
X105135093Y-61926595D01*
X105135093Y-61926595D02*
X105111283Y-61902785D01*
X105111283Y-61902785D02*
X105087474Y-61855166D01*
X105087474Y-61855166D02*
X105087474Y-61807547D01*
X105087474Y-61807547D02*
X105111283Y-61759928D01*
X105111283Y-61759928D02*
X105135093Y-61736119D01*
X105135093Y-61736119D02*
X105182712Y-61712309D01*
X105182712Y-61712309D02*
X105301759Y-61712309D01*
X105301759Y-61712309D02*
X105373188Y-61736119D01*
X105849378Y-62212309D02*
X105563664Y-62212309D01*
X105706521Y-62212309D02*
X105706521Y-61712309D01*
X105706521Y-61712309D02*
X105658902Y-61783738D01*
X105658902Y-61783738D02*
X105611283Y-61831357D01*
X105611283Y-61831357D02*
X105563664Y-61855166D01*
X106801758Y-61688500D02*
X106373187Y-62331357D01*
X107325568Y-62069452D02*
X107563663Y-62069452D01*
X107277949Y-62212309D02*
X107444615Y-61712309D01*
X107444615Y-61712309D02*
X107611282Y-62212309D01*
X107777948Y-62212309D02*
X107777948Y-61712309D01*
X107777948Y-61712309D02*
X107896996Y-61712309D01*
X107896996Y-61712309D02*
X107968424Y-61736119D01*
X107968424Y-61736119D02*
X108016043Y-61783738D01*
X108016043Y-61783738D02*
X108039853Y-61831357D01*
X108039853Y-61831357D02*
X108063662Y-61926595D01*
X108063662Y-61926595D02*
X108063662Y-61998023D01*
X108063662Y-61998023D02*
X108039853Y-62093261D01*
X108039853Y-62093261D02*
X108016043Y-62140880D01*
X108016043Y-62140880D02*
X107968424Y-62188500D01*
X107968424Y-62188500D02*
X107896996Y-62212309D01*
X107896996Y-62212309D02*
X107777948Y-62212309D01*
X108563662Y-62164690D02*
X108539853Y-62188500D01*
X108539853Y-62188500D02*
X108468424Y-62212309D01*
X108468424Y-62212309D02*
X108420805Y-62212309D01*
X108420805Y-62212309D02*
X108349377Y-62188500D01*
X108349377Y-62188500D02*
X108301758Y-62140880D01*
X108301758Y-62140880D02*
X108277948Y-62093261D01*
X108277948Y-62093261D02*
X108254139Y-61998023D01*
X108254139Y-61998023D02*
X108254139Y-61926595D01*
X108254139Y-61926595D02*
X108277948Y-61831357D01*
X108277948Y-61831357D02*
X108301758Y-61783738D01*
X108301758Y-61783738D02*
X108349377Y-61736119D01*
X108349377Y-61736119D02*
X108420805Y-61712309D01*
X108420805Y-61712309D02*
X108468424Y-61712309D01*
X108468424Y-61712309D02*
X108539853Y-61736119D01*
X108539853Y-61736119D02*
X108563662Y-61759928D01*
X56087474Y-66488500D02*
X56158902Y-66512309D01*
X56158902Y-66512309D02*
X56277950Y-66512309D01*
X56277950Y-66512309D02*
X56325569Y-66488500D01*
X56325569Y-66488500D02*
X56349378Y-66464690D01*
X56349378Y-66464690D02*
X56373188Y-66417071D01*
X56373188Y-66417071D02*
X56373188Y-66369452D01*
X56373188Y-66369452D02*
X56349378Y-66321833D01*
X56349378Y-66321833D02*
X56325569Y-66298023D01*
X56325569Y-66298023D02*
X56277950Y-66274214D01*
X56277950Y-66274214D02*
X56182712Y-66250404D01*
X56182712Y-66250404D02*
X56135093Y-66226595D01*
X56135093Y-66226595D02*
X56111283Y-66202785D01*
X56111283Y-66202785D02*
X56087474Y-66155166D01*
X56087474Y-66155166D02*
X56087474Y-66107547D01*
X56087474Y-66107547D02*
X56111283Y-66059928D01*
X56111283Y-66059928D02*
X56135093Y-66036119D01*
X56135093Y-66036119D02*
X56182712Y-66012309D01*
X56182712Y-66012309D02*
X56301759Y-66012309D01*
X56301759Y-66012309D02*
X56373188Y-66036119D01*
X56563664Y-66059928D02*
X56587473Y-66036119D01*
X56587473Y-66036119D02*
X56635092Y-66012309D01*
X56635092Y-66012309D02*
X56754140Y-66012309D01*
X56754140Y-66012309D02*
X56801759Y-66036119D01*
X56801759Y-66036119D02*
X56825568Y-66059928D01*
X56825568Y-66059928D02*
X56849378Y-66107547D01*
X56849378Y-66107547D02*
X56849378Y-66155166D01*
X56849378Y-66155166D02*
X56825568Y-66226595D01*
X56825568Y-66226595D02*
X56539854Y-66512309D01*
X56539854Y-66512309D02*
X56849378Y-66512309D01*
X57801758Y-65988500D02*
X57373187Y-66631357D01*
X58349377Y-66512309D02*
X58349377Y-66012309D01*
X58587472Y-66512309D02*
X58587472Y-66012309D01*
X58587472Y-66012309D02*
X58873186Y-66512309D01*
X58873186Y-66512309D02*
X58873186Y-66012309D01*
X59349377Y-66512309D02*
X59111282Y-66512309D01*
X59111282Y-66512309D02*
X59111282Y-66012309D01*
X59516044Y-66250404D02*
X59682711Y-66250404D01*
X59754139Y-66512309D02*
X59516044Y-66512309D01*
X59516044Y-66512309D02*
X59516044Y-66012309D01*
X59516044Y-66012309D02*
X59754139Y-66012309D01*
X59896997Y-66012309D02*
X60182711Y-66012309D01*
X60039854Y-66512309D02*
X60039854Y-66012309D01*
X56077474Y-98448500D02*
X56148902Y-98472309D01*
X56148902Y-98472309D02*
X56267950Y-98472309D01*
X56267950Y-98472309D02*
X56315569Y-98448500D01*
X56315569Y-98448500D02*
X56339378Y-98424690D01*
X56339378Y-98424690D02*
X56363188Y-98377071D01*
X56363188Y-98377071D02*
X56363188Y-98329452D01*
X56363188Y-98329452D02*
X56339378Y-98281833D01*
X56339378Y-98281833D02*
X56315569Y-98258023D01*
X56315569Y-98258023D02*
X56267950Y-98234214D01*
X56267950Y-98234214D02*
X56172712Y-98210404D01*
X56172712Y-98210404D02*
X56125093Y-98186595D01*
X56125093Y-98186595D02*
X56101283Y-98162785D01*
X56101283Y-98162785D02*
X56077474Y-98115166D01*
X56077474Y-98115166D02*
X56077474Y-98067547D01*
X56077474Y-98067547D02*
X56101283Y-98019928D01*
X56101283Y-98019928D02*
X56125093Y-97996119D01*
X56125093Y-97996119D02*
X56172712Y-97972309D01*
X56172712Y-97972309D02*
X56291759Y-97972309D01*
X56291759Y-97972309D02*
X56363188Y-97996119D01*
X56529854Y-97972309D02*
X56839378Y-97972309D01*
X56839378Y-97972309D02*
X56672711Y-98162785D01*
X56672711Y-98162785D02*
X56744140Y-98162785D01*
X56744140Y-98162785D02*
X56791759Y-98186595D01*
X56791759Y-98186595D02*
X56815568Y-98210404D01*
X56815568Y-98210404D02*
X56839378Y-98258023D01*
X56839378Y-98258023D02*
X56839378Y-98377071D01*
X56839378Y-98377071D02*
X56815568Y-98424690D01*
X56815568Y-98424690D02*
X56791759Y-98448500D01*
X56791759Y-98448500D02*
X56744140Y-98472309D01*
X56744140Y-98472309D02*
X56601283Y-98472309D01*
X56601283Y-98472309D02*
X56553664Y-98448500D01*
X56553664Y-98448500D02*
X56529854Y-98424690D01*
X57791758Y-97948500D02*
X57363187Y-98591357D01*
X58434615Y-97972309D02*
X58529853Y-97972309D01*
X58529853Y-97972309D02*
X58577472Y-97996119D01*
X58577472Y-97996119D02*
X58625091Y-98043738D01*
X58625091Y-98043738D02*
X58648901Y-98138976D01*
X58648901Y-98138976D02*
X58648901Y-98305642D01*
X58648901Y-98305642D02*
X58625091Y-98400880D01*
X58625091Y-98400880D02*
X58577472Y-98448500D01*
X58577472Y-98448500D02*
X58529853Y-98472309D01*
X58529853Y-98472309D02*
X58434615Y-98472309D01*
X58434615Y-98472309D02*
X58386996Y-98448500D01*
X58386996Y-98448500D02*
X58339377Y-98400880D01*
X58339377Y-98400880D02*
X58315568Y-98305642D01*
X58315568Y-98305642D02*
X58315568Y-98138976D01*
X58315568Y-98138976D02*
X58339377Y-98043738D01*
X58339377Y-98043738D02*
X58386996Y-97996119D01*
X58386996Y-97996119D02*
X58434615Y-97972309D01*
X58863187Y-97972309D02*
X58863187Y-98377071D01*
X58863187Y-98377071D02*
X58886997Y-98424690D01*
X58886997Y-98424690D02*
X58910806Y-98448500D01*
X58910806Y-98448500D02*
X58958425Y-98472309D01*
X58958425Y-98472309D02*
X59053663Y-98472309D01*
X59053663Y-98472309D02*
X59101282Y-98448500D01*
X59101282Y-98448500D02*
X59125092Y-98424690D01*
X59125092Y-98424690D02*
X59148901Y-98377071D01*
X59148901Y-98377071D02*
X59148901Y-97972309D01*
X59315569Y-97972309D02*
X59601283Y-97972309D01*
X59458426Y-98472309D02*
X59458426Y-97972309D01*
X60006044Y-98472309D02*
X59767949Y-98472309D01*
X59767949Y-98472309D02*
X59767949Y-97972309D01*
X60172711Y-98210404D02*
X60339378Y-98210404D01*
X60410806Y-98472309D02*
X60172711Y-98472309D01*
X60172711Y-98472309D02*
X60172711Y-97972309D01*
X60172711Y-97972309D02*
X60410806Y-97972309D01*
X60553664Y-97972309D02*
X60839378Y-97972309D01*
X60696521Y-98472309D02*
X60696521Y-97972309D01*
D11*
X76713044Y-70894619D02*
X76903520Y-70894619D01*
X76903520Y-70894619D02*
X76998758Y-70942238D01*
X76998758Y-70942238D02*
X77093996Y-71037476D01*
X77093996Y-71037476D02*
X77141615Y-71227952D01*
X77141615Y-71227952D02*
X77141615Y-71561285D01*
X77141615Y-71561285D02*
X77093996Y-71751761D01*
X77093996Y-71751761D02*
X76998758Y-71847000D01*
X76998758Y-71847000D02*
X76903520Y-71894619D01*
X76903520Y-71894619D02*
X76713044Y-71894619D01*
X76713044Y-71894619D02*
X76617806Y-71847000D01*
X76617806Y-71847000D02*
X76522568Y-71751761D01*
X76522568Y-71751761D02*
X76474949Y-71561285D01*
X76474949Y-71561285D02*
X76474949Y-71227952D01*
X76474949Y-71227952D02*
X76522568Y-71037476D01*
X76522568Y-71037476D02*
X76617806Y-70942238D01*
X76617806Y-70942238D02*
X76713044Y-70894619D01*
X77570187Y-71894619D02*
X77570187Y-70894619D01*
X77570187Y-70894619D02*
X78141615Y-71894619D01*
X78141615Y-71894619D02*
X78141615Y-70894619D01*
X78617806Y-71370809D02*
X78951139Y-71370809D01*
X79093996Y-71894619D02*
X78617806Y-71894619D01*
X78617806Y-71894619D02*
X78617806Y-70894619D01*
X78617806Y-70894619D02*
X79093996Y-70894619D01*
X79474949Y-71847000D02*
X79617806Y-71894619D01*
X79617806Y-71894619D02*
X79855901Y-71894619D01*
X79855901Y-71894619D02*
X79951139Y-71847000D01*
X79951139Y-71847000D02*
X79998758Y-71799380D01*
X79998758Y-71799380D02*
X80046377Y-71704142D01*
X80046377Y-71704142D02*
X80046377Y-71608904D01*
X80046377Y-71608904D02*
X79998758Y-71513666D01*
X79998758Y-71513666D02*
X79951139Y-71466047D01*
X79951139Y-71466047D02*
X79855901Y-71418428D01*
X79855901Y-71418428D02*
X79665425Y-71370809D01*
X79665425Y-71370809D02*
X79570187Y-71323190D01*
X79570187Y-71323190D02*
X79522568Y-71275571D01*
X79522568Y-71275571D02*
X79474949Y-71180333D01*
X79474949Y-71180333D02*
X79474949Y-71085095D01*
X79474949Y-71085095D02*
X79522568Y-70989857D01*
X79522568Y-70989857D02*
X79570187Y-70942238D01*
X79570187Y-70942238D02*
X79665425Y-70894619D01*
X79665425Y-70894619D02*
X79903520Y-70894619D01*
X79903520Y-70894619D02*
X80046377Y-70942238D01*
X102319711Y-71174619D02*
X102891139Y-71174619D01*
X102605425Y-72174619D02*
X102605425Y-71174619D01*
X103224473Y-71650809D02*
X103557806Y-71650809D01*
X103700663Y-72174619D02*
X103224473Y-72174619D01*
X103224473Y-72174619D02*
X103224473Y-71174619D01*
X103224473Y-71174619D02*
X103700663Y-71174619D01*
X104129235Y-72174619D02*
X104129235Y-71174619D01*
X104129235Y-71174619D02*
X104700663Y-72174619D01*
X104700663Y-72174619D02*
X104700663Y-71174619D01*
X105129235Y-72127000D02*
X105272092Y-72174619D01*
X105272092Y-72174619D02*
X105510187Y-72174619D01*
X105510187Y-72174619D02*
X105605425Y-72127000D01*
X105605425Y-72127000D02*
X105653044Y-72079380D01*
X105653044Y-72079380D02*
X105700663Y-71984142D01*
X105700663Y-71984142D02*
X105700663Y-71888904D01*
X105700663Y-71888904D02*
X105653044Y-71793666D01*
X105653044Y-71793666D02*
X105605425Y-71746047D01*
X105605425Y-71746047D02*
X105510187Y-71698428D01*
X105510187Y-71698428D02*
X105319711Y-71650809D01*
X105319711Y-71650809D02*
X105224473Y-71603190D01*
X105224473Y-71603190D02*
X105176854Y-71555571D01*
X105176854Y-71555571D02*
X105129235Y-71460333D01*
X105129235Y-71460333D02*
X105129235Y-71365095D01*
X105129235Y-71365095D02*
X105176854Y-71269857D01*
X105176854Y-71269857D02*
X105224473Y-71222238D01*
X105224473Y-71222238D02*
X105319711Y-71174619D01*
X105319711Y-71174619D02*
X105557806Y-71174619D01*
X105557806Y-71174619D02*
X105700663Y-71222238D01*
D12*
X32564510Y-77470828D02*
X32564510Y-75970828D01*
X33278796Y-77470828D02*
X33278796Y-75970828D01*
X33278796Y-75970828D02*
X34135939Y-77470828D01*
X34135939Y-77470828D02*
X34135939Y-75970828D01*
X35564511Y-77470828D02*
X34850225Y-77470828D01*
X34850225Y-77470828D02*
X34850225Y-75970828D01*
X36064511Y-76685114D02*
X36564511Y-76685114D01*
X36778797Y-77470828D02*
X36064511Y-77470828D01*
X36064511Y-77470828D02*
X36064511Y-75970828D01*
X36064511Y-75970828D02*
X36778797Y-75970828D01*
X37207369Y-75970828D02*
X38064512Y-75970828D01*
X37635940Y-77470828D02*
X37635940Y-75970828D01*
X30530225Y-108600828D02*
X30815939Y-108600828D01*
X30815939Y-108600828D02*
X30958796Y-108672257D01*
X30958796Y-108672257D02*
X31101653Y-108815114D01*
X31101653Y-108815114D02*
X31173082Y-109100828D01*
X31173082Y-109100828D02*
X31173082Y-109600828D01*
X31173082Y-109600828D02*
X31101653Y-109886542D01*
X31101653Y-109886542D02*
X30958796Y-110029400D01*
X30958796Y-110029400D02*
X30815939Y-110100828D01*
X30815939Y-110100828D02*
X30530225Y-110100828D01*
X30530225Y-110100828D02*
X30387368Y-110029400D01*
X30387368Y-110029400D02*
X30244510Y-109886542D01*
X30244510Y-109886542D02*
X30173082Y-109600828D01*
X30173082Y-109600828D02*
X30173082Y-109100828D01*
X30173082Y-109100828D02*
X30244510Y-108815114D01*
X30244510Y-108815114D02*
X30387368Y-108672257D01*
X30387368Y-108672257D02*
X30530225Y-108600828D01*
X31815939Y-108600828D02*
X31815939Y-109815114D01*
X31815939Y-109815114D02*
X31887368Y-109957971D01*
X31887368Y-109957971D02*
X31958797Y-110029400D01*
X31958797Y-110029400D02*
X32101654Y-110100828D01*
X32101654Y-110100828D02*
X32387368Y-110100828D01*
X32387368Y-110100828D02*
X32530225Y-110029400D01*
X32530225Y-110029400D02*
X32601654Y-109957971D01*
X32601654Y-109957971D02*
X32673082Y-109815114D01*
X32673082Y-109815114D02*
X32673082Y-108600828D01*
X33173083Y-108600828D02*
X34030226Y-108600828D01*
X33601654Y-110100828D02*
X33601654Y-108600828D01*
X35244511Y-110100828D02*
X34530225Y-110100828D01*
X34530225Y-110100828D02*
X34530225Y-108600828D01*
X35744511Y-109315114D02*
X36244511Y-109315114D01*
X36458797Y-110100828D02*
X35744511Y-110100828D01*
X35744511Y-110100828D02*
X35744511Y-108600828D01*
X35744511Y-108600828D02*
X36458797Y-108600828D01*
X36887369Y-108600828D02*
X37744512Y-108600828D01*
X37315940Y-110100828D02*
X37315940Y-108600828D01*
D10*
X72997950Y-55250404D02*
X73069378Y-55274214D01*
X73069378Y-55274214D02*
X73093188Y-55298023D01*
X73093188Y-55298023D02*
X73116997Y-55345642D01*
X73116997Y-55345642D02*
X73116997Y-55417071D01*
X73116997Y-55417071D02*
X73093188Y-55464690D01*
X73093188Y-55464690D02*
X73069378Y-55488500D01*
X73069378Y-55488500D02*
X73021759Y-55512309D01*
X73021759Y-55512309D02*
X72831283Y-55512309D01*
X72831283Y-55512309D02*
X72831283Y-55012309D01*
X72831283Y-55012309D02*
X72997950Y-55012309D01*
X72997950Y-55012309D02*
X73045569Y-55036119D01*
X73045569Y-55036119D02*
X73069378Y-55059928D01*
X73069378Y-55059928D02*
X73093188Y-55107547D01*
X73093188Y-55107547D02*
X73093188Y-55155166D01*
X73093188Y-55155166D02*
X73069378Y-55202785D01*
X73069378Y-55202785D02*
X73045569Y-55226595D01*
X73045569Y-55226595D02*
X72997950Y-55250404D01*
X72997950Y-55250404D02*
X72831283Y-55250404D01*
X73426521Y-55012309D02*
X73521759Y-55012309D01*
X73521759Y-55012309D02*
X73569378Y-55036119D01*
X73569378Y-55036119D02*
X73616997Y-55083738D01*
X73616997Y-55083738D02*
X73640807Y-55178976D01*
X73640807Y-55178976D02*
X73640807Y-55345642D01*
X73640807Y-55345642D02*
X73616997Y-55440880D01*
X73616997Y-55440880D02*
X73569378Y-55488500D01*
X73569378Y-55488500D02*
X73521759Y-55512309D01*
X73521759Y-55512309D02*
X73426521Y-55512309D01*
X73426521Y-55512309D02*
X73378902Y-55488500D01*
X73378902Y-55488500D02*
X73331283Y-55440880D01*
X73331283Y-55440880D02*
X73307474Y-55345642D01*
X73307474Y-55345642D02*
X73307474Y-55178976D01*
X73307474Y-55178976D02*
X73331283Y-55083738D01*
X73331283Y-55083738D02*
X73378902Y-55036119D01*
X73378902Y-55036119D02*
X73426521Y-55012309D01*
X73831284Y-55369452D02*
X74069379Y-55369452D01*
X73783665Y-55512309D02*
X73950331Y-55012309D01*
X73950331Y-55012309D02*
X74116998Y-55512309D01*
X74569378Y-55512309D02*
X74402712Y-55274214D01*
X74283664Y-55512309D02*
X74283664Y-55012309D01*
X74283664Y-55012309D02*
X74474140Y-55012309D01*
X74474140Y-55012309D02*
X74521759Y-55036119D01*
X74521759Y-55036119D02*
X74545569Y-55059928D01*
X74545569Y-55059928D02*
X74569378Y-55107547D01*
X74569378Y-55107547D02*
X74569378Y-55178976D01*
X74569378Y-55178976D02*
X74545569Y-55226595D01*
X74545569Y-55226595D02*
X74521759Y-55250404D01*
X74521759Y-55250404D02*
X74474140Y-55274214D01*
X74474140Y-55274214D02*
X74283664Y-55274214D01*
X74783664Y-55512309D02*
X74783664Y-55012309D01*
X74783664Y-55012309D02*
X74902712Y-55012309D01*
X74902712Y-55012309D02*
X74974140Y-55036119D01*
X74974140Y-55036119D02*
X75021759Y-55083738D01*
X75021759Y-55083738D02*
X75045569Y-55131357D01*
X75045569Y-55131357D02*
X75069378Y-55226595D01*
X75069378Y-55226595D02*
X75069378Y-55298023D01*
X75069378Y-55298023D02*
X75045569Y-55393261D01*
X75045569Y-55393261D02*
X75021759Y-55440880D01*
X75021759Y-55440880D02*
X74974140Y-55488500D01*
X74974140Y-55488500D02*
X74902712Y-55512309D01*
X74902712Y-55512309D02*
X74783664Y-55512309D01*
X75664616Y-55512309D02*
X75664616Y-55012309D01*
X75664616Y-55012309D02*
X75855092Y-55012309D01*
X75855092Y-55012309D02*
X75902711Y-55036119D01*
X75902711Y-55036119D02*
X75926521Y-55059928D01*
X75926521Y-55059928D02*
X75950330Y-55107547D01*
X75950330Y-55107547D02*
X75950330Y-55178976D01*
X75950330Y-55178976D02*
X75926521Y-55226595D01*
X75926521Y-55226595D02*
X75902711Y-55250404D01*
X75902711Y-55250404D02*
X75855092Y-55274214D01*
X75855092Y-55274214D02*
X75664616Y-55274214D01*
X76116997Y-55012309D02*
X76236045Y-55512309D01*
X76236045Y-55512309D02*
X76331283Y-55155166D01*
X76331283Y-55155166D02*
X76426521Y-55512309D01*
X76426521Y-55512309D02*
X76545569Y-55012309D01*
X77021759Y-55512309D02*
X76855093Y-55274214D01*
X76736045Y-55512309D02*
X76736045Y-55012309D01*
X76736045Y-55012309D02*
X76926521Y-55012309D01*
X76926521Y-55012309D02*
X76974140Y-55036119D01*
X76974140Y-55036119D02*
X76997950Y-55059928D01*
X76997950Y-55059928D02*
X77021759Y-55107547D01*
X77021759Y-55107547D02*
X77021759Y-55178976D01*
X77021759Y-55178976D02*
X76997950Y-55226595D01*
X76997950Y-55226595D02*
X76974140Y-55250404D01*
X76974140Y-55250404D02*
X76926521Y-55274214D01*
X76926521Y-55274214D02*
X76736045Y-55274214D01*
X53507474Y-106959452D02*
X53745569Y-106959452D01*
X53459855Y-107102309D02*
X53626521Y-106602309D01*
X53626521Y-106602309D02*
X53793188Y-107102309D01*
X54245568Y-107054690D02*
X54221759Y-107078500D01*
X54221759Y-107078500D02*
X54150330Y-107102309D01*
X54150330Y-107102309D02*
X54102711Y-107102309D01*
X54102711Y-107102309D02*
X54031283Y-107078500D01*
X54031283Y-107078500D02*
X53983664Y-107030880D01*
X53983664Y-107030880D02*
X53959854Y-106983261D01*
X53959854Y-106983261D02*
X53936045Y-106888023D01*
X53936045Y-106888023D02*
X53936045Y-106816595D01*
X53936045Y-106816595D02*
X53959854Y-106721357D01*
X53959854Y-106721357D02*
X53983664Y-106673738D01*
X53983664Y-106673738D02*
X54031283Y-106626119D01*
X54031283Y-106626119D02*
X54102711Y-106602309D01*
X54102711Y-106602309D02*
X54150330Y-106602309D01*
X54150330Y-106602309D02*
X54221759Y-106626119D01*
X54221759Y-106626119D02*
X54245568Y-106649928D01*
X54388426Y-106602309D02*
X54674140Y-106602309D01*
X54531283Y-107102309D02*
X54531283Y-106602309D01*
X54840806Y-107102309D02*
X54840806Y-106602309D01*
X55007473Y-106602309D02*
X55174139Y-107102309D01*
X55174139Y-107102309D02*
X55340806Y-106602309D01*
X55507472Y-106840404D02*
X55674139Y-106840404D01*
X55745567Y-107102309D02*
X55507472Y-107102309D01*
X55507472Y-107102309D02*
X55507472Y-106602309D01*
X55507472Y-106602309D02*
X55745567Y-106602309D01*
X56340805Y-106911833D02*
X56721758Y-106911833D01*
X57436043Y-106602309D02*
X57531281Y-106602309D01*
X57531281Y-106602309D02*
X57578900Y-106626119D01*
X57578900Y-106626119D02*
X57626519Y-106673738D01*
X57626519Y-106673738D02*
X57650329Y-106768976D01*
X57650329Y-106768976D02*
X57650329Y-106935642D01*
X57650329Y-106935642D02*
X57626519Y-107030880D01*
X57626519Y-107030880D02*
X57578900Y-107078500D01*
X57578900Y-107078500D02*
X57531281Y-107102309D01*
X57531281Y-107102309D02*
X57436043Y-107102309D01*
X57436043Y-107102309D02*
X57388424Y-107078500D01*
X57388424Y-107078500D02*
X57340805Y-107030880D01*
X57340805Y-107030880D02*
X57316996Y-106935642D01*
X57316996Y-106935642D02*
X57316996Y-106768976D01*
X57316996Y-106768976D02*
X57340805Y-106673738D01*
X57340805Y-106673738D02*
X57388424Y-106626119D01*
X57388424Y-106626119D02*
X57436043Y-106602309D01*
X57864615Y-106602309D02*
X57864615Y-107007071D01*
X57864615Y-107007071D02*
X57888425Y-107054690D01*
X57888425Y-107054690D02*
X57912234Y-107078500D01*
X57912234Y-107078500D02*
X57959853Y-107102309D01*
X57959853Y-107102309D02*
X58055091Y-107102309D01*
X58055091Y-107102309D02*
X58102710Y-107078500D01*
X58102710Y-107078500D02*
X58126520Y-107054690D01*
X58126520Y-107054690D02*
X58150329Y-107007071D01*
X58150329Y-107007071D02*
X58150329Y-106602309D01*
X58316997Y-106602309D02*
X58602711Y-106602309D01*
X58459854Y-107102309D02*
X58459854Y-106602309D01*
X53837474Y-74969452D02*
X54075569Y-74969452D01*
X53789855Y-75112309D02*
X53956521Y-74612309D01*
X53956521Y-74612309D02*
X54123188Y-75112309D01*
X54575568Y-75064690D02*
X54551759Y-75088500D01*
X54551759Y-75088500D02*
X54480330Y-75112309D01*
X54480330Y-75112309D02*
X54432711Y-75112309D01*
X54432711Y-75112309D02*
X54361283Y-75088500D01*
X54361283Y-75088500D02*
X54313664Y-75040880D01*
X54313664Y-75040880D02*
X54289854Y-74993261D01*
X54289854Y-74993261D02*
X54266045Y-74898023D01*
X54266045Y-74898023D02*
X54266045Y-74826595D01*
X54266045Y-74826595D02*
X54289854Y-74731357D01*
X54289854Y-74731357D02*
X54313664Y-74683738D01*
X54313664Y-74683738D02*
X54361283Y-74636119D01*
X54361283Y-74636119D02*
X54432711Y-74612309D01*
X54432711Y-74612309D02*
X54480330Y-74612309D01*
X54480330Y-74612309D02*
X54551759Y-74636119D01*
X54551759Y-74636119D02*
X54575568Y-74659928D01*
X54718426Y-74612309D02*
X55004140Y-74612309D01*
X54861283Y-75112309D02*
X54861283Y-74612309D01*
X55170806Y-75112309D02*
X55170806Y-74612309D01*
X55337473Y-74612309D02*
X55504139Y-75112309D01*
X55504139Y-75112309D02*
X55670806Y-74612309D01*
X55837472Y-74850404D02*
X56004139Y-74850404D01*
X56075567Y-75112309D02*
X55837472Y-75112309D01*
X55837472Y-75112309D02*
X55837472Y-74612309D01*
X55837472Y-74612309D02*
X56075567Y-74612309D01*
X56670805Y-74921833D02*
X57051758Y-74921833D01*
X57670805Y-75112309D02*
X57670805Y-74612309D01*
X57908900Y-75112309D02*
X57908900Y-74612309D01*
X57908900Y-74612309D02*
X58194614Y-75112309D01*
X58194614Y-75112309D02*
X58194614Y-74612309D01*
D13*
X39775898Y-72170705D02*
X34695898Y-65668305D01*
X34695898Y-65668305D02*
X34695898Y-59115105D01*
X39812849Y-103958456D02*
X34732849Y-97456056D01*
X34732849Y-97456056D02*
X34732849Y-90902856D01*
D10*
X112867474Y-37959452D02*
X113105569Y-37959452D01*
X112819855Y-38102309D02*
X112986521Y-37602309D01*
X112986521Y-37602309D02*
X113153188Y-38102309D01*
X113581759Y-37626119D02*
X113534140Y-37602309D01*
X113534140Y-37602309D02*
X113462711Y-37602309D01*
X113462711Y-37602309D02*
X113391283Y-37626119D01*
X113391283Y-37626119D02*
X113343664Y-37673738D01*
X113343664Y-37673738D02*
X113319854Y-37721357D01*
X113319854Y-37721357D02*
X113296045Y-37816595D01*
X113296045Y-37816595D02*
X113296045Y-37888023D01*
X113296045Y-37888023D02*
X113319854Y-37983261D01*
X113319854Y-37983261D02*
X113343664Y-38030880D01*
X113343664Y-38030880D02*
X113391283Y-38078500D01*
X113391283Y-38078500D02*
X113462711Y-38102309D01*
X113462711Y-38102309D02*
X113510330Y-38102309D01*
X113510330Y-38102309D02*
X113581759Y-38078500D01*
X113581759Y-38078500D02*
X113605568Y-38054690D01*
X113605568Y-38054690D02*
X113605568Y-37888023D01*
X113605568Y-37888023D02*
X113510330Y-37888023D01*
X113819854Y-38102309D02*
X113819854Y-37602309D01*
X113819854Y-37602309D02*
X114105568Y-38102309D01*
X114105568Y-38102309D02*
X114105568Y-37602309D01*
X114343664Y-38102309D02*
X114343664Y-37602309D01*
X114343664Y-37602309D02*
X114462712Y-37602309D01*
X114462712Y-37602309D02*
X114534140Y-37626119D01*
X114534140Y-37626119D02*
X114581759Y-37673738D01*
X114581759Y-37673738D02*
X114605569Y-37721357D01*
X114605569Y-37721357D02*
X114629378Y-37816595D01*
X114629378Y-37816595D02*
X114629378Y-37888023D01*
X114629378Y-37888023D02*
X114605569Y-37983261D01*
X114605569Y-37983261D02*
X114581759Y-38030880D01*
X114581759Y-38030880D02*
X114534140Y-38078500D01*
X114534140Y-38078500D02*
X114462712Y-38102309D01*
X114462712Y-38102309D02*
X114343664Y-38102309D01*
X122336997Y-93182309D02*
X122170331Y-92944214D01*
X122051283Y-93182309D02*
X122051283Y-92682309D01*
X122051283Y-92682309D02*
X122241759Y-92682309D01*
X122241759Y-92682309D02*
X122289378Y-92706119D01*
X122289378Y-92706119D02*
X122313188Y-92729928D01*
X122313188Y-92729928D02*
X122336997Y-92777547D01*
X122336997Y-92777547D02*
X122336997Y-92848976D01*
X122336997Y-92848976D02*
X122313188Y-92896595D01*
X122313188Y-92896595D02*
X122289378Y-92920404D01*
X122289378Y-92920404D02*
X122241759Y-92944214D01*
X122241759Y-92944214D02*
X122051283Y-92944214D01*
X122836997Y-93134690D02*
X122813188Y-93158500D01*
X122813188Y-93158500D02*
X122741759Y-93182309D01*
X122741759Y-93182309D02*
X122694140Y-93182309D01*
X122694140Y-93182309D02*
X122622712Y-93158500D01*
X122622712Y-93158500D02*
X122575093Y-93110880D01*
X122575093Y-93110880D02*
X122551283Y-93063261D01*
X122551283Y-93063261D02*
X122527474Y-92968023D01*
X122527474Y-92968023D02*
X122527474Y-92896595D01*
X122527474Y-92896595D02*
X122551283Y-92801357D01*
X122551283Y-92801357D02*
X122575093Y-92753738D01*
X122575093Y-92753738D02*
X122622712Y-92706119D01*
X122622712Y-92706119D02*
X122694140Y-92682309D01*
X122694140Y-92682309D02*
X122741759Y-92682309D01*
X122741759Y-92682309D02*
X122813188Y-92706119D01*
X122813188Y-92706119D02*
X122836997Y-92729928D01*
X123289378Y-93182309D02*
X123051283Y-93182309D01*
X123051283Y-93182309D02*
X123051283Y-92682309D01*
X123456045Y-93182309D02*
X123456045Y-92682309D01*
X123741759Y-93182309D02*
X123527474Y-92896595D01*
X123741759Y-92682309D02*
X123456045Y-92968023D01*
D14*
X14646779Y-26869819D02*
X14646779Y-25869819D01*
X14646779Y-25869819D02*
X15218207Y-26869819D01*
X15218207Y-26869819D02*
X15218207Y-25869819D01*
D10*
X113497474Y-57558500D02*
X113568902Y-57582309D01*
X113568902Y-57582309D02*
X113687950Y-57582309D01*
X113687950Y-57582309D02*
X113735569Y-57558500D01*
X113735569Y-57558500D02*
X113759378Y-57534690D01*
X113759378Y-57534690D02*
X113783188Y-57487071D01*
X113783188Y-57487071D02*
X113783188Y-57439452D01*
X113783188Y-57439452D02*
X113759378Y-57391833D01*
X113759378Y-57391833D02*
X113735569Y-57368023D01*
X113735569Y-57368023D02*
X113687950Y-57344214D01*
X113687950Y-57344214D02*
X113592712Y-57320404D01*
X113592712Y-57320404D02*
X113545093Y-57296595D01*
X113545093Y-57296595D02*
X113521283Y-57272785D01*
X113521283Y-57272785D02*
X113497474Y-57225166D01*
X113497474Y-57225166D02*
X113497474Y-57177547D01*
X113497474Y-57177547D02*
X113521283Y-57129928D01*
X113521283Y-57129928D02*
X113545093Y-57106119D01*
X113545093Y-57106119D02*
X113592712Y-57082309D01*
X113592712Y-57082309D02*
X113711759Y-57082309D01*
X113711759Y-57082309D02*
X113783188Y-57106119D01*
X114283187Y-57534690D02*
X114259378Y-57558500D01*
X114259378Y-57558500D02*
X114187949Y-57582309D01*
X114187949Y-57582309D02*
X114140330Y-57582309D01*
X114140330Y-57582309D02*
X114068902Y-57558500D01*
X114068902Y-57558500D02*
X114021283Y-57510880D01*
X114021283Y-57510880D02*
X113997473Y-57463261D01*
X113997473Y-57463261D02*
X113973664Y-57368023D01*
X113973664Y-57368023D02*
X113973664Y-57296595D01*
X113973664Y-57296595D02*
X113997473Y-57201357D01*
X113997473Y-57201357D02*
X114021283Y-57153738D01*
X114021283Y-57153738D02*
X114068902Y-57106119D01*
X114068902Y-57106119D02*
X114140330Y-57082309D01*
X114140330Y-57082309D02*
X114187949Y-57082309D01*
X114187949Y-57082309D02*
X114259378Y-57106119D01*
X114259378Y-57106119D02*
X114283187Y-57129928D01*
X114735568Y-57582309D02*
X114497473Y-57582309D01*
X114497473Y-57582309D02*
X114497473Y-57082309D01*
D15*
X17407640Y-90573821D02*
X17336212Y-90645250D01*
X17336212Y-90645250D02*
X17121926Y-90716678D01*
X17121926Y-90716678D02*
X16979069Y-90716678D01*
X16979069Y-90716678D02*
X16764783Y-90645250D01*
X16764783Y-90645250D02*
X16621926Y-90502392D01*
X16621926Y-90502392D02*
X16550497Y-90359535D01*
X16550497Y-90359535D02*
X16479069Y-90073821D01*
X16479069Y-90073821D02*
X16479069Y-89859535D01*
X16479069Y-89859535D02*
X16550497Y-89573821D01*
X16550497Y-89573821D02*
X16621926Y-89430964D01*
X16621926Y-89430964D02*
X16764783Y-89288107D01*
X16764783Y-89288107D02*
X16979069Y-89216678D01*
X16979069Y-89216678D02*
X17121926Y-89216678D01*
X17121926Y-89216678D02*
X17336212Y-89288107D01*
X17336212Y-89288107D02*
X17407640Y-89359535D01*
X18336212Y-89216678D02*
X18621926Y-89216678D01*
X18621926Y-89216678D02*
X18764783Y-89288107D01*
X18764783Y-89288107D02*
X18907640Y-89430964D01*
X18907640Y-89430964D02*
X18979069Y-89716678D01*
X18979069Y-89716678D02*
X18979069Y-90216678D01*
X18979069Y-90216678D02*
X18907640Y-90502392D01*
X18907640Y-90502392D02*
X18764783Y-90645250D01*
X18764783Y-90645250D02*
X18621926Y-90716678D01*
X18621926Y-90716678D02*
X18336212Y-90716678D01*
X18336212Y-90716678D02*
X18193355Y-90645250D01*
X18193355Y-90645250D02*
X18050497Y-90502392D01*
X18050497Y-90502392D02*
X17979069Y-90216678D01*
X17979069Y-90216678D02*
X17979069Y-89716678D01*
X17979069Y-89716678D02*
X18050497Y-89430964D01*
X18050497Y-89430964D02*
X18193355Y-89288107D01*
X18193355Y-89288107D02*
X18336212Y-89216678D01*
X19621926Y-90716678D02*
X19621926Y-89216678D01*
X19621926Y-89216678D02*
X20121926Y-90288107D01*
X20121926Y-90288107D02*
X20621926Y-89216678D01*
X20621926Y-89216678D02*
X20621926Y-90716678D01*
D10*
X121929855Y-82932309D02*
X122096521Y-83432309D01*
X122096521Y-83432309D02*
X122263188Y-82932309D01*
X122715568Y-83384690D02*
X122691759Y-83408500D01*
X122691759Y-83408500D02*
X122620330Y-83432309D01*
X122620330Y-83432309D02*
X122572711Y-83432309D01*
X122572711Y-83432309D02*
X122501283Y-83408500D01*
X122501283Y-83408500D02*
X122453664Y-83360880D01*
X122453664Y-83360880D02*
X122429854Y-83313261D01*
X122429854Y-83313261D02*
X122406045Y-83218023D01*
X122406045Y-83218023D02*
X122406045Y-83146595D01*
X122406045Y-83146595D02*
X122429854Y-83051357D01*
X122429854Y-83051357D02*
X122453664Y-83003738D01*
X122453664Y-83003738D02*
X122501283Y-82956119D01*
X122501283Y-82956119D02*
X122572711Y-82932309D01*
X122572711Y-82932309D02*
X122620330Y-82932309D01*
X122620330Y-82932309D02*
X122691759Y-82956119D01*
X122691759Y-82956119D02*
X122715568Y-82979928D01*
X123215568Y-83384690D02*
X123191759Y-83408500D01*
X123191759Y-83408500D02*
X123120330Y-83432309D01*
X123120330Y-83432309D02*
X123072711Y-83432309D01*
X123072711Y-83432309D02*
X123001283Y-83408500D01*
X123001283Y-83408500D02*
X122953664Y-83360880D01*
X122953664Y-83360880D02*
X122929854Y-83313261D01*
X122929854Y-83313261D02*
X122906045Y-83218023D01*
X122906045Y-83218023D02*
X122906045Y-83146595D01*
X122906045Y-83146595D02*
X122929854Y-83051357D01*
X122929854Y-83051357D02*
X122953664Y-83003738D01*
X122953664Y-83003738D02*
X123001283Y-82956119D01*
X123001283Y-82956119D02*
X123072711Y-82932309D01*
X123072711Y-82932309D02*
X123120330Y-82932309D01*
X123120330Y-82932309D02*
X123191759Y-82956119D01*
X123191759Y-82956119D02*
X123215568Y-82979928D01*
D14*
X15422969Y-42089819D02*
X14946779Y-42089819D01*
X14946779Y-42089819D02*
X14946779Y-41089819D01*
D10*
X119497474Y-37959452D02*
X119735569Y-37959452D01*
X119449855Y-38102309D02*
X119616521Y-37602309D01*
X119616521Y-37602309D02*
X119783188Y-38102309D01*
X119878426Y-37602309D02*
X120045092Y-38102309D01*
X120045092Y-38102309D02*
X120211759Y-37602309D01*
X120664139Y-38054690D02*
X120640330Y-38078500D01*
X120640330Y-38078500D02*
X120568901Y-38102309D01*
X120568901Y-38102309D02*
X120521282Y-38102309D01*
X120521282Y-38102309D02*
X120449854Y-38078500D01*
X120449854Y-38078500D02*
X120402235Y-38030880D01*
X120402235Y-38030880D02*
X120378425Y-37983261D01*
X120378425Y-37983261D02*
X120354616Y-37888023D01*
X120354616Y-37888023D02*
X120354616Y-37816595D01*
X120354616Y-37816595D02*
X120378425Y-37721357D01*
X120378425Y-37721357D02*
X120402235Y-37673738D01*
X120402235Y-37673738D02*
X120449854Y-37626119D01*
X120449854Y-37626119D02*
X120521282Y-37602309D01*
X120521282Y-37602309D02*
X120568901Y-37602309D01*
X120568901Y-37602309D02*
X120640330Y-37626119D01*
X120640330Y-37626119D02*
X120664139Y-37649928D01*
X121164139Y-38054690D02*
X121140330Y-38078500D01*
X121140330Y-38078500D02*
X121068901Y-38102309D01*
X121068901Y-38102309D02*
X121021282Y-38102309D01*
X121021282Y-38102309D02*
X120949854Y-38078500D01*
X120949854Y-38078500D02*
X120902235Y-38030880D01*
X120902235Y-38030880D02*
X120878425Y-37983261D01*
X120878425Y-37983261D02*
X120854616Y-37888023D01*
X120854616Y-37888023D02*
X120854616Y-37816595D01*
X120854616Y-37816595D02*
X120878425Y-37721357D01*
X120878425Y-37721357D02*
X120902235Y-37673738D01*
X120902235Y-37673738D02*
X120949854Y-37626119D01*
X120949854Y-37626119D02*
X121021282Y-37602309D01*
X121021282Y-37602309D02*
X121068901Y-37602309D01*
X121068901Y-37602309D02*
X121140330Y-37626119D01*
X121140330Y-37626119D02*
X121164139Y-37649928D01*
D14*
X83546779Y-32778866D02*
X84308684Y-32778866D01*
D10*
X122177474Y-88308500D02*
X122248902Y-88332309D01*
X122248902Y-88332309D02*
X122367950Y-88332309D01*
X122367950Y-88332309D02*
X122415569Y-88308500D01*
X122415569Y-88308500D02*
X122439378Y-88284690D01*
X122439378Y-88284690D02*
X122463188Y-88237071D01*
X122463188Y-88237071D02*
X122463188Y-88189452D01*
X122463188Y-88189452D02*
X122439378Y-88141833D01*
X122439378Y-88141833D02*
X122415569Y-88118023D01*
X122415569Y-88118023D02*
X122367950Y-88094214D01*
X122367950Y-88094214D02*
X122272712Y-88070404D01*
X122272712Y-88070404D02*
X122225093Y-88046595D01*
X122225093Y-88046595D02*
X122201283Y-88022785D01*
X122201283Y-88022785D02*
X122177474Y-87975166D01*
X122177474Y-87975166D02*
X122177474Y-87927547D01*
X122177474Y-87927547D02*
X122201283Y-87879928D01*
X122201283Y-87879928D02*
X122225093Y-87856119D01*
X122225093Y-87856119D02*
X122272712Y-87832309D01*
X122272712Y-87832309D02*
X122391759Y-87832309D01*
X122391759Y-87832309D02*
X122463188Y-87856119D01*
X122677473Y-88070404D02*
X122844140Y-88070404D01*
X122915568Y-88332309D02*
X122677473Y-88332309D01*
X122677473Y-88332309D02*
X122677473Y-87832309D01*
X122677473Y-87832309D02*
X122915568Y-87832309D01*
X123415568Y-88332309D02*
X123248902Y-88094214D01*
X123129854Y-88332309D02*
X123129854Y-87832309D01*
X123129854Y-87832309D02*
X123320330Y-87832309D01*
X123320330Y-87832309D02*
X123367949Y-87856119D01*
X123367949Y-87856119D02*
X123391759Y-87879928D01*
X123391759Y-87879928D02*
X123415568Y-87927547D01*
X123415568Y-87927547D02*
X123415568Y-87998976D01*
X123415568Y-87998976D02*
X123391759Y-88046595D01*
X123391759Y-88046595D02*
X123367949Y-88070404D01*
X123367949Y-88070404D02*
X123320330Y-88094214D01*
X123320330Y-88094214D02*
X123129854Y-88094214D01*
X122248640Y-77756119D02*
X122201021Y-77732309D01*
X122201021Y-77732309D02*
X122129592Y-77732309D01*
X122129592Y-77732309D02*
X122058164Y-77756119D01*
X122058164Y-77756119D02*
X122010545Y-77803738D01*
X122010545Y-77803738D02*
X121986735Y-77851357D01*
X121986735Y-77851357D02*
X121962926Y-77946595D01*
X121962926Y-77946595D02*
X121962926Y-78018023D01*
X121962926Y-78018023D02*
X121986735Y-78113261D01*
X121986735Y-78113261D02*
X122010545Y-78160880D01*
X122010545Y-78160880D02*
X122058164Y-78208500D01*
X122058164Y-78208500D02*
X122129592Y-78232309D01*
X122129592Y-78232309D02*
X122177211Y-78232309D01*
X122177211Y-78232309D02*
X122248640Y-78208500D01*
X122248640Y-78208500D02*
X122272449Y-78184690D01*
X122272449Y-78184690D02*
X122272449Y-78018023D01*
X122272449Y-78018023D02*
X122177211Y-78018023D01*
X122486735Y-78232309D02*
X122486735Y-77732309D01*
X122486735Y-77732309D02*
X122772449Y-78232309D01*
X122772449Y-78232309D02*
X122772449Y-77732309D01*
X123010545Y-78232309D02*
X123010545Y-77732309D01*
X123010545Y-77732309D02*
X123129593Y-77732309D01*
X123129593Y-77732309D02*
X123201021Y-77756119D01*
X123201021Y-77756119D02*
X123248640Y-77803738D01*
X123248640Y-77803738D02*
X123272450Y-77851357D01*
X123272450Y-77851357D02*
X123296259Y-77946595D01*
X123296259Y-77946595D02*
X123296259Y-78018023D01*
X123296259Y-78018023D02*
X123272450Y-78113261D01*
X123272450Y-78113261D02*
X123248640Y-78160880D01*
X123248640Y-78160880D02*
X123201021Y-78208500D01*
X123201021Y-78208500D02*
X123129593Y-78232309D01*
X123129593Y-78232309D02*
X123010545Y-78232309D01*
D14*
X83326779Y-22168866D02*
X84088684Y-22168866D01*
X83707731Y-22549819D02*
X83707731Y-21787914D01*
D10*
X121797474Y-43599452D02*
X122035569Y-43599452D01*
X121749855Y-43742309D02*
X121916521Y-43242309D01*
X121916521Y-43242309D02*
X122083188Y-43742309D01*
X122345092Y-43242309D02*
X122392711Y-43242309D01*
X122392711Y-43242309D02*
X122440330Y-43266119D01*
X122440330Y-43266119D02*
X122464140Y-43289928D01*
X122464140Y-43289928D02*
X122487949Y-43337547D01*
X122487949Y-43337547D02*
X122511759Y-43432785D01*
X122511759Y-43432785D02*
X122511759Y-43551833D01*
X122511759Y-43551833D02*
X122487949Y-43647071D01*
X122487949Y-43647071D02*
X122464140Y-43694690D01*
X122464140Y-43694690D02*
X122440330Y-43718500D01*
X122440330Y-43718500D02*
X122392711Y-43742309D01*
X122392711Y-43742309D02*
X122345092Y-43742309D01*
X122345092Y-43742309D02*
X122297473Y-43718500D01*
X122297473Y-43718500D02*
X122273664Y-43694690D01*
X122273664Y-43694690D02*
X122249854Y-43647071D01*
X122249854Y-43647071D02*
X122226045Y-43551833D01*
X122226045Y-43551833D02*
X122226045Y-43432785D01*
X122226045Y-43432785D02*
X122249854Y-43337547D01*
X122249854Y-43337547D02*
X122273664Y-43289928D01*
X122273664Y-43289928D02*
X122297473Y-43266119D01*
X122297473Y-43266119D02*
X122345092Y-43242309D01*
X121777474Y-98308500D02*
X121848902Y-98332309D01*
X121848902Y-98332309D02*
X121967950Y-98332309D01*
X121967950Y-98332309D02*
X122015569Y-98308500D01*
X122015569Y-98308500D02*
X122039378Y-98284690D01*
X122039378Y-98284690D02*
X122063188Y-98237071D01*
X122063188Y-98237071D02*
X122063188Y-98189452D01*
X122063188Y-98189452D02*
X122039378Y-98141833D01*
X122039378Y-98141833D02*
X122015569Y-98118023D01*
X122015569Y-98118023D02*
X121967950Y-98094214D01*
X121967950Y-98094214D02*
X121872712Y-98070404D01*
X121872712Y-98070404D02*
X121825093Y-98046595D01*
X121825093Y-98046595D02*
X121801283Y-98022785D01*
X121801283Y-98022785D02*
X121777474Y-97975166D01*
X121777474Y-97975166D02*
X121777474Y-97927547D01*
X121777474Y-97927547D02*
X121801283Y-97879928D01*
X121801283Y-97879928D02*
X121825093Y-97856119D01*
X121825093Y-97856119D02*
X121872712Y-97832309D01*
X121872712Y-97832309D02*
X121991759Y-97832309D01*
X121991759Y-97832309D02*
X122063188Y-97856119D01*
X122563187Y-98332309D02*
X122396521Y-98094214D01*
X122277473Y-98332309D02*
X122277473Y-97832309D01*
X122277473Y-97832309D02*
X122467949Y-97832309D01*
X122467949Y-97832309D02*
X122515568Y-97856119D01*
X122515568Y-97856119D02*
X122539378Y-97879928D01*
X122539378Y-97879928D02*
X122563187Y-97927547D01*
X122563187Y-97927547D02*
X122563187Y-97998976D01*
X122563187Y-97998976D02*
X122539378Y-98046595D01*
X122539378Y-98046595D02*
X122515568Y-98070404D01*
X122515568Y-98070404D02*
X122467949Y-98094214D01*
X122467949Y-98094214D02*
X122277473Y-98094214D01*
X123063187Y-98284690D02*
X123039378Y-98308500D01*
X123039378Y-98308500D02*
X122967949Y-98332309D01*
X122967949Y-98332309D02*
X122920330Y-98332309D01*
X122920330Y-98332309D02*
X122848902Y-98308500D01*
X122848902Y-98308500D02*
X122801283Y-98260880D01*
X122801283Y-98260880D02*
X122777473Y-98213261D01*
X122777473Y-98213261D02*
X122753664Y-98118023D01*
X122753664Y-98118023D02*
X122753664Y-98046595D01*
X122753664Y-98046595D02*
X122777473Y-97951357D01*
X122777473Y-97951357D02*
X122801283Y-97903738D01*
X122801283Y-97903738D02*
X122848902Y-97856119D01*
X122848902Y-97856119D02*
X122920330Y-97832309D01*
X122920330Y-97832309D02*
X122967949Y-97832309D01*
X122967949Y-97832309D02*
X123039378Y-97856119D01*
X123039378Y-97856119D02*
X123063187Y-97879928D01*
X123515568Y-98332309D02*
X123277473Y-98332309D01*
X123277473Y-98332309D02*
X123277473Y-97832309D01*
X123682235Y-98332309D02*
X123682235Y-97832309D01*
X123967949Y-98332309D02*
X123753664Y-98046595D01*
X123967949Y-97832309D02*
X123682235Y-98118023D01*
D15*
X15357640Y-58943821D02*
X15286212Y-59015250D01*
X15286212Y-59015250D02*
X15071926Y-59086678D01*
X15071926Y-59086678D02*
X14929069Y-59086678D01*
X14929069Y-59086678D02*
X14714783Y-59015250D01*
X14714783Y-59015250D02*
X14571926Y-58872392D01*
X14571926Y-58872392D02*
X14500497Y-58729535D01*
X14500497Y-58729535D02*
X14429069Y-58443821D01*
X14429069Y-58443821D02*
X14429069Y-58229535D01*
X14429069Y-58229535D02*
X14500497Y-57943821D01*
X14500497Y-57943821D02*
X14571926Y-57800964D01*
X14571926Y-57800964D02*
X14714783Y-57658107D01*
X14714783Y-57658107D02*
X14929069Y-57586678D01*
X14929069Y-57586678D02*
X15071926Y-57586678D01*
X15071926Y-57586678D02*
X15286212Y-57658107D01*
X15286212Y-57658107D02*
X15357640Y-57729535D01*
X16286212Y-57586678D02*
X16571926Y-57586678D01*
X16571926Y-57586678D02*
X16714783Y-57658107D01*
X16714783Y-57658107D02*
X16857640Y-57800964D01*
X16857640Y-57800964D02*
X16929069Y-58086678D01*
X16929069Y-58086678D02*
X16929069Y-58586678D01*
X16929069Y-58586678D02*
X16857640Y-58872392D01*
X16857640Y-58872392D02*
X16714783Y-59015250D01*
X16714783Y-59015250D02*
X16571926Y-59086678D01*
X16571926Y-59086678D02*
X16286212Y-59086678D01*
X16286212Y-59086678D02*
X16143355Y-59015250D01*
X16143355Y-59015250D02*
X16000497Y-58872392D01*
X16000497Y-58872392D02*
X15929069Y-58586678D01*
X15929069Y-58586678D02*
X15929069Y-58086678D01*
X15929069Y-58086678D02*
X16000497Y-57800964D01*
X16000497Y-57800964D02*
X16143355Y-57658107D01*
X16143355Y-57658107D02*
X16286212Y-57586678D01*
X17571926Y-59086678D02*
X17571926Y-57586678D01*
X17571926Y-57586678D02*
X18071926Y-58658107D01*
X18071926Y-58658107D02*
X18571926Y-57586678D01*
X18571926Y-57586678D02*
X18571926Y-59086678D01*
D10*
X120687474Y-57638500D02*
X120758902Y-57662309D01*
X120758902Y-57662309D02*
X120877950Y-57662309D01*
X120877950Y-57662309D02*
X120925569Y-57638500D01*
X120925569Y-57638500D02*
X120949378Y-57614690D01*
X120949378Y-57614690D02*
X120973188Y-57567071D01*
X120973188Y-57567071D02*
X120973188Y-57519452D01*
X120973188Y-57519452D02*
X120949378Y-57471833D01*
X120949378Y-57471833D02*
X120925569Y-57448023D01*
X120925569Y-57448023D02*
X120877950Y-57424214D01*
X120877950Y-57424214D02*
X120782712Y-57400404D01*
X120782712Y-57400404D02*
X120735093Y-57376595D01*
X120735093Y-57376595D02*
X120711283Y-57352785D01*
X120711283Y-57352785D02*
X120687474Y-57305166D01*
X120687474Y-57305166D02*
X120687474Y-57257547D01*
X120687474Y-57257547D02*
X120711283Y-57209928D01*
X120711283Y-57209928D02*
X120735093Y-57186119D01*
X120735093Y-57186119D02*
X120782712Y-57162309D01*
X120782712Y-57162309D02*
X120901759Y-57162309D01*
X120901759Y-57162309D02*
X120973188Y-57186119D01*
X121187473Y-57662309D02*
X121187473Y-57162309D01*
X121187473Y-57162309D02*
X121306521Y-57162309D01*
X121306521Y-57162309D02*
X121377949Y-57186119D01*
X121377949Y-57186119D02*
X121425568Y-57233738D01*
X121425568Y-57233738D02*
X121449378Y-57281357D01*
X121449378Y-57281357D02*
X121473187Y-57376595D01*
X121473187Y-57376595D02*
X121473187Y-57448023D01*
X121473187Y-57448023D02*
X121449378Y-57543261D01*
X121449378Y-57543261D02*
X121425568Y-57590880D01*
X121425568Y-57590880D02*
X121377949Y-57638500D01*
X121377949Y-57638500D02*
X121306521Y-57662309D01*
X121306521Y-57662309D02*
X121187473Y-57662309D01*
X121663664Y-57519452D02*
X121901759Y-57519452D01*
X121616045Y-57662309D02*
X121782711Y-57162309D01*
X121782711Y-57162309D02*
X121949378Y-57662309D01*
X105518571Y-38854809D02*
X105351905Y-38616714D01*
X105232857Y-38854809D02*
X105232857Y-38354809D01*
X105232857Y-38354809D02*
X105423333Y-38354809D01*
X105423333Y-38354809D02*
X105470952Y-38378619D01*
X105470952Y-38378619D02*
X105494762Y-38402428D01*
X105494762Y-38402428D02*
X105518571Y-38450047D01*
X105518571Y-38450047D02*
X105518571Y-38521476D01*
X105518571Y-38521476D02*
X105494762Y-38569095D01*
X105494762Y-38569095D02*
X105470952Y-38592904D01*
X105470952Y-38592904D02*
X105423333Y-38616714D01*
X105423333Y-38616714D02*
X105232857Y-38616714D01*
X105709048Y-38402428D02*
X105732857Y-38378619D01*
X105732857Y-38378619D02*
X105780476Y-38354809D01*
X105780476Y-38354809D02*
X105899524Y-38354809D01*
X105899524Y-38354809D02*
X105947143Y-38378619D01*
X105947143Y-38378619D02*
X105970952Y-38402428D01*
X105970952Y-38402428D02*
X105994762Y-38450047D01*
X105994762Y-38450047D02*
X105994762Y-38497666D01*
X105994762Y-38497666D02*
X105970952Y-38569095D01*
X105970952Y-38569095D02*
X105685238Y-38854809D01*
X105685238Y-38854809D02*
X105994762Y-38854809D01*
X106161428Y-38354809D02*
X106470952Y-38354809D01*
X106470952Y-38354809D02*
X106304285Y-38545285D01*
X106304285Y-38545285D02*
X106375714Y-38545285D01*
X106375714Y-38545285D02*
X106423333Y-38569095D01*
X106423333Y-38569095D02*
X106447142Y-38592904D01*
X106447142Y-38592904D02*
X106470952Y-38640523D01*
X106470952Y-38640523D02*
X106470952Y-38759571D01*
X106470952Y-38759571D02*
X106447142Y-38807190D01*
X106447142Y-38807190D02*
X106423333Y-38831000D01*
X106423333Y-38831000D02*
X106375714Y-38854809D01*
X106375714Y-38854809D02*
X106232857Y-38854809D01*
X106232857Y-38854809D02*
X106185238Y-38831000D01*
X106185238Y-38831000D02*
X106161428Y-38807190D01*
D14*
X75499600Y-84782819D02*
X75499600Y-85020914D01*
X75261505Y-84925676D02*
X75499600Y-85020914D01*
X75499600Y-85020914D02*
X75737695Y-84925676D01*
X75356743Y-85211390D02*
X75499600Y-85020914D01*
X75499600Y-85020914D02*
X75642457Y-85211390D01*
X100678252Y-84837819D02*
X100678252Y-85075914D01*
X100440157Y-84980676D02*
X100678252Y-85075914D01*
X100678252Y-85075914D02*
X100916347Y-84980676D01*
X100535395Y-85266390D02*
X100678252Y-85075914D01*
X100678252Y-85075914D02*
X100821109Y-85266390D01*
D10*
X90136668Y-57034809D02*
X90422382Y-57034809D01*
X90279525Y-57534809D02*
X90279525Y-57034809D01*
X90517620Y-57034809D02*
X90684286Y-57534809D01*
X90684286Y-57534809D02*
X90850953Y-57034809D01*
X90993810Y-57511000D02*
X91065238Y-57534809D01*
X91065238Y-57534809D02*
X91184286Y-57534809D01*
X91184286Y-57534809D02*
X91231905Y-57511000D01*
X91231905Y-57511000D02*
X91255714Y-57487190D01*
X91255714Y-57487190D02*
X91279524Y-57439571D01*
X91279524Y-57439571D02*
X91279524Y-57391952D01*
X91279524Y-57391952D02*
X91255714Y-57344333D01*
X91255714Y-57344333D02*
X91231905Y-57320523D01*
X91231905Y-57320523D02*
X91184286Y-57296714D01*
X91184286Y-57296714D02*
X91089048Y-57272904D01*
X91089048Y-57272904D02*
X91041429Y-57249095D01*
X91041429Y-57249095D02*
X91017619Y-57225285D01*
X91017619Y-57225285D02*
X90993810Y-57177666D01*
X90993810Y-57177666D02*
X90993810Y-57130047D01*
X90993810Y-57130047D02*
X91017619Y-57082428D01*
X91017619Y-57082428D02*
X91041429Y-57058619D01*
X91041429Y-57058619D02*
X91089048Y-57034809D01*
X91089048Y-57034809D02*
X91208095Y-57034809D01*
X91208095Y-57034809D02*
X91279524Y-57058619D01*
X91755714Y-57534809D02*
X91470000Y-57534809D01*
X91612857Y-57534809D02*
X91612857Y-57034809D01*
X91612857Y-57034809D02*
X91565238Y-57106238D01*
X91565238Y-57106238D02*
X91517619Y-57153857D01*
X91517619Y-57153857D02*
X91470000Y-57177666D01*
X34350952Y-84094809D02*
X34350952Y-83594809D01*
X34350952Y-83594809D02*
X34470000Y-83594809D01*
X34470000Y-83594809D02*
X34541428Y-83618619D01*
X34541428Y-83618619D02*
X34589047Y-83666238D01*
X34589047Y-83666238D02*
X34612857Y-83713857D01*
X34612857Y-83713857D02*
X34636666Y-83809095D01*
X34636666Y-83809095D02*
X34636666Y-83880523D01*
X34636666Y-83880523D02*
X34612857Y-83975761D01*
X34612857Y-83975761D02*
X34589047Y-84023380D01*
X34589047Y-84023380D02*
X34541428Y-84071000D01*
X34541428Y-84071000D02*
X34470000Y-84094809D01*
X34470000Y-84094809D02*
X34350952Y-84094809D01*
X34827143Y-83642428D02*
X34850952Y-83618619D01*
X34850952Y-83618619D02*
X34898571Y-83594809D01*
X34898571Y-83594809D02*
X35017619Y-83594809D01*
X35017619Y-83594809D02*
X35065238Y-83618619D01*
X35065238Y-83618619D02*
X35089047Y-83642428D01*
X35089047Y-83642428D02*
X35112857Y-83690047D01*
X35112857Y-83690047D02*
X35112857Y-83737666D01*
X35112857Y-83737666D02*
X35089047Y-83809095D01*
X35089047Y-83809095D02*
X34803333Y-84094809D01*
X34803333Y-84094809D02*
X35112857Y-84094809D01*
X50714469Y-107844314D02*
X50547803Y-107606219D01*
X50428755Y-107844314D02*
X50428755Y-107344314D01*
X50428755Y-107344314D02*
X50619231Y-107344314D01*
X50619231Y-107344314D02*
X50666850Y-107368124D01*
X50666850Y-107368124D02*
X50690660Y-107391933D01*
X50690660Y-107391933D02*
X50714469Y-107439552D01*
X50714469Y-107439552D02*
X50714469Y-107510981D01*
X50714469Y-107510981D02*
X50690660Y-107558600D01*
X50690660Y-107558600D02*
X50666850Y-107582409D01*
X50666850Y-107582409D02*
X50619231Y-107606219D01*
X50619231Y-107606219D02*
X50428755Y-107606219D01*
X51190660Y-107844314D02*
X50904946Y-107844314D01*
X51047803Y-107844314D02*
X51047803Y-107344314D01*
X51047803Y-107344314D02*
X51000184Y-107415743D01*
X51000184Y-107415743D02*
X50952565Y-107463362D01*
X50952565Y-107463362D02*
X50904946Y-107487171D01*
X51500183Y-107344314D02*
X51547802Y-107344314D01*
X51547802Y-107344314D02*
X51595421Y-107368124D01*
X51595421Y-107368124D02*
X51619231Y-107391933D01*
X51619231Y-107391933D02*
X51643040Y-107439552D01*
X51643040Y-107439552D02*
X51666850Y-107534790D01*
X51666850Y-107534790D02*
X51666850Y-107653838D01*
X51666850Y-107653838D02*
X51643040Y-107749076D01*
X51643040Y-107749076D02*
X51619231Y-107796695D01*
X51619231Y-107796695D02*
X51595421Y-107820505D01*
X51595421Y-107820505D02*
X51547802Y-107844314D01*
X51547802Y-107844314D02*
X51500183Y-107844314D01*
X51500183Y-107844314D02*
X51452564Y-107820505D01*
X51452564Y-107820505D02*
X51428755Y-107796695D01*
X51428755Y-107796695D02*
X51404945Y-107749076D01*
X51404945Y-107749076D02*
X51381136Y-107653838D01*
X51381136Y-107653838D02*
X51381136Y-107534790D01*
X51381136Y-107534790D02*
X51404945Y-107439552D01*
X51404945Y-107439552D02*
X51428755Y-107391933D01*
X51428755Y-107391933D02*
X51452564Y-107368124D01*
X51452564Y-107368124D02*
X51500183Y-107344314D01*
X45252564Y-92344314D02*
X45085898Y-92106219D01*
X44966850Y-92344314D02*
X44966850Y-91844314D01*
X44966850Y-91844314D02*
X45157326Y-91844314D01*
X45157326Y-91844314D02*
X45204945Y-91868124D01*
X45204945Y-91868124D02*
X45228755Y-91891933D01*
X45228755Y-91891933D02*
X45252564Y-91939552D01*
X45252564Y-91939552D02*
X45252564Y-92010981D01*
X45252564Y-92010981D02*
X45228755Y-92058600D01*
X45228755Y-92058600D02*
X45204945Y-92082409D01*
X45204945Y-92082409D02*
X45157326Y-92106219D01*
X45157326Y-92106219D02*
X44966850Y-92106219D01*
X45490660Y-92344314D02*
X45585898Y-92344314D01*
X45585898Y-92344314D02*
X45633517Y-92320505D01*
X45633517Y-92320505D02*
X45657326Y-92296695D01*
X45657326Y-92296695D02*
X45704945Y-92225266D01*
X45704945Y-92225266D02*
X45728755Y-92130028D01*
X45728755Y-92130028D02*
X45728755Y-91939552D01*
X45728755Y-91939552D02*
X45704945Y-91891933D01*
X45704945Y-91891933D02*
X45681136Y-91868124D01*
X45681136Y-91868124D02*
X45633517Y-91844314D01*
X45633517Y-91844314D02*
X45538279Y-91844314D01*
X45538279Y-91844314D02*
X45490660Y-91868124D01*
X45490660Y-91868124D02*
X45466850Y-91891933D01*
X45466850Y-91891933D02*
X45443041Y-91939552D01*
X45443041Y-91939552D02*
X45443041Y-92058600D01*
X45443041Y-92058600D02*
X45466850Y-92106219D01*
X45466850Y-92106219D02*
X45490660Y-92130028D01*
X45490660Y-92130028D02*
X45538279Y-92153838D01*
X45538279Y-92153838D02*
X45633517Y-92153838D01*
X45633517Y-92153838D02*
X45681136Y-92130028D01*
X45681136Y-92130028D02*
X45704945Y-92106219D01*
X45704945Y-92106219D02*
X45728755Y-92058600D01*
X46952564Y-75344314D02*
X46785898Y-75106219D01*
X46666850Y-75344314D02*
X46666850Y-74844314D01*
X46666850Y-74844314D02*
X46857326Y-74844314D01*
X46857326Y-74844314D02*
X46904945Y-74868124D01*
X46904945Y-74868124D02*
X46928755Y-74891933D01*
X46928755Y-74891933D02*
X46952564Y-74939552D01*
X46952564Y-74939552D02*
X46952564Y-75010981D01*
X46952564Y-75010981D02*
X46928755Y-75058600D01*
X46928755Y-75058600D02*
X46904945Y-75082409D01*
X46904945Y-75082409D02*
X46857326Y-75106219D01*
X46857326Y-75106219D02*
X46666850Y-75106219D01*
X47404945Y-74844314D02*
X47166850Y-74844314D01*
X47166850Y-74844314D02*
X47143041Y-75082409D01*
X47143041Y-75082409D02*
X47166850Y-75058600D01*
X47166850Y-75058600D02*
X47214469Y-75034790D01*
X47214469Y-75034790D02*
X47333517Y-75034790D01*
X47333517Y-75034790D02*
X47381136Y-75058600D01*
X47381136Y-75058600D02*
X47404945Y-75082409D01*
X47404945Y-75082409D02*
X47428755Y-75130028D01*
X47428755Y-75130028D02*
X47428755Y-75249076D01*
X47428755Y-75249076D02*
X47404945Y-75296695D01*
X47404945Y-75296695D02*
X47381136Y-75320505D01*
X47381136Y-75320505D02*
X47333517Y-75344314D01*
X47333517Y-75344314D02*
X47214469Y-75344314D01*
X47214469Y-75344314D02*
X47166850Y-75320505D01*
X47166850Y-75320505D02*
X47143041Y-75296695D01*
X95636666Y-45147190D02*
X95612857Y-45171000D01*
X95612857Y-45171000D02*
X95541428Y-45194809D01*
X95541428Y-45194809D02*
X95493809Y-45194809D01*
X95493809Y-45194809D02*
X95422381Y-45171000D01*
X95422381Y-45171000D02*
X95374762Y-45123380D01*
X95374762Y-45123380D02*
X95350952Y-45075761D01*
X95350952Y-45075761D02*
X95327143Y-44980523D01*
X95327143Y-44980523D02*
X95327143Y-44909095D01*
X95327143Y-44909095D02*
X95350952Y-44813857D01*
X95350952Y-44813857D02*
X95374762Y-44766238D01*
X95374762Y-44766238D02*
X95422381Y-44718619D01*
X95422381Y-44718619D02*
X95493809Y-44694809D01*
X95493809Y-44694809D02*
X95541428Y-44694809D01*
X95541428Y-44694809D02*
X95612857Y-44718619D01*
X95612857Y-44718619D02*
X95636666Y-44742428D01*
X95827143Y-44742428D02*
X95850952Y-44718619D01*
X95850952Y-44718619D02*
X95898571Y-44694809D01*
X95898571Y-44694809D02*
X96017619Y-44694809D01*
X96017619Y-44694809D02*
X96065238Y-44718619D01*
X96065238Y-44718619D02*
X96089047Y-44742428D01*
X96089047Y-44742428D02*
X96112857Y-44790047D01*
X96112857Y-44790047D02*
X96112857Y-44837666D01*
X96112857Y-44837666D02*
X96089047Y-44909095D01*
X96089047Y-44909095D02*
X95803333Y-45194809D01*
X95803333Y-45194809D02*
X96112857Y-45194809D01*
X111511905Y-79808809D02*
X111345239Y-79570714D01*
X111226191Y-79808809D02*
X111226191Y-79308809D01*
X111226191Y-79308809D02*
X111416667Y-79308809D01*
X111416667Y-79308809D02*
X111464286Y-79332619D01*
X111464286Y-79332619D02*
X111488096Y-79356428D01*
X111488096Y-79356428D02*
X111511905Y-79404047D01*
X111511905Y-79404047D02*
X111511905Y-79475476D01*
X111511905Y-79475476D02*
X111488096Y-79523095D01*
X111488096Y-79523095D02*
X111464286Y-79546904D01*
X111464286Y-79546904D02*
X111416667Y-79570714D01*
X111416667Y-79570714D02*
X111226191Y-79570714D01*
X111988096Y-79808809D02*
X111702382Y-79808809D01*
X111845239Y-79808809D02*
X111845239Y-79308809D01*
X111845239Y-79308809D02*
X111797620Y-79380238D01*
X111797620Y-79380238D02*
X111750001Y-79427857D01*
X111750001Y-79427857D02*
X111702382Y-79451666D01*
X112178572Y-79356428D02*
X112202381Y-79332619D01*
X112202381Y-79332619D02*
X112250000Y-79308809D01*
X112250000Y-79308809D02*
X112369048Y-79308809D01*
X112369048Y-79308809D02*
X112416667Y-79332619D01*
X112416667Y-79332619D02*
X112440476Y-79356428D01*
X112440476Y-79356428D02*
X112464286Y-79404047D01*
X112464286Y-79404047D02*
X112464286Y-79451666D01*
X112464286Y-79451666D02*
X112440476Y-79523095D01*
X112440476Y-79523095D02*
X112154762Y-79808809D01*
X112154762Y-79808809D02*
X112464286Y-79808809D01*
X107416666Y-48777190D02*
X107392857Y-48801000D01*
X107392857Y-48801000D02*
X107321428Y-48824809D01*
X107321428Y-48824809D02*
X107273809Y-48824809D01*
X107273809Y-48824809D02*
X107202381Y-48801000D01*
X107202381Y-48801000D02*
X107154762Y-48753380D01*
X107154762Y-48753380D02*
X107130952Y-48705761D01*
X107130952Y-48705761D02*
X107107143Y-48610523D01*
X107107143Y-48610523D02*
X107107143Y-48539095D01*
X107107143Y-48539095D02*
X107130952Y-48443857D01*
X107130952Y-48443857D02*
X107154762Y-48396238D01*
X107154762Y-48396238D02*
X107202381Y-48348619D01*
X107202381Y-48348619D02*
X107273809Y-48324809D01*
X107273809Y-48324809D02*
X107321428Y-48324809D01*
X107321428Y-48324809D02*
X107392857Y-48348619D01*
X107392857Y-48348619D02*
X107416666Y-48372428D01*
X107845238Y-48491476D02*
X107845238Y-48824809D01*
X107726190Y-48301000D02*
X107607143Y-48658142D01*
X107607143Y-48658142D02*
X107916666Y-48658142D01*
X46454946Y-54444314D02*
X46740660Y-54444314D01*
X46597803Y-54944314D02*
X46597803Y-54444314D01*
X46883517Y-54491933D02*
X46907326Y-54468124D01*
X46907326Y-54468124D02*
X46954945Y-54444314D01*
X46954945Y-54444314D02*
X47073993Y-54444314D01*
X47073993Y-54444314D02*
X47121612Y-54468124D01*
X47121612Y-54468124D02*
X47145421Y-54491933D01*
X47145421Y-54491933D02*
X47169231Y-54539552D01*
X47169231Y-54539552D02*
X47169231Y-54587171D01*
X47169231Y-54587171D02*
X47145421Y-54658600D01*
X47145421Y-54658600D02*
X46859707Y-54944314D01*
X46859707Y-54944314D02*
X47169231Y-54944314D01*
X102578571Y-100392809D02*
X102411905Y-100154714D01*
X102292857Y-100392809D02*
X102292857Y-99892809D01*
X102292857Y-99892809D02*
X102483333Y-99892809D01*
X102483333Y-99892809D02*
X102530952Y-99916619D01*
X102530952Y-99916619D02*
X102554762Y-99940428D01*
X102554762Y-99940428D02*
X102578571Y-99988047D01*
X102578571Y-99988047D02*
X102578571Y-100059476D01*
X102578571Y-100059476D02*
X102554762Y-100107095D01*
X102554762Y-100107095D02*
X102530952Y-100130904D01*
X102530952Y-100130904D02*
X102483333Y-100154714D01*
X102483333Y-100154714D02*
X102292857Y-100154714D01*
X103054762Y-100392809D02*
X102769048Y-100392809D01*
X102911905Y-100392809D02*
X102911905Y-99892809D01*
X102911905Y-99892809D02*
X102864286Y-99964238D01*
X102864286Y-99964238D02*
X102816667Y-100011857D01*
X102816667Y-100011857D02*
X102769048Y-100035666D01*
X103292857Y-100392809D02*
X103388095Y-100392809D01*
X103388095Y-100392809D02*
X103435714Y-100369000D01*
X103435714Y-100369000D02*
X103459523Y-100345190D01*
X103459523Y-100345190D02*
X103507142Y-100273761D01*
X103507142Y-100273761D02*
X103530952Y-100178523D01*
X103530952Y-100178523D02*
X103530952Y-99988047D01*
X103530952Y-99988047D02*
X103507142Y-99940428D01*
X103507142Y-99940428D02*
X103483333Y-99916619D01*
X103483333Y-99916619D02*
X103435714Y-99892809D01*
X103435714Y-99892809D02*
X103340476Y-99892809D01*
X103340476Y-99892809D02*
X103292857Y-99916619D01*
X103292857Y-99916619D02*
X103269047Y-99940428D01*
X103269047Y-99940428D02*
X103245238Y-99988047D01*
X103245238Y-99988047D02*
X103245238Y-100107095D01*
X103245238Y-100107095D02*
X103269047Y-100154714D01*
X103269047Y-100154714D02*
X103292857Y-100178523D01*
X103292857Y-100178523D02*
X103340476Y-100202333D01*
X103340476Y-100202333D02*
X103435714Y-100202333D01*
X103435714Y-100202333D02*
X103483333Y-100178523D01*
X103483333Y-100178523D02*
X103507142Y-100154714D01*
X103507142Y-100154714D02*
X103530952Y-100107095D01*
X108533333Y-39224809D02*
X108533333Y-38724809D01*
X108533333Y-38724809D02*
X108723809Y-38724809D01*
X108723809Y-38724809D02*
X108771428Y-38748619D01*
X108771428Y-38748619D02*
X108795238Y-38772428D01*
X108795238Y-38772428D02*
X108819047Y-38820047D01*
X108819047Y-38820047D02*
X108819047Y-38891476D01*
X108819047Y-38891476D02*
X108795238Y-38939095D01*
X108795238Y-38939095D02*
X108771428Y-38962904D01*
X108771428Y-38962904D02*
X108723809Y-38986714D01*
X108723809Y-38986714D02*
X108533333Y-38986714D01*
X108985714Y-38724809D02*
X109104762Y-39224809D01*
X109104762Y-39224809D02*
X109200000Y-38867666D01*
X109200000Y-38867666D02*
X109295238Y-39224809D01*
X109295238Y-39224809D02*
X109414286Y-38724809D01*
X109890476Y-39224809D02*
X109723810Y-38986714D01*
X109604762Y-39224809D02*
X109604762Y-38724809D01*
X109604762Y-38724809D02*
X109795238Y-38724809D01*
X109795238Y-38724809D02*
X109842857Y-38748619D01*
X109842857Y-38748619D02*
X109866667Y-38772428D01*
X109866667Y-38772428D02*
X109890476Y-38820047D01*
X109890476Y-38820047D02*
X109890476Y-38891476D01*
X109890476Y-38891476D02*
X109866667Y-38939095D01*
X109866667Y-38939095D02*
X109842857Y-38962904D01*
X109842857Y-38962904D02*
X109795238Y-38986714D01*
X109795238Y-38986714D02*
X109604762Y-38986714D01*
X86160569Y-80250260D02*
X85993903Y-80012165D01*
X85874855Y-80250260D02*
X85874855Y-79750260D01*
X85874855Y-79750260D02*
X86065331Y-79750260D01*
X86065331Y-79750260D02*
X86112950Y-79774070D01*
X86112950Y-79774070D02*
X86136760Y-79797879D01*
X86136760Y-79797879D02*
X86160569Y-79845498D01*
X86160569Y-79845498D02*
X86160569Y-79916927D01*
X86160569Y-79916927D02*
X86136760Y-79964546D01*
X86136760Y-79964546D02*
X86112950Y-79988355D01*
X86112950Y-79988355D02*
X86065331Y-80012165D01*
X86065331Y-80012165D02*
X85874855Y-80012165D01*
X86636760Y-80250260D02*
X86351046Y-80250260D01*
X86493903Y-80250260D02*
X86493903Y-79750260D01*
X86493903Y-79750260D02*
X86446284Y-79821689D01*
X86446284Y-79821689D02*
X86398665Y-79869308D01*
X86398665Y-79869308D02*
X86351046Y-79893117D01*
X87065331Y-79916927D02*
X87065331Y-80250260D01*
X86946283Y-79726451D02*
X86827236Y-80083593D01*
X86827236Y-80083593D02*
X87136759Y-80083593D01*
X76807055Y-80063476D02*
X76640389Y-79825381D01*
X76521341Y-80063476D02*
X76521341Y-79563476D01*
X76521341Y-79563476D02*
X76711817Y-79563476D01*
X76711817Y-79563476D02*
X76759436Y-79587286D01*
X76759436Y-79587286D02*
X76783246Y-79611095D01*
X76783246Y-79611095D02*
X76807055Y-79658714D01*
X76807055Y-79658714D02*
X76807055Y-79730143D01*
X76807055Y-79730143D02*
X76783246Y-79777762D01*
X76783246Y-79777762D02*
X76759436Y-79801571D01*
X76759436Y-79801571D02*
X76711817Y-79825381D01*
X76711817Y-79825381D02*
X76521341Y-79825381D01*
X76997532Y-79611095D02*
X77021341Y-79587286D01*
X77021341Y-79587286D02*
X77068960Y-79563476D01*
X77068960Y-79563476D02*
X77188008Y-79563476D01*
X77188008Y-79563476D02*
X77235627Y-79587286D01*
X77235627Y-79587286D02*
X77259436Y-79611095D01*
X77259436Y-79611095D02*
X77283246Y-79658714D01*
X77283246Y-79658714D02*
X77283246Y-79706333D01*
X77283246Y-79706333D02*
X77259436Y-79777762D01*
X77259436Y-79777762D02*
X76973722Y-80063476D01*
X76973722Y-80063476D02*
X77283246Y-80063476D01*
X77473722Y-79611095D02*
X77497531Y-79587286D01*
X77497531Y-79587286D02*
X77545150Y-79563476D01*
X77545150Y-79563476D02*
X77664198Y-79563476D01*
X77664198Y-79563476D02*
X77711817Y-79587286D01*
X77711817Y-79587286D02*
X77735626Y-79611095D01*
X77735626Y-79611095D02*
X77759436Y-79658714D01*
X77759436Y-79658714D02*
X77759436Y-79706333D01*
X77759436Y-79706333D02*
X77735626Y-79777762D01*
X77735626Y-79777762D02*
X77449912Y-80063476D01*
X77449912Y-80063476D02*
X77759436Y-80063476D01*
D14*
X46390717Y-68719504D02*
X46628812Y-68719504D01*
X46533574Y-68957599D02*
X46628812Y-68719504D01*
X46628812Y-68719504D02*
X46533574Y-68481409D01*
X46819288Y-68862361D02*
X46628812Y-68719504D01*
X46628812Y-68719504D02*
X46819288Y-68576647D01*
D10*
X79630766Y-55924809D02*
X79464100Y-55686714D01*
X79345052Y-55924809D02*
X79345052Y-55424809D01*
X79345052Y-55424809D02*
X79535528Y-55424809D01*
X79535528Y-55424809D02*
X79583147Y-55448619D01*
X79583147Y-55448619D02*
X79606957Y-55472428D01*
X79606957Y-55472428D02*
X79630766Y-55520047D01*
X79630766Y-55520047D02*
X79630766Y-55591476D01*
X79630766Y-55591476D02*
X79606957Y-55639095D01*
X79606957Y-55639095D02*
X79583147Y-55662904D01*
X79583147Y-55662904D02*
X79535528Y-55686714D01*
X79535528Y-55686714D02*
X79345052Y-55686714D01*
X80106957Y-55924809D02*
X79821243Y-55924809D01*
X79964100Y-55924809D02*
X79964100Y-55424809D01*
X79964100Y-55424809D02*
X79916481Y-55496238D01*
X79916481Y-55496238D02*
X79868862Y-55543857D01*
X79868862Y-55543857D02*
X79821243Y-55567666D01*
X109916666Y-83137190D02*
X109892857Y-83161000D01*
X109892857Y-83161000D02*
X109821428Y-83184809D01*
X109821428Y-83184809D02*
X109773809Y-83184809D01*
X109773809Y-83184809D02*
X109702381Y-83161000D01*
X109702381Y-83161000D02*
X109654762Y-83113380D01*
X109654762Y-83113380D02*
X109630952Y-83065761D01*
X109630952Y-83065761D02*
X109607143Y-82970523D01*
X109607143Y-82970523D02*
X109607143Y-82899095D01*
X109607143Y-82899095D02*
X109630952Y-82803857D01*
X109630952Y-82803857D02*
X109654762Y-82756238D01*
X109654762Y-82756238D02*
X109702381Y-82708619D01*
X109702381Y-82708619D02*
X109773809Y-82684809D01*
X109773809Y-82684809D02*
X109821428Y-82684809D01*
X109821428Y-82684809D02*
X109892857Y-82708619D01*
X109892857Y-82708619D02*
X109916666Y-82732428D01*
X110345238Y-82684809D02*
X110250000Y-82684809D01*
X110250000Y-82684809D02*
X110202381Y-82708619D01*
X110202381Y-82708619D02*
X110178571Y-82732428D01*
X110178571Y-82732428D02*
X110130952Y-82803857D01*
X110130952Y-82803857D02*
X110107143Y-82899095D01*
X110107143Y-82899095D02*
X110107143Y-83089571D01*
X110107143Y-83089571D02*
X110130952Y-83137190D01*
X110130952Y-83137190D02*
X110154762Y-83161000D01*
X110154762Y-83161000D02*
X110202381Y-83184809D01*
X110202381Y-83184809D02*
X110297619Y-83184809D01*
X110297619Y-83184809D02*
X110345238Y-83161000D01*
X110345238Y-83161000D02*
X110369047Y-83137190D01*
X110369047Y-83137190D02*
X110392857Y-83089571D01*
X110392857Y-83089571D02*
X110392857Y-82970523D01*
X110392857Y-82970523D02*
X110369047Y-82922904D01*
X110369047Y-82922904D02*
X110345238Y-82899095D01*
X110345238Y-82899095D02*
X110297619Y-82875285D01*
X110297619Y-82875285D02*
X110202381Y-82875285D01*
X110202381Y-82875285D02*
X110154762Y-82899095D01*
X110154762Y-82899095D02*
X110130952Y-82922904D01*
X110130952Y-82922904D02*
X110107143Y-82970523D01*
X46239048Y-86524809D02*
X46524762Y-86524809D01*
X46381905Y-87024809D02*
X46381905Y-86524809D01*
X46643809Y-86524809D02*
X46953333Y-86524809D01*
X46953333Y-86524809D02*
X46786666Y-86715285D01*
X46786666Y-86715285D02*
X46858095Y-86715285D01*
X46858095Y-86715285D02*
X46905714Y-86739095D01*
X46905714Y-86739095D02*
X46929523Y-86762904D01*
X46929523Y-86762904D02*
X46953333Y-86810523D01*
X46953333Y-86810523D02*
X46953333Y-86929571D01*
X46953333Y-86929571D02*
X46929523Y-86977190D01*
X46929523Y-86977190D02*
X46905714Y-87001000D01*
X46905714Y-87001000D02*
X46858095Y-87024809D01*
X46858095Y-87024809D02*
X46715238Y-87024809D01*
X46715238Y-87024809D02*
X46667619Y-87001000D01*
X46667619Y-87001000D02*
X46643809Y-86977190D01*
X103752666Y-57581209D02*
X103586000Y-57343114D01*
X103466952Y-57581209D02*
X103466952Y-57081209D01*
X103466952Y-57081209D02*
X103657428Y-57081209D01*
X103657428Y-57081209D02*
X103705047Y-57105019D01*
X103705047Y-57105019D02*
X103728857Y-57128828D01*
X103728857Y-57128828D02*
X103752666Y-57176447D01*
X103752666Y-57176447D02*
X103752666Y-57247876D01*
X103752666Y-57247876D02*
X103728857Y-57295495D01*
X103728857Y-57295495D02*
X103705047Y-57319304D01*
X103705047Y-57319304D02*
X103657428Y-57343114D01*
X103657428Y-57343114D02*
X103466952Y-57343114D01*
X104181238Y-57247876D02*
X104181238Y-57581209D01*
X104062190Y-57057400D02*
X103943143Y-57414542D01*
X103943143Y-57414542D02*
X104252666Y-57414542D01*
X36120647Y-25098409D02*
X36120647Y-24598409D01*
X36120647Y-24598409D02*
X36287314Y-24955552D01*
X36287314Y-24955552D02*
X36453980Y-24598409D01*
X36453980Y-24598409D02*
X36453980Y-25098409D01*
X36787314Y-24598409D02*
X36882552Y-24598409D01*
X36882552Y-24598409D02*
X36930171Y-24622219D01*
X36930171Y-24622219D02*
X36977790Y-24669838D01*
X36977790Y-24669838D02*
X37001600Y-24765076D01*
X37001600Y-24765076D02*
X37001600Y-24931742D01*
X37001600Y-24931742D02*
X36977790Y-25026980D01*
X36977790Y-25026980D02*
X36930171Y-25074600D01*
X36930171Y-25074600D02*
X36882552Y-25098409D01*
X36882552Y-25098409D02*
X36787314Y-25098409D01*
X36787314Y-25098409D02*
X36739695Y-25074600D01*
X36739695Y-25074600D02*
X36692076Y-25026980D01*
X36692076Y-25026980D02*
X36668267Y-24931742D01*
X36668267Y-24931742D02*
X36668267Y-24765076D01*
X36668267Y-24765076D02*
X36692076Y-24669838D01*
X36692076Y-24669838D02*
X36739695Y-24622219D01*
X36739695Y-24622219D02*
X36787314Y-24598409D01*
X37144458Y-24598409D02*
X37311124Y-25098409D01*
X37311124Y-25098409D02*
X37477791Y-24598409D01*
X37906362Y-25098409D02*
X37620648Y-25098409D01*
X37763505Y-25098409D02*
X37763505Y-24598409D01*
X37763505Y-24598409D02*
X37715886Y-24669838D01*
X37715886Y-24669838D02*
X37668267Y-24717457D01*
X37668267Y-24717457D02*
X37620648Y-24741266D01*
X86966666Y-35767190D02*
X86942857Y-35791000D01*
X86942857Y-35791000D02*
X86871428Y-35814809D01*
X86871428Y-35814809D02*
X86823809Y-35814809D01*
X86823809Y-35814809D02*
X86752381Y-35791000D01*
X86752381Y-35791000D02*
X86704762Y-35743380D01*
X86704762Y-35743380D02*
X86680952Y-35695761D01*
X86680952Y-35695761D02*
X86657143Y-35600523D01*
X86657143Y-35600523D02*
X86657143Y-35529095D01*
X86657143Y-35529095D02*
X86680952Y-35433857D01*
X86680952Y-35433857D02*
X86704762Y-35386238D01*
X86704762Y-35386238D02*
X86752381Y-35338619D01*
X86752381Y-35338619D02*
X86823809Y-35314809D01*
X86823809Y-35314809D02*
X86871428Y-35314809D01*
X86871428Y-35314809D02*
X86942857Y-35338619D01*
X86942857Y-35338619D02*
X86966666Y-35362428D01*
X87442857Y-35814809D02*
X87157143Y-35814809D01*
X87300000Y-35814809D02*
X87300000Y-35314809D01*
X87300000Y-35314809D02*
X87252381Y-35386238D01*
X87252381Y-35386238D02*
X87204762Y-35433857D01*
X87204762Y-35433857D02*
X87157143Y-35457666D01*
X110078571Y-100492809D02*
X109911905Y-100254714D01*
X109792857Y-100492809D02*
X109792857Y-99992809D01*
X109792857Y-99992809D02*
X109983333Y-99992809D01*
X109983333Y-99992809D02*
X110030952Y-100016619D01*
X110030952Y-100016619D02*
X110054762Y-100040428D01*
X110054762Y-100040428D02*
X110078571Y-100088047D01*
X110078571Y-100088047D02*
X110078571Y-100159476D01*
X110078571Y-100159476D02*
X110054762Y-100207095D01*
X110054762Y-100207095D02*
X110030952Y-100230904D01*
X110030952Y-100230904D02*
X109983333Y-100254714D01*
X109983333Y-100254714D02*
X109792857Y-100254714D01*
X110554762Y-100492809D02*
X110269048Y-100492809D01*
X110411905Y-100492809D02*
X110411905Y-99992809D01*
X110411905Y-99992809D02*
X110364286Y-100064238D01*
X110364286Y-100064238D02*
X110316667Y-100111857D01*
X110316667Y-100111857D02*
X110269048Y-100135666D01*
X111030952Y-100492809D02*
X110745238Y-100492809D01*
X110888095Y-100492809D02*
X110888095Y-99992809D01*
X110888095Y-99992809D02*
X110840476Y-100064238D01*
X110840476Y-100064238D02*
X110792857Y-100111857D01*
X110792857Y-100111857D02*
X110745238Y-100135666D01*
X102650010Y-48466133D02*
X102650010Y-48704228D01*
X102650010Y-48704228D02*
X102150010Y-48704228D01*
X102197629Y-48323275D02*
X102173820Y-48299466D01*
X102173820Y-48299466D02*
X102150010Y-48251847D01*
X102150010Y-48251847D02*
X102150010Y-48132799D01*
X102150010Y-48132799D02*
X102173820Y-48085180D01*
X102173820Y-48085180D02*
X102197629Y-48061371D01*
X102197629Y-48061371D02*
X102245248Y-48037561D01*
X102245248Y-48037561D02*
X102292867Y-48037561D01*
X102292867Y-48037561D02*
X102364296Y-48061371D01*
X102364296Y-48061371D02*
X102650010Y-48347085D01*
X102650010Y-48347085D02*
X102650010Y-48037561D01*
X112600010Y-48353333D02*
X112600010Y-48591428D01*
X112600010Y-48591428D02*
X112100010Y-48591428D01*
X112600010Y-47924761D02*
X112600010Y-48210475D01*
X112600010Y-48067618D02*
X112100010Y-48067618D01*
X112100010Y-48067618D02*
X112171439Y-48115237D01*
X112171439Y-48115237D02*
X112219058Y-48162856D01*
X112219058Y-48162856D02*
X112242867Y-48210475D01*
X107611905Y-80008809D02*
X107445239Y-79770714D01*
X107326191Y-80008809D02*
X107326191Y-79508809D01*
X107326191Y-79508809D02*
X107516667Y-79508809D01*
X107516667Y-79508809D02*
X107564286Y-79532619D01*
X107564286Y-79532619D02*
X107588096Y-79556428D01*
X107588096Y-79556428D02*
X107611905Y-79604047D01*
X107611905Y-79604047D02*
X107611905Y-79675476D01*
X107611905Y-79675476D02*
X107588096Y-79723095D01*
X107588096Y-79723095D02*
X107564286Y-79746904D01*
X107564286Y-79746904D02*
X107516667Y-79770714D01*
X107516667Y-79770714D02*
X107326191Y-79770714D01*
X108088096Y-80008809D02*
X107802382Y-80008809D01*
X107945239Y-80008809D02*
X107945239Y-79508809D01*
X107945239Y-79508809D02*
X107897620Y-79580238D01*
X107897620Y-79580238D02*
X107850001Y-79627857D01*
X107850001Y-79627857D02*
X107802382Y-79651666D01*
X108516667Y-79508809D02*
X108421429Y-79508809D01*
X108421429Y-79508809D02*
X108373810Y-79532619D01*
X108373810Y-79532619D02*
X108350000Y-79556428D01*
X108350000Y-79556428D02*
X108302381Y-79627857D01*
X108302381Y-79627857D02*
X108278572Y-79723095D01*
X108278572Y-79723095D02*
X108278572Y-79913571D01*
X108278572Y-79913571D02*
X108302381Y-79961190D01*
X108302381Y-79961190D02*
X108326191Y-79985000D01*
X108326191Y-79985000D02*
X108373810Y-80008809D01*
X108373810Y-80008809D02*
X108469048Y-80008809D01*
X108469048Y-80008809D02*
X108516667Y-79985000D01*
X108516667Y-79985000D02*
X108540476Y-79961190D01*
X108540476Y-79961190D02*
X108564286Y-79913571D01*
X108564286Y-79913571D02*
X108564286Y-79794523D01*
X108564286Y-79794523D02*
X108540476Y-79746904D01*
X108540476Y-79746904D02*
X108516667Y-79723095D01*
X108516667Y-79723095D02*
X108469048Y-79699285D01*
X108469048Y-79699285D02*
X108373810Y-79699285D01*
X108373810Y-79699285D02*
X108326191Y-79723095D01*
X108326191Y-79723095D02*
X108302381Y-79746904D01*
X108302381Y-79746904D02*
X108278572Y-79794523D01*
X98578571Y-80140809D02*
X98411905Y-79902714D01*
X98292857Y-80140809D02*
X98292857Y-79640809D01*
X98292857Y-79640809D02*
X98483333Y-79640809D01*
X98483333Y-79640809D02*
X98530952Y-79664619D01*
X98530952Y-79664619D02*
X98554762Y-79688428D01*
X98554762Y-79688428D02*
X98578571Y-79736047D01*
X98578571Y-79736047D02*
X98578571Y-79807476D01*
X98578571Y-79807476D02*
X98554762Y-79855095D01*
X98554762Y-79855095D02*
X98530952Y-79878904D01*
X98530952Y-79878904D02*
X98483333Y-79902714D01*
X98483333Y-79902714D02*
X98292857Y-79902714D01*
X98769048Y-79688428D02*
X98792857Y-79664619D01*
X98792857Y-79664619D02*
X98840476Y-79640809D01*
X98840476Y-79640809D02*
X98959524Y-79640809D01*
X98959524Y-79640809D02*
X99007143Y-79664619D01*
X99007143Y-79664619D02*
X99030952Y-79688428D01*
X99030952Y-79688428D02*
X99054762Y-79736047D01*
X99054762Y-79736047D02*
X99054762Y-79783666D01*
X99054762Y-79783666D02*
X99030952Y-79855095D01*
X99030952Y-79855095D02*
X98745238Y-80140809D01*
X98745238Y-80140809D02*
X99054762Y-80140809D01*
X99483333Y-79807476D02*
X99483333Y-80140809D01*
X99364285Y-79617000D02*
X99245238Y-79974142D01*
X99245238Y-79974142D02*
X99554761Y-79974142D01*
D16*
X23101534Y-31223804D02*
X22934867Y-31223804D01*
X22934867Y-31485709D02*
X22934867Y-30985709D01*
X22934867Y-30985709D02*
X23172962Y-30985709D01*
X23625343Y-31485709D02*
X23339629Y-31485709D01*
X23482486Y-31485709D02*
X23482486Y-30985709D01*
X23482486Y-30985709D02*
X23434867Y-31057138D01*
X23434867Y-31057138D02*
X23387248Y-31104757D01*
X23387248Y-31104757D02*
X23339629Y-31128566D01*
D10*
X72878571Y-80208809D02*
X72711905Y-79970714D01*
X72592857Y-80208809D02*
X72592857Y-79708809D01*
X72592857Y-79708809D02*
X72783333Y-79708809D01*
X72783333Y-79708809D02*
X72830952Y-79732619D01*
X72830952Y-79732619D02*
X72854762Y-79756428D01*
X72854762Y-79756428D02*
X72878571Y-79804047D01*
X72878571Y-79804047D02*
X72878571Y-79875476D01*
X72878571Y-79875476D02*
X72854762Y-79923095D01*
X72854762Y-79923095D02*
X72830952Y-79946904D01*
X72830952Y-79946904D02*
X72783333Y-79970714D01*
X72783333Y-79970714D02*
X72592857Y-79970714D01*
X73069048Y-79756428D02*
X73092857Y-79732619D01*
X73092857Y-79732619D02*
X73140476Y-79708809D01*
X73140476Y-79708809D02*
X73259524Y-79708809D01*
X73259524Y-79708809D02*
X73307143Y-79732619D01*
X73307143Y-79732619D02*
X73330952Y-79756428D01*
X73330952Y-79756428D02*
X73354762Y-79804047D01*
X73354762Y-79804047D02*
X73354762Y-79851666D01*
X73354762Y-79851666D02*
X73330952Y-79923095D01*
X73330952Y-79923095D02*
X73045238Y-80208809D01*
X73045238Y-80208809D02*
X73354762Y-80208809D01*
X73783333Y-79708809D02*
X73688095Y-79708809D01*
X73688095Y-79708809D02*
X73640476Y-79732619D01*
X73640476Y-79732619D02*
X73616666Y-79756428D01*
X73616666Y-79756428D02*
X73569047Y-79827857D01*
X73569047Y-79827857D02*
X73545238Y-79923095D01*
X73545238Y-79923095D02*
X73545238Y-80113571D01*
X73545238Y-80113571D02*
X73569047Y-80161190D01*
X73569047Y-80161190D02*
X73592857Y-80185000D01*
X73592857Y-80185000D02*
X73640476Y-80208809D01*
X73640476Y-80208809D02*
X73735714Y-80208809D01*
X73735714Y-80208809D02*
X73783333Y-80185000D01*
X73783333Y-80185000D02*
X73807142Y-80161190D01*
X73807142Y-80161190D02*
X73830952Y-80113571D01*
X73830952Y-80113571D02*
X73830952Y-79994523D01*
X73830952Y-79994523D02*
X73807142Y-79946904D01*
X73807142Y-79946904D02*
X73783333Y-79923095D01*
X73783333Y-79923095D02*
X73735714Y-79899285D01*
X73735714Y-79899285D02*
X73640476Y-79899285D01*
X73640476Y-79899285D02*
X73592857Y-79923095D01*
X73592857Y-79923095D02*
X73569047Y-79946904D01*
X73569047Y-79946904D02*
X73545238Y-79994523D01*
X45576666Y-61114809D02*
X45410000Y-60876714D01*
X45290952Y-61114809D02*
X45290952Y-60614809D01*
X45290952Y-60614809D02*
X45481428Y-60614809D01*
X45481428Y-60614809D02*
X45529047Y-60638619D01*
X45529047Y-60638619D02*
X45552857Y-60662428D01*
X45552857Y-60662428D02*
X45576666Y-60710047D01*
X45576666Y-60710047D02*
X45576666Y-60781476D01*
X45576666Y-60781476D02*
X45552857Y-60829095D01*
X45552857Y-60829095D02*
X45529047Y-60852904D01*
X45529047Y-60852904D02*
X45481428Y-60876714D01*
X45481428Y-60876714D02*
X45290952Y-60876714D01*
X46005238Y-60614809D02*
X45910000Y-60614809D01*
X45910000Y-60614809D02*
X45862381Y-60638619D01*
X45862381Y-60638619D02*
X45838571Y-60662428D01*
X45838571Y-60662428D02*
X45790952Y-60733857D01*
X45790952Y-60733857D02*
X45767143Y-60829095D01*
X45767143Y-60829095D02*
X45767143Y-61019571D01*
X45767143Y-61019571D02*
X45790952Y-61067190D01*
X45790952Y-61067190D02*
X45814762Y-61091000D01*
X45814762Y-61091000D02*
X45862381Y-61114809D01*
X45862381Y-61114809D02*
X45957619Y-61114809D01*
X45957619Y-61114809D02*
X46005238Y-61091000D01*
X46005238Y-61091000D02*
X46029047Y-61067190D01*
X46029047Y-61067190D02*
X46052857Y-61019571D01*
X46052857Y-61019571D02*
X46052857Y-60900523D01*
X46052857Y-60900523D02*
X46029047Y-60852904D01*
X46029047Y-60852904D02*
X46005238Y-60829095D01*
X46005238Y-60829095D02*
X45957619Y-60805285D01*
X45957619Y-60805285D02*
X45862381Y-60805285D01*
X45862381Y-60805285D02*
X45814762Y-60829095D01*
X45814762Y-60829095D02*
X45790952Y-60852904D01*
X45790952Y-60852904D02*
X45767143Y-60900523D01*
X102511904Y-79940809D02*
X102345238Y-79702714D01*
X102226190Y-79940809D02*
X102226190Y-79440809D01*
X102226190Y-79440809D02*
X102416666Y-79440809D01*
X102416666Y-79440809D02*
X102464285Y-79464619D01*
X102464285Y-79464619D02*
X102488095Y-79488428D01*
X102488095Y-79488428D02*
X102511904Y-79536047D01*
X102511904Y-79536047D02*
X102511904Y-79607476D01*
X102511904Y-79607476D02*
X102488095Y-79655095D01*
X102488095Y-79655095D02*
X102464285Y-79678904D01*
X102464285Y-79678904D02*
X102416666Y-79702714D01*
X102416666Y-79702714D02*
X102226190Y-79702714D01*
X102702381Y-79488428D02*
X102726190Y-79464619D01*
X102726190Y-79464619D02*
X102773809Y-79440809D01*
X102773809Y-79440809D02*
X102892857Y-79440809D01*
X102892857Y-79440809D02*
X102940476Y-79464619D01*
X102940476Y-79464619D02*
X102964285Y-79488428D01*
X102964285Y-79488428D02*
X102988095Y-79536047D01*
X102988095Y-79536047D02*
X102988095Y-79583666D01*
X102988095Y-79583666D02*
X102964285Y-79655095D01*
X102964285Y-79655095D02*
X102678571Y-79940809D01*
X102678571Y-79940809D02*
X102988095Y-79940809D01*
X103297618Y-79440809D02*
X103345237Y-79440809D01*
X103345237Y-79440809D02*
X103392856Y-79464619D01*
X103392856Y-79464619D02*
X103416666Y-79488428D01*
X103416666Y-79488428D02*
X103440475Y-79536047D01*
X103440475Y-79536047D02*
X103464285Y-79631285D01*
X103464285Y-79631285D02*
X103464285Y-79750333D01*
X103464285Y-79750333D02*
X103440475Y-79845571D01*
X103440475Y-79845571D02*
X103416666Y-79893190D01*
X103416666Y-79893190D02*
X103392856Y-79917000D01*
X103392856Y-79917000D02*
X103345237Y-79940809D01*
X103345237Y-79940809D02*
X103297618Y-79940809D01*
X103297618Y-79940809D02*
X103249999Y-79917000D01*
X103249999Y-79917000D02*
X103226190Y-79893190D01*
X103226190Y-79893190D02*
X103202380Y-79845571D01*
X103202380Y-79845571D02*
X103178571Y-79750333D01*
X103178571Y-79750333D02*
X103178571Y-79631285D01*
X103178571Y-79631285D02*
X103202380Y-79536047D01*
X103202380Y-79536047D02*
X103226190Y-79488428D01*
X103226190Y-79488428D02*
X103249999Y-79464619D01*
X103249999Y-79464619D02*
X103297618Y-79440809D01*
D14*
X46190717Y-102119504D02*
X46428812Y-102119504D01*
X46333574Y-102357599D02*
X46428812Y-102119504D01*
X46428812Y-102119504D02*
X46333574Y-101881409D01*
X46619288Y-102262361D02*
X46428812Y-102119504D01*
X46428812Y-102119504D02*
X46619288Y-101976647D01*
D10*
X112206666Y-53464809D02*
X112040000Y-53226714D01*
X111920952Y-53464809D02*
X111920952Y-52964809D01*
X111920952Y-52964809D02*
X112111428Y-52964809D01*
X112111428Y-52964809D02*
X112159047Y-52988619D01*
X112159047Y-52988619D02*
X112182857Y-53012428D01*
X112182857Y-53012428D02*
X112206666Y-53060047D01*
X112206666Y-53060047D02*
X112206666Y-53131476D01*
X112206666Y-53131476D02*
X112182857Y-53179095D01*
X112182857Y-53179095D02*
X112159047Y-53202904D01*
X112159047Y-53202904D02*
X112111428Y-53226714D01*
X112111428Y-53226714D02*
X111920952Y-53226714D01*
X112397143Y-53012428D02*
X112420952Y-52988619D01*
X112420952Y-52988619D02*
X112468571Y-52964809D01*
X112468571Y-52964809D02*
X112587619Y-52964809D01*
X112587619Y-52964809D02*
X112635238Y-52988619D01*
X112635238Y-52988619D02*
X112659047Y-53012428D01*
X112659047Y-53012428D02*
X112682857Y-53060047D01*
X112682857Y-53060047D02*
X112682857Y-53107666D01*
X112682857Y-53107666D02*
X112659047Y-53179095D01*
X112659047Y-53179095D02*
X112373333Y-53464809D01*
X112373333Y-53464809D02*
X112682857Y-53464809D01*
X77078571Y-100124809D02*
X76911905Y-99886714D01*
X76792857Y-100124809D02*
X76792857Y-99624809D01*
X76792857Y-99624809D02*
X76983333Y-99624809D01*
X76983333Y-99624809D02*
X77030952Y-99648619D01*
X77030952Y-99648619D02*
X77054762Y-99672428D01*
X77054762Y-99672428D02*
X77078571Y-99720047D01*
X77078571Y-99720047D02*
X77078571Y-99791476D01*
X77078571Y-99791476D02*
X77054762Y-99839095D01*
X77054762Y-99839095D02*
X77030952Y-99862904D01*
X77030952Y-99862904D02*
X76983333Y-99886714D01*
X76983333Y-99886714D02*
X76792857Y-99886714D01*
X77269048Y-99672428D02*
X77292857Y-99648619D01*
X77292857Y-99648619D02*
X77340476Y-99624809D01*
X77340476Y-99624809D02*
X77459524Y-99624809D01*
X77459524Y-99624809D02*
X77507143Y-99648619D01*
X77507143Y-99648619D02*
X77530952Y-99672428D01*
X77530952Y-99672428D02*
X77554762Y-99720047D01*
X77554762Y-99720047D02*
X77554762Y-99767666D01*
X77554762Y-99767666D02*
X77530952Y-99839095D01*
X77530952Y-99839095D02*
X77245238Y-100124809D01*
X77245238Y-100124809D02*
X77554762Y-100124809D01*
X78030952Y-100124809D02*
X77745238Y-100124809D01*
X77888095Y-100124809D02*
X77888095Y-99624809D01*
X77888095Y-99624809D02*
X77840476Y-99696238D01*
X77840476Y-99696238D02*
X77792857Y-99743857D01*
X77792857Y-99743857D02*
X77745238Y-99767666D01*
X119266666Y-53594809D02*
X119100000Y-53356714D01*
X118980952Y-53594809D02*
X118980952Y-53094809D01*
X118980952Y-53094809D02*
X119171428Y-53094809D01*
X119171428Y-53094809D02*
X119219047Y-53118619D01*
X119219047Y-53118619D02*
X119242857Y-53142428D01*
X119242857Y-53142428D02*
X119266666Y-53190047D01*
X119266666Y-53190047D02*
X119266666Y-53261476D01*
X119266666Y-53261476D02*
X119242857Y-53309095D01*
X119242857Y-53309095D02*
X119219047Y-53332904D01*
X119219047Y-53332904D02*
X119171428Y-53356714D01*
X119171428Y-53356714D02*
X118980952Y-53356714D01*
X119433333Y-53094809D02*
X119742857Y-53094809D01*
X119742857Y-53094809D02*
X119576190Y-53285285D01*
X119576190Y-53285285D02*
X119647619Y-53285285D01*
X119647619Y-53285285D02*
X119695238Y-53309095D01*
X119695238Y-53309095D02*
X119719047Y-53332904D01*
X119719047Y-53332904D02*
X119742857Y-53380523D01*
X119742857Y-53380523D02*
X119742857Y-53499571D01*
X119742857Y-53499571D02*
X119719047Y-53547190D01*
X119719047Y-53547190D02*
X119695238Y-53571000D01*
X119695238Y-53571000D02*
X119647619Y-53594809D01*
X119647619Y-53594809D02*
X119504762Y-53594809D01*
X119504762Y-53594809D02*
X119457143Y-53571000D01*
X119457143Y-53571000D02*
X119433333Y-53547190D01*
X107476666Y-43337190D02*
X107452857Y-43361000D01*
X107452857Y-43361000D02*
X107381428Y-43384809D01*
X107381428Y-43384809D02*
X107333809Y-43384809D01*
X107333809Y-43384809D02*
X107262381Y-43361000D01*
X107262381Y-43361000D02*
X107214762Y-43313380D01*
X107214762Y-43313380D02*
X107190952Y-43265761D01*
X107190952Y-43265761D02*
X107167143Y-43170523D01*
X107167143Y-43170523D02*
X107167143Y-43099095D01*
X107167143Y-43099095D02*
X107190952Y-43003857D01*
X107190952Y-43003857D02*
X107214762Y-42956238D01*
X107214762Y-42956238D02*
X107262381Y-42908619D01*
X107262381Y-42908619D02*
X107333809Y-42884809D01*
X107333809Y-42884809D02*
X107381428Y-42884809D01*
X107381428Y-42884809D02*
X107452857Y-42908619D01*
X107452857Y-42908619D02*
X107476666Y-42932428D01*
X107643333Y-42884809D02*
X107952857Y-42884809D01*
X107952857Y-42884809D02*
X107786190Y-43075285D01*
X107786190Y-43075285D02*
X107857619Y-43075285D01*
X107857619Y-43075285D02*
X107905238Y-43099095D01*
X107905238Y-43099095D02*
X107929047Y-43122904D01*
X107929047Y-43122904D02*
X107952857Y-43170523D01*
X107952857Y-43170523D02*
X107952857Y-43289571D01*
X107952857Y-43289571D02*
X107929047Y-43337190D01*
X107929047Y-43337190D02*
X107905238Y-43361000D01*
X107905238Y-43361000D02*
X107857619Y-43384809D01*
X107857619Y-43384809D02*
X107714762Y-43384809D01*
X107714762Y-43384809D02*
X107667143Y-43361000D01*
X107667143Y-43361000D02*
X107643333Y-43337190D01*
X50852564Y-75544314D02*
X50685898Y-75306219D01*
X50566850Y-75544314D02*
X50566850Y-75044314D01*
X50566850Y-75044314D02*
X50757326Y-75044314D01*
X50757326Y-75044314D02*
X50804945Y-75068124D01*
X50804945Y-75068124D02*
X50828755Y-75091933D01*
X50828755Y-75091933D02*
X50852564Y-75139552D01*
X50852564Y-75139552D02*
X50852564Y-75210981D01*
X50852564Y-75210981D02*
X50828755Y-75258600D01*
X50828755Y-75258600D02*
X50804945Y-75282409D01*
X50804945Y-75282409D02*
X50757326Y-75306219D01*
X50757326Y-75306219D02*
X50566850Y-75306219D01*
X51019231Y-75044314D02*
X51352564Y-75044314D01*
X51352564Y-75044314D02*
X51138279Y-75544314D01*
X106278571Y-100450809D02*
X106111905Y-100212714D01*
X105992857Y-100450809D02*
X105992857Y-99950809D01*
X105992857Y-99950809D02*
X106183333Y-99950809D01*
X106183333Y-99950809D02*
X106230952Y-99974619D01*
X106230952Y-99974619D02*
X106254762Y-99998428D01*
X106254762Y-99998428D02*
X106278571Y-100046047D01*
X106278571Y-100046047D02*
X106278571Y-100117476D01*
X106278571Y-100117476D02*
X106254762Y-100165095D01*
X106254762Y-100165095D02*
X106230952Y-100188904D01*
X106230952Y-100188904D02*
X106183333Y-100212714D01*
X106183333Y-100212714D02*
X105992857Y-100212714D01*
X106754762Y-100450809D02*
X106469048Y-100450809D01*
X106611905Y-100450809D02*
X106611905Y-99950809D01*
X106611905Y-99950809D02*
X106564286Y-100022238D01*
X106564286Y-100022238D02*
X106516667Y-100069857D01*
X106516667Y-100069857D02*
X106469048Y-100093666D01*
X107207142Y-99950809D02*
X106969047Y-99950809D01*
X106969047Y-99950809D02*
X106945238Y-100188904D01*
X106945238Y-100188904D02*
X106969047Y-100165095D01*
X106969047Y-100165095D02*
X107016666Y-100141285D01*
X107016666Y-100141285D02*
X107135714Y-100141285D01*
X107135714Y-100141285D02*
X107183333Y-100165095D01*
X107183333Y-100165095D02*
X107207142Y-100188904D01*
X107207142Y-100188904D02*
X107230952Y-100236523D01*
X107230952Y-100236523D02*
X107230952Y-100355571D01*
X107230952Y-100355571D02*
X107207142Y-100403190D01*
X107207142Y-100403190D02*
X107183333Y-100427000D01*
X107183333Y-100427000D02*
X107135714Y-100450809D01*
X107135714Y-100450809D02*
X107016666Y-100450809D01*
X107016666Y-100450809D02*
X106969047Y-100427000D01*
X106969047Y-100427000D02*
X106945238Y-100403190D01*
X46090564Y-107730314D02*
X45923898Y-107492219D01*
X45804850Y-107730314D02*
X45804850Y-107230314D01*
X45804850Y-107230314D02*
X45995326Y-107230314D01*
X45995326Y-107230314D02*
X46042945Y-107254124D01*
X46042945Y-107254124D02*
X46066755Y-107277933D01*
X46066755Y-107277933D02*
X46090564Y-107325552D01*
X46090564Y-107325552D02*
X46090564Y-107396981D01*
X46090564Y-107396981D02*
X46066755Y-107444600D01*
X46066755Y-107444600D02*
X46042945Y-107468409D01*
X46042945Y-107468409D02*
X45995326Y-107492219D01*
X45995326Y-107492219D02*
X45804850Y-107492219D01*
X46376279Y-107444600D02*
X46328660Y-107420790D01*
X46328660Y-107420790D02*
X46304850Y-107396981D01*
X46304850Y-107396981D02*
X46281041Y-107349362D01*
X46281041Y-107349362D02*
X46281041Y-107325552D01*
X46281041Y-107325552D02*
X46304850Y-107277933D01*
X46304850Y-107277933D02*
X46328660Y-107254124D01*
X46328660Y-107254124D02*
X46376279Y-107230314D01*
X46376279Y-107230314D02*
X46471517Y-107230314D01*
X46471517Y-107230314D02*
X46519136Y-107254124D01*
X46519136Y-107254124D02*
X46542945Y-107277933D01*
X46542945Y-107277933D02*
X46566755Y-107325552D01*
X46566755Y-107325552D02*
X46566755Y-107349362D01*
X46566755Y-107349362D02*
X46542945Y-107396981D01*
X46542945Y-107396981D02*
X46519136Y-107420790D01*
X46519136Y-107420790D02*
X46471517Y-107444600D01*
X46471517Y-107444600D02*
X46376279Y-107444600D01*
X46376279Y-107444600D02*
X46328660Y-107468409D01*
X46328660Y-107468409D02*
X46304850Y-107492219D01*
X46304850Y-107492219D02*
X46281041Y-107539838D01*
X46281041Y-107539838D02*
X46281041Y-107635076D01*
X46281041Y-107635076D02*
X46304850Y-107682695D01*
X46304850Y-107682695D02*
X46328660Y-107706505D01*
X46328660Y-107706505D02*
X46376279Y-107730314D01*
X46376279Y-107730314D02*
X46471517Y-107730314D01*
X46471517Y-107730314D02*
X46519136Y-107706505D01*
X46519136Y-107706505D02*
X46542945Y-107682695D01*
X46542945Y-107682695D02*
X46566755Y-107635076D01*
X46566755Y-107635076D02*
X46566755Y-107539838D01*
X46566755Y-107539838D02*
X46542945Y-107492219D01*
X46542945Y-107492219D02*
X46519136Y-107468409D01*
X46519136Y-107468409D02*
X46471517Y-107444600D01*
X103709048Y-53094809D02*
X103994762Y-53094809D01*
X103851905Y-53594809D02*
X103851905Y-53094809D01*
X104423333Y-53594809D02*
X104137619Y-53594809D01*
X104280476Y-53594809D02*
X104280476Y-53094809D01*
X104280476Y-53094809D02*
X104232857Y-53166238D01*
X104232857Y-53166238D02*
X104185238Y-53213857D01*
X104185238Y-53213857D02*
X104137619Y-53237666D01*
X84578571Y-100124809D02*
X84411905Y-99886714D01*
X84292857Y-100124809D02*
X84292857Y-99624809D01*
X84292857Y-99624809D02*
X84483333Y-99624809D01*
X84483333Y-99624809D02*
X84530952Y-99648619D01*
X84530952Y-99648619D02*
X84554762Y-99672428D01*
X84554762Y-99672428D02*
X84578571Y-99720047D01*
X84578571Y-99720047D02*
X84578571Y-99791476D01*
X84578571Y-99791476D02*
X84554762Y-99839095D01*
X84554762Y-99839095D02*
X84530952Y-99862904D01*
X84530952Y-99862904D02*
X84483333Y-99886714D01*
X84483333Y-99886714D02*
X84292857Y-99886714D01*
X85054762Y-100124809D02*
X84769048Y-100124809D01*
X84911905Y-100124809D02*
X84911905Y-99624809D01*
X84911905Y-99624809D02*
X84864286Y-99696238D01*
X84864286Y-99696238D02*
X84816667Y-99743857D01*
X84816667Y-99743857D02*
X84769048Y-99767666D01*
X85221428Y-99624809D02*
X85530952Y-99624809D01*
X85530952Y-99624809D02*
X85364285Y-99815285D01*
X85364285Y-99815285D02*
X85435714Y-99815285D01*
X85435714Y-99815285D02*
X85483333Y-99839095D01*
X85483333Y-99839095D02*
X85507142Y-99862904D01*
X85507142Y-99862904D02*
X85530952Y-99910523D01*
X85530952Y-99910523D02*
X85530952Y-100029571D01*
X85530952Y-100029571D02*
X85507142Y-100077190D01*
X85507142Y-100077190D02*
X85483333Y-100101000D01*
X85483333Y-100101000D02*
X85435714Y-100124809D01*
X85435714Y-100124809D02*
X85292857Y-100124809D01*
X85292857Y-100124809D02*
X85245238Y-100101000D01*
X85245238Y-100101000D02*
X85221428Y-100077190D01*
X34550952Y-52114809D02*
X34550952Y-51614809D01*
X34550952Y-51614809D02*
X34670000Y-51614809D01*
X34670000Y-51614809D02*
X34741428Y-51638619D01*
X34741428Y-51638619D02*
X34789047Y-51686238D01*
X34789047Y-51686238D02*
X34812857Y-51733857D01*
X34812857Y-51733857D02*
X34836666Y-51829095D01*
X34836666Y-51829095D02*
X34836666Y-51900523D01*
X34836666Y-51900523D02*
X34812857Y-51995761D01*
X34812857Y-51995761D02*
X34789047Y-52043380D01*
X34789047Y-52043380D02*
X34741428Y-52091000D01*
X34741428Y-52091000D02*
X34670000Y-52114809D01*
X34670000Y-52114809D02*
X34550952Y-52114809D01*
X35312857Y-52114809D02*
X35027143Y-52114809D01*
X35170000Y-52114809D02*
X35170000Y-51614809D01*
X35170000Y-51614809D02*
X35122381Y-51686238D01*
X35122381Y-51686238D02*
X35074762Y-51733857D01*
X35074762Y-51733857D02*
X35027143Y-51757666D01*
X84666666Y-83157190D02*
X84642857Y-83181000D01*
X84642857Y-83181000D02*
X84571428Y-83204809D01*
X84571428Y-83204809D02*
X84523809Y-83204809D01*
X84523809Y-83204809D02*
X84452381Y-83181000D01*
X84452381Y-83181000D02*
X84404762Y-83133380D01*
X84404762Y-83133380D02*
X84380952Y-83085761D01*
X84380952Y-83085761D02*
X84357143Y-82990523D01*
X84357143Y-82990523D02*
X84357143Y-82919095D01*
X84357143Y-82919095D02*
X84380952Y-82823857D01*
X84380952Y-82823857D02*
X84404762Y-82776238D01*
X84404762Y-82776238D02*
X84452381Y-82728619D01*
X84452381Y-82728619D02*
X84523809Y-82704809D01*
X84523809Y-82704809D02*
X84571428Y-82704809D01*
X84571428Y-82704809D02*
X84642857Y-82728619D01*
X84642857Y-82728619D02*
X84666666Y-82752428D01*
X85119047Y-82704809D02*
X84880952Y-82704809D01*
X84880952Y-82704809D02*
X84857143Y-82942904D01*
X84857143Y-82942904D02*
X84880952Y-82919095D01*
X84880952Y-82919095D02*
X84928571Y-82895285D01*
X84928571Y-82895285D02*
X85047619Y-82895285D01*
X85047619Y-82895285D02*
X85095238Y-82919095D01*
X85095238Y-82919095D02*
X85119047Y-82942904D01*
X85119047Y-82942904D02*
X85142857Y-82990523D01*
X85142857Y-82990523D02*
X85142857Y-83109571D01*
X85142857Y-83109571D02*
X85119047Y-83157190D01*
X85119047Y-83157190D02*
X85095238Y-83181000D01*
X85095238Y-83181000D02*
X85047619Y-83204809D01*
X85047619Y-83204809D02*
X84928571Y-83204809D01*
X84928571Y-83204809D02*
X84880952Y-83181000D01*
X84880952Y-83181000D02*
X84857143Y-83157190D01*
X80878571Y-100024809D02*
X80711905Y-99786714D01*
X80592857Y-100024809D02*
X80592857Y-99524809D01*
X80592857Y-99524809D02*
X80783333Y-99524809D01*
X80783333Y-99524809D02*
X80830952Y-99548619D01*
X80830952Y-99548619D02*
X80854762Y-99572428D01*
X80854762Y-99572428D02*
X80878571Y-99620047D01*
X80878571Y-99620047D02*
X80878571Y-99691476D01*
X80878571Y-99691476D02*
X80854762Y-99739095D01*
X80854762Y-99739095D02*
X80830952Y-99762904D01*
X80830952Y-99762904D02*
X80783333Y-99786714D01*
X80783333Y-99786714D02*
X80592857Y-99786714D01*
X81354762Y-100024809D02*
X81069048Y-100024809D01*
X81211905Y-100024809D02*
X81211905Y-99524809D01*
X81211905Y-99524809D02*
X81164286Y-99596238D01*
X81164286Y-99596238D02*
X81116667Y-99643857D01*
X81116667Y-99643857D02*
X81069048Y-99667666D01*
X81521428Y-99524809D02*
X81854761Y-99524809D01*
X81854761Y-99524809D02*
X81640476Y-100024809D01*
X82145239Y-80118143D02*
X81978573Y-79880048D01*
X81859525Y-80118143D02*
X81859525Y-79618143D01*
X81859525Y-79618143D02*
X82050001Y-79618143D01*
X82050001Y-79618143D02*
X82097620Y-79641953D01*
X82097620Y-79641953D02*
X82121430Y-79665762D01*
X82121430Y-79665762D02*
X82145239Y-79713381D01*
X82145239Y-79713381D02*
X82145239Y-79784810D01*
X82145239Y-79784810D02*
X82121430Y-79832429D01*
X82121430Y-79832429D02*
X82097620Y-79856238D01*
X82097620Y-79856238D02*
X82050001Y-79880048D01*
X82050001Y-79880048D02*
X81859525Y-79880048D01*
X82621430Y-80118143D02*
X82335716Y-80118143D01*
X82478573Y-80118143D02*
X82478573Y-79618143D01*
X82478573Y-79618143D02*
X82430954Y-79689572D01*
X82430954Y-79689572D02*
X82383335Y-79737191D01*
X82383335Y-79737191D02*
X82335716Y-79761000D01*
X82907144Y-79832429D02*
X82859525Y-79808619D01*
X82859525Y-79808619D02*
X82835715Y-79784810D01*
X82835715Y-79784810D02*
X82811906Y-79737191D01*
X82811906Y-79737191D02*
X82811906Y-79713381D01*
X82811906Y-79713381D02*
X82835715Y-79665762D01*
X82835715Y-79665762D02*
X82859525Y-79641953D01*
X82859525Y-79641953D02*
X82907144Y-79618143D01*
X82907144Y-79618143D02*
X83002382Y-79618143D01*
X83002382Y-79618143D02*
X83050001Y-79641953D01*
X83050001Y-79641953D02*
X83073810Y-79665762D01*
X83073810Y-79665762D02*
X83097620Y-79713381D01*
X83097620Y-79713381D02*
X83097620Y-79737191D01*
X83097620Y-79737191D02*
X83073810Y-79784810D01*
X83073810Y-79784810D02*
X83050001Y-79808619D01*
X83050001Y-79808619D02*
X83002382Y-79832429D01*
X83002382Y-79832429D02*
X82907144Y-79832429D01*
X82907144Y-79832429D02*
X82859525Y-79856238D01*
X82859525Y-79856238D02*
X82835715Y-79880048D01*
X82835715Y-79880048D02*
X82811906Y-79927667D01*
X82811906Y-79927667D02*
X82811906Y-80022905D01*
X82811906Y-80022905D02*
X82835715Y-80070524D01*
X82835715Y-80070524D02*
X82859525Y-80094334D01*
X82859525Y-80094334D02*
X82907144Y-80118143D01*
X82907144Y-80118143D02*
X83002382Y-80118143D01*
X83002382Y-80118143D02*
X83050001Y-80094334D01*
X83050001Y-80094334D02*
X83073810Y-80070524D01*
X83073810Y-80070524D02*
X83097620Y-80022905D01*
X83097620Y-80022905D02*
X83097620Y-79927667D01*
X83097620Y-79927667D02*
X83073810Y-79880048D01*
X83073810Y-79880048D02*
X83050001Y-79856238D01*
X83050001Y-79856238D02*
X83002382Y-79832429D01*
D17*
%TO.C,ONES-SR1*%
X77442700Y-94776800D02*
X81684500Y-94776800D01*
X81684500Y-84515200D02*
X77442700Y-84515200D01*
%TO.C,TENS-SR1*%
X102621352Y-94831800D02*
X106863152Y-94831800D01*
X106863152Y-84570200D02*
X102621352Y-84570200D01*
%TO.C,TVS1*%
X87979000Y-51504500D02*
X87979000Y-52175060D01*
X87979000Y-55695500D02*
X87979000Y-55024940D01*
X87979000Y-55695500D02*
X93821000Y-55695500D01*
X90400000Y-55600000D02*
X91670000Y-55600000D01*
X90654000Y-56235000D02*
X90654000Y-54965000D01*
X91416000Y-55600000D02*
X90654000Y-54965000D01*
X91416000Y-55600000D02*
X90654000Y-55092000D01*
X91416000Y-55600000D02*
X90654000Y-55219000D01*
X91416000Y-55600000D02*
X90654000Y-55346000D01*
X91416000Y-55600000D02*
X90654000Y-55473000D01*
X91416000Y-55600000D02*
X90654000Y-55727000D01*
X91416000Y-55600000D02*
X90654000Y-55854000D01*
X91416000Y-55600000D02*
X90654000Y-55981000D01*
X91416000Y-55600000D02*
X90654000Y-56108000D01*
X91416000Y-55600000D02*
X90654000Y-56235000D01*
X91416000Y-56235000D02*
X91416000Y-54965000D01*
X93821000Y-51504500D02*
X87979000Y-51504500D01*
X93821000Y-52175060D02*
X93821000Y-51504500D01*
X93821000Y-55695500D02*
X93821000Y-55024940D01*
%TO.C,D2*%
X33858947Y-86340306D02*
X35612849Y-86340306D01*
X35612849Y-84587706D02*
X33858947Y-84587706D01*
%TO.C,u1*%
X28474400Y-18271200D02*
X28474400Y-47328800D01*
X28474400Y-47328800D02*
X82525600Y-47328800D01*
X82525600Y-18271200D02*
X28474400Y-18271200D01*
X82525600Y-47328800D02*
X82525600Y-18271200D01*
%TO.C,C2*%
X85118500Y-40518500D02*
X85118500Y-43986260D01*
X85118500Y-45813740D02*
X85118500Y-49281500D01*
X85118500Y-49281500D02*
X93881500Y-49281500D01*
X93881500Y-40518500D02*
X85118500Y-40518500D01*
X93881500Y-43986260D02*
X93881500Y-40518500D01*
X93881500Y-49281500D02*
X93881500Y-45813740D01*
%TO.C,J3*%
X26864397Y-55719005D02*
X26864397Y-75175405D01*
X26864397Y-75175405D02*
X42612397Y-75175405D01*
X42612397Y-55719005D02*
X26864397Y-55719005D01*
X42612397Y-75175405D02*
X42612397Y-55719005D01*
X29119399Y-75810405D02*
G75*
G02*
X28357399Y-75810405I-381000J0D01*
G01*
X28357399Y-75810405D02*
G75*
G02*
X29119399Y-75810405I381000J0D01*
G01*
%TO.C,T2*%
X45875598Y-55668505D02*
X45875598Y-56707365D01*
X45875598Y-57931645D02*
X45875598Y-58970505D01*
X45875598Y-58970505D02*
X47526598Y-58970505D01*
X47526598Y-55668505D02*
X45875598Y-55668505D01*
X47526598Y-57659865D02*
X47526598Y-56979145D01*
%TO.C,LED2*%
X112295300Y-40945000D02*
X112295300Y-39675000D01*
X112295300Y-40310000D02*
X111533300Y-40945000D01*
X112295300Y-40310000D02*
X111533300Y-40818000D01*
X112295300Y-40310000D02*
X111533300Y-40691000D01*
X112295300Y-40310000D02*
X111533300Y-40564000D01*
X112295300Y-40310000D02*
X111533300Y-40437000D01*
X112295300Y-40310000D02*
X111533300Y-40183000D01*
X112295300Y-40310000D02*
X111533300Y-40056000D01*
X112295300Y-40310000D02*
X111533300Y-39929000D01*
X112295300Y-40310000D02*
X111533300Y-39802000D01*
X112295300Y-40310000D02*
X111533300Y-39675000D01*
X111533300Y-40945000D02*
X111533300Y-39675000D01*
X111279300Y-40310000D02*
X112549300Y-40310000D01*
X109498550Y-39560700D02*
X109021450Y-39560700D01*
X109021450Y-41059300D02*
X109498550Y-41059300D01*
%TO.C,Q1*%
X46738798Y-64393805D02*
X46738798Y-69245205D01*
X46738798Y-69245205D02*
X47053758Y-69245205D01*
X47053758Y-64393805D02*
X46738798Y-64393805D01*
X48278038Y-69245205D02*
X49593758Y-69245205D01*
X49593758Y-64393805D02*
X48278038Y-64393805D01*
X50818038Y-69245205D02*
X51132998Y-69245205D01*
X51132998Y-64393805D02*
X50818038Y-64393805D01*
X51132998Y-69245205D02*
X51132998Y-64393805D01*
%TO.C,T3*%
X45752895Y-87590805D02*
X45752895Y-88629665D01*
X45752895Y-89853945D02*
X45752895Y-90892805D01*
X45752895Y-90892805D02*
X47403895Y-90892805D01*
X47403895Y-87590805D02*
X45752895Y-87590805D01*
X47403895Y-89582165D02*
X47403895Y-88901445D01*
%TO.C,active1*%
X54597348Y-74068805D02*
X55074448Y-74068805D01*
X55074448Y-72570205D02*
X54597348Y-72570205D01*
X56855198Y-73319505D02*
X58125198Y-73319505D01*
X57109198Y-73954505D02*
X57109198Y-72684505D01*
X57871198Y-73319505D02*
X57109198Y-72684505D01*
X57871198Y-73319505D02*
X57109198Y-72811505D01*
X57871198Y-73319505D02*
X57109198Y-72938505D01*
X57871198Y-73319505D02*
X57109198Y-73065505D01*
X57871198Y-73319505D02*
X57109198Y-73192505D01*
X57871198Y-73319505D02*
X57109198Y-73446505D01*
X57871198Y-73319505D02*
X57109198Y-73573505D01*
X57871198Y-73319505D02*
X57109198Y-73700505D01*
X57871198Y-73319505D02*
X57109198Y-73827505D01*
X57871198Y-73319505D02*
X57109198Y-73954505D01*
X57871198Y-73954505D02*
X57871198Y-72684505D01*
%TO.C,MOV1*%
X34067900Y-29356700D02*
X34067900Y-35621219D01*
X39732100Y-30308240D02*
X39732100Y-36443300D01*
X34067900Y-29356700D02*
G75*
G02*
X39381476Y-27991758I2832100J0D01*
G01*
X34360000Y-35186000D02*
G75*
G02*
X35549781Y-33951451I2539990J-1257290D01*
G01*
X36900000Y-33611200D02*
G75*
G02*
X39732100Y-36443300I0J-2832100D01*
G01*
%TO.C,LED1*%
X73004100Y-52865000D02*
X73004100Y-54135000D01*
X73004100Y-53500000D02*
X73766100Y-52865000D01*
X73004100Y-53500000D02*
X73766100Y-52992000D01*
X73004100Y-53500000D02*
X73766100Y-53119000D01*
X73004100Y-53500000D02*
X73766100Y-53246000D01*
X73004100Y-53500000D02*
X73766100Y-53373000D01*
X73004100Y-53500000D02*
X73766100Y-53627000D01*
X73004100Y-53500000D02*
X73766100Y-53754000D01*
X73004100Y-53500000D02*
X73766100Y-53881000D01*
X73004100Y-53500000D02*
X73766100Y-54008000D01*
X73004100Y-53500000D02*
X73766100Y-54135000D01*
X73766100Y-52865000D02*
X73766100Y-54135000D01*
X74020100Y-53500000D02*
X72750100Y-53500000D01*
X75800850Y-54249300D02*
X76277950Y-54249300D01*
X76277950Y-52750700D02*
X75800850Y-52750700D01*
%TO.C,L2*%
X104201401Y-46192200D02*
G75*
G02*
X104049001Y-46192200I-76200J0D01*
G01*
X104049001Y-46192200D02*
G75*
G02*
X104201401Y-46192200I76200J0D01*
G01*
X103273201Y-48078588D02*
X103273201Y-48487012D01*
X104977201Y-48487012D02*
X104977201Y-48078588D01*
%TO.C,L1*%
X110801401Y-46203200D02*
G75*
G02*
X110649001Y-46203200I-76200J0D01*
G01*
X110649001Y-46203200D02*
G75*
G02*
X110801401Y-46203200I76200J0D01*
G01*
X109873201Y-48089588D02*
X109873201Y-48498012D01*
X111577201Y-48498012D02*
X111577201Y-48089588D01*
%TO.C,F1*%
X28183100Y-37635000D02*
X28183100Y-36365000D01*
X28818100Y-37000000D02*
X27548100Y-37000000D01*
X27421100Y-37000000D02*
G75*
G02*
X18708900Y-37000000I-4356100J0D01*
G01*
X18708900Y-37000000D02*
G75*
G02*
X27421100Y-37000000I4356100J0D01*
G01*
%TO.C,Q2*%
X46638798Y-96293805D02*
X46638798Y-101145205D01*
X46638798Y-101145205D02*
X46953758Y-101145205D01*
X46953758Y-96293805D02*
X46638798Y-96293805D01*
X48178038Y-101145205D02*
X49493758Y-101145205D01*
X49493758Y-96293805D02*
X48178038Y-96293805D01*
X50718038Y-101145205D02*
X51032998Y-101145205D01*
X51032998Y-96293805D02*
X50718038Y-96293805D01*
X51032998Y-101145205D02*
X51032998Y-96293805D01*
%TO.C,active2*%
X54597348Y-105968805D02*
X55074448Y-105968805D01*
X55074448Y-104470205D02*
X54597348Y-104470205D01*
X56855198Y-105219505D02*
X58125198Y-105219505D01*
X57109198Y-105854505D02*
X57109198Y-104584505D01*
X57871198Y-105219505D02*
X57109198Y-104584505D01*
X57871198Y-105219505D02*
X57109198Y-104711505D01*
X57871198Y-105219505D02*
X57109198Y-104838505D01*
X57871198Y-105219505D02*
X57109198Y-104965505D01*
X57871198Y-105219505D02*
X57109198Y-105092505D01*
X57871198Y-105219505D02*
X57109198Y-105346505D01*
X57871198Y-105219505D02*
X57109198Y-105473505D01*
X57871198Y-105219505D02*
X57109198Y-105600505D01*
X57871198Y-105219505D02*
X57109198Y-105727505D01*
X57871198Y-105219505D02*
X57109198Y-105854505D01*
X57871198Y-105854505D02*
X57871198Y-104584505D01*
%TO.C,J4*%
X26904397Y-87446805D02*
X26904397Y-106903205D01*
X26904397Y-106903205D02*
X42652397Y-106903205D01*
X42652397Y-87446805D02*
X26904397Y-87446805D01*
X42652397Y-106903205D02*
X42652397Y-87446805D01*
X29159399Y-107538205D02*
G75*
G02*
X28397399Y-107538205I-381000J0D01*
G01*
X28397399Y-107538205D02*
G75*
G02*
X29159399Y-107538205I381000J0D01*
G01*
%TO.C,T1*%
X104989000Y-52554500D02*
X104989000Y-54205500D01*
X106027860Y-52554500D02*
X104989000Y-52554500D01*
X106299640Y-54205500D02*
X106980360Y-54205500D01*
X108291000Y-52554500D02*
X107252140Y-52554500D01*
X108291000Y-54205500D02*
X108291000Y-52554500D01*
%TO.C,D1*%
X33918947Y-54768005D02*
X35672849Y-54768005D01*
X35672849Y-53015405D02*
X33918947Y-53015405D01*
D18*
%TO.C,U2*%
X117620000Y-45480000D02*
X114620000Y-45480000D01*
X117620000Y-42480000D02*
X114620000Y-42480000D01*
D19*
X119720000Y-45230000D02*
G75*
G02*
X119520000Y-45230000I-100000J0D01*
G01*
X119520000Y-45230000D02*
G75*
G02*
X119720000Y-45230000I100000J0D01*
G01*
%TD*%
M02*
