%TF.GenerationSoftware,KiCad,Pcbnew,8.0.1-8.0.1-1~ubuntu22.04.1*%
%TF.CreationDate,2024-04-18T14:36:56-07:00*%
%TF.ProjectId,all_components,616c6c5f-636f-46d7-906f-6e656e74732e,rev?*%
%TF.SameCoordinates,Original*%
%TF.FileFunction,Legend,Bot*%
%TF.FilePolarity,Positive*%
%FSLAX46Y46*%
G04 Gerber Fmt 4.6, Leading zero omitted, Abs format (unit mm)*
G04 Created by KiCad (PCBNEW 8.0.1-8.0.1-1~ubuntu22.04.1) date 2024-04-18 14:36:56*
%MOMM*%
%LPD*%
G01*
G04 APERTURE LIST*
%ADD10C,0.125000*%
%ADD11C,0.100000*%
%ADD12C,0.200000*%
%ADD13C,0.300000*%
%ADD14C,0.150000*%
%ADD15C,0.152400*%
G04 APERTURE END LIST*
D10*
X108462525Y-63148500D02*
X108391097Y-63172309D01*
X108391097Y-63172309D02*
X108272049Y-63172309D01*
X108272049Y-63172309D02*
X108224430Y-63148500D01*
X108224430Y-63148500D02*
X108200621Y-63124690D01*
X108200621Y-63124690D02*
X108176811Y-63077071D01*
X108176811Y-63077071D02*
X108176811Y-63029452D01*
X108176811Y-63029452D02*
X108200621Y-62981833D01*
X108200621Y-62981833D02*
X108224430Y-62958023D01*
X108224430Y-62958023D02*
X108272049Y-62934214D01*
X108272049Y-62934214D02*
X108367287Y-62910404D01*
X108367287Y-62910404D02*
X108414906Y-62886595D01*
X108414906Y-62886595D02*
X108438716Y-62862785D01*
X108438716Y-62862785D02*
X108462525Y-62815166D01*
X108462525Y-62815166D02*
X108462525Y-62767547D01*
X108462525Y-62767547D02*
X108438716Y-62719928D01*
X108438716Y-62719928D02*
X108414906Y-62696119D01*
X108414906Y-62696119D02*
X108367287Y-62672309D01*
X108367287Y-62672309D02*
X108248240Y-62672309D01*
X108248240Y-62672309D02*
X108176811Y-62696119D01*
X107700621Y-63172309D02*
X107986335Y-63172309D01*
X107843478Y-63172309D02*
X107843478Y-62672309D01*
X107843478Y-62672309D02*
X107891097Y-62743738D01*
X107891097Y-62743738D02*
X107938716Y-62791357D01*
X107938716Y-62791357D02*
X107986335Y-62815166D01*
X106748241Y-62648500D02*
X107176812Y-63291357D01*
X106224431Y-63029452D02*
X105986336Y-63029452D01*
X106272050Y-63172309D02*
X106105384Y-62672309D01*
X106105384Y-62672309D02*
X105938717Y-63172309D01*
X105772051Y-63172309D02*
X105772051Y-62672309D01*
X105772051Y-62672309D02*
X105653003Y-62672309D01*
X105653003Y-62672309D02*
X105581575Y-62696119D01*
X105581575Y-62696119D02*
X105533956Y-62743738D01*
X105533956Y-62743738D02*
X105510146Y-62791357D01*
X105510146Y-62791357D02*
X105486337Y-62886595D01*
X105486337Y-62886595D02*
X105486337Y-62958023D01*
X105486337Y-62958023D02*
X105510146Y-63053261D01*
X105510146Y-63053261D02*
X105533956Y-63100880D01*
X105533956Y-63100880D02*
X105581575Y-63148500D01*
X105581575Y-63148500D02*
X105653003Y-63172309D01*
X105653003Y-63172309D02*
X105772051Y-63172309D01*
X104986337Y-63124690D02*
X105010146Y-63148500D01*
X105010146Y-63148500D02*
X105081575Y-63172309D01*
X105081575Y-63172309D02*
X105129194Y-63172309D01*
X105129194Y-63172309D02*
X105200622Y-63148500D01*
X105200622Y-63148500D02*
X105248241Y-63100880D01*
X105248241Y-63100880D02*
X105272051Y-63053261D01*
X105272051Y-63053261D02*
X105295860Y-62958023D01*
X105295860Y-62958023D02*
X105295860Y-62886595D01*
X105295860Y-62886595D02*
X105272051Y-62791357D01*
X105272051Y-62791357D02*
X105248241Y-62743738D01*
X105248241Y-62743738D02*
X105200622Y-62696119D01*
X105200622Y-62696119D02*
X105129194Y-62672309D01*
X105129194Y-62672309D02*
X105081575Y-62672309D01*
X105081575Y-62672309D02*
X105010146Y-62696119D01*
X105010146Y-62696119D02*
X104986337Y-62719928D01*
X60082525Y-67318500D02*
X60011097Y-67342309D01*
X60011097Y-67342309D02*
X59892049Y-67342309D01*
X59892049Y-67342309D02*
X59844430Y-67318500D01*
X59844430Y-67318500D02*
X59820621Y-67294690D01*
X59820621Y-67294690D02*
X59796811Y-67247071D01*
X59796811Y-67247071D02*
X59796811Y-67199452D01*
X59796811Y-67199452D02*
X59820621Y-67151833D01*
X59820621Y-67151833D02*
X59844430Y-67128023D01*
X59844430Y-67128023D02*
X59892049Y-67104214D01*
X59892049Y-67104214D02*
X59987287Y-67080404D01*
X59987287Y-67080404D02*
X60034906Y-67056595D01*
X60034906Y-67056595D02*
X60058716Y-67032785D01*
X60058716Y-67032785D02*
X60082525Y-66985166D01*
X60082525Y-66985166D02*
X60082525Y-66937547D01*
X60082525Y-66937547D02*
X60058716Y-66889928D01*
X60058716Y-66889928D02*
X60034906Y-66866119D01*
X60034906Y-66866119D02*
X59987287Y-66842309D01*
X59987287Y-66842309D02*
X59868240Y-66842309D01*
X59868240Y-66842309D02*
X59796811Y-66866119D01*
X59606335Y-66889928D02*
X59582526Y-66866119D01*
X59582526Y-66866119D02*
X59534907Y-66842309D01*
X59534907Y-66842309D02*
X59415859Y-66842309D01*
X59415859Y-66842309D02*
X59368240Y-66866119D01*
X59368240Y-66866119D02*
X59344431Y-66889928D01*
X59344431Y-66889928D02*
X59320621Y-66937547D01*
X59320621Y-66937547D02*
X59320621Y-66985166D01*
X59320621Y-66985166D02*
X59344431Y-67056595D01*
X59344431Y-67056595D02*
X59630145Y-67342309D01*
X59630145Y-67342309D02*
X59320621Y-67342309D01*
X58368241Y-66818500D02*
X58796812Y-67461357D01*
X57820622Y-67342309D02*
X57820622Y-66842309D01*
X57582527Y-67342309D02*
X57582527Y-66842309D01*
X57582527Y-66842309D02*
X57296813Y-67342309D01*
X57296813Y-67342309D02*
X57296813Y-66842309D01*
X56820622Y-67342309D02*
X57058717Y-67342309D01*
X57058717Y-67342309D02*
X57058717Y-66842309D01*
X56653955Y-67080404D02*
X56487288Y-67080404D01*
X56415860Y-67342309D02*
X56653955Y-67342309D01*
X56653955Y-67342309D02*
X56653955Y-66842309D01*
X56653955Y-66842309D02*
X56415860Y-66842309D01*
X56273002Y-66842309D02*
X55987288Y-66842309D01*
X56130145Y-67342309D02*
X56130145Y-66842309D01*
X60712525Y-99328500D02*
X60641097Y-99352309D01*
X60641097Y-99352309D02*
X60522049Y-99352309D01*
X60522049Y-99352309D02*
X60474430Y-99328500D01*
X60474430Y-99328500D02*
X60450621Y-99304690D01*
X60450621Y-99304690D02*
X60426811Y-99257071D01*
X60426811Y-99257071D02*
X60426811Y-99209452D01*
X60426811Y-99209452D02*
X60450621Y-99161833D01*
X60450621Y-99161833D02*
X60474430Y-99138023D01*
X60474430Y-99138023D02*
X60522049Y-99114214D01*
X60522049Y-99114214D02*
X60617287Y-99090404D01*
X60617287Y-99090404D02*
X60664906Y-99066595D01*
X60664906Y-99066595D02*
X60688716Y-99042785D01*
X60688716Y-99042785D02*
X60712525Y-98995166D01*
X60712525Y-98995166D02*
X60712525Y-98947547D01*
X60712525Y-98947547D02*
X60688716Y-98899928D01*
X60688716Y-98899928D02*
X60664906Y-98876119D01*
X60664906Y-98876119D02*
X60617287Y-98852309D01*
X60617287Y-98852309D02*
X60498240Y-98852309D01*
X60498240Y-98852309D02*
X60426811Y-98876119D01*
X60260145Y-98852309D02*
X59950621Y-98852309D01*
X59950621Y-98852309D02*
X60117288Y-99042785D01*
X60117288Y-99042785D02*
X60045859Y-99042785D01*
X60045859Y-99042785D02*
X59998240Y-99066595D01*
X59998240Y-99066595D02*
X59974431Y-99090404D01*
X59974431Y-99090404D02*
X59950621Y-99138023D01*
X59950621Y-99138023D02*
X59950621Y-99257071D01*
X59950621Y-99257071D02*
X59974431Y-99304690D01*
X59974431Y-99304690D02*
X59998240Y-99328500D01*
X59998240Y-99328500D02*
X60045859Y-99352309D01*
X60045859Y-99352309D02*
X60188716Y-99352309D01*
X60188716Y-99352309D02*
X60236335Y-99328500D01*
X60236335Y-99328500D02*
X60260145Y-99304690D01*
X58998241Y-98828500D02*
X59426812Y-99471357D01*
X58355384Y-98852309D02*
X58260146Y-98852309D01*
X58260146Y-98852309D02*
X58212527Y-98876119D01*
X58212527Y-98876119D02*
X58164908Y-98923738D01*
X58164908Y-98923738D02*
X58141098Y-99018976D01*
X58141098Y-99018976D02*
X58141098Y-99185642D01*
X58141098Y-99185642D02*
X58164908Y-99280880D01*
X58164908Y-99280880D02*
X58212527Y-99328500D01*
X58212527Y-99328500D02*
X58260146Y-99352309D01*
X58260146Y-99352309D02*
X58355384Y-99352309D01*
X58355384Y-99352309D02*
X58403003Y-99328500D01*
X58403003Y-99328500D02*
X58450622Y-99280880D01*
X58450622Y-99280880D02*
X58474431Y-99185642D01*
X58474431Y-99185642D02*
X58474431Y-99018976D01*
X58474431Y-99018976D02*
X58450622Y-98923738D01*
X58450622Y-98923738D02*
X58403003Y-98876119D01*
X58403003Y-98876119D02*
X58355384Y-98852309D01*
X57926812Y-98852309D02*
X57926812Y-99257071D01*
X57926812Y-99257071D02*
X57903002Y-99304690D01*
X57903002Y-99304690D02*
X57879193Y-99328500D01*
X57879193Y-99328500D02*
X57831574Y-99352309D01*
X57831574Y-99352309D02*
X57736336Y-99352309D01*
X57736336Y-99352309D02*
X57688717Y-99328500D01*
X57688717Y-99328500D02*
X57664907Y-99304690D01*
X57664907Y-99304690D02*
X57641098Y-99257071D01*
X57641098Y-99257071D02*
X57641098Y-98852309D01*
X57474430Y-98852309D02*
X57188716Y-98852309D01*
X57331573Y-99352309D02*
X57331573Y-98852309D01*
X56783955Y-99352309D02*
X57022050Y-99352309D01*
X57022050Y-99352309D02*
X57022050Y-98852309D01*
X56617288Y-99090404D02*
X56450621Y-99090404D01*
X56379193Y-99352309D02*
X56617288Y-99352309D01*
X56617288Y-99352309D02*
X56617288Y-98852309D01*
X56617288Y-98852309D02*
X56379193Y-98852309D01*
X56236335Y-98852309D02*
X55950621Y-98852309D01*
X56093478Y-99352309D02*
X56093478Y-98852309D01*
X114622525Y-58258500D02*
X114551097Y-58282309D01*
X114551097Y-58282309D02*
X114432049Y-58282309D01*
X114432049Y-58282309D02*
X114384430Y-58258500D01*
X114384430Y-58258500D02*
X114360621Y-58234690D01*
X114360621Y-58234690D02*
X114336811Y-58187071D01*
X114336811Y-58187071D02*
X114336811Y-58139452D01*
X114336811Y-58139452D02*
X114360621Y-58091833D01*
X114360621Y-58091833D02*
X114384430Y-58068023D01*
X114384430Y-58068023D02*
X114432049Y-58044214D01*
X114432049Y-58044214D02*
X114527287Y-58020404D01*
X114527287Y-58020404D02*
X114574906Y-57996595D01*
X114574906Y-57996595D02*
X114598716Y-57972785D01*
X114598716Y-57972785D02*
X114622525Y-57925166D01*
X114622525Y-57925166D02*
X114622525Y-57877547D01*
X114622525Y-57877547D02*
X114598716Y-57829928D01*
X114598716Y-57829928D02*
X114574906Y-57806119D01*
X114574906Y-57806119D02*
X114527287Y-57782309D01*
X114527287Y-57782309D02*
X114408240Y-57782309D01*
X114408240Y-57782309D02*
X114336811Y-57806119D01*
X113836812Y-58234690D02*
X113860621Y-58258500D01*
X113860621Y-58258500D02*
X113932050Y-58282309D01*
X113932050Y-58282309D02*
X113979669Y-58282309D01*
X113979669Y-58282309D02*
X114051097Y-58258500D01*
X114051097Y-58258500D02*
X114098716Y-58210880D01*
X114098716Y-58210880D02*
X114122526Y-58163261D01*
X114122526Y-58163261D02*
X114146335Y-58068023D01*
X114146335Y-58068023D02*
X114146335Y-57996595D01*
X114146335Y-57996595D02*
X114122526Y-57901357D01*
X114122526Y-57901357D02*
X114098716Y-57853738D01*
X114098716Y-57853738D02*
X114051097Y-57806119D01*
X114051097Y-57806119D02*
X113979669Y-57782309D01*
X113979669Y-57782309D02*
X113932050Y-57782309D01*
X113932050Y-57782309D02*
X113860621Y-57806119D01*
X113860621Y-57806119D02*
X113836812Y-57829928D01*
X113384431Y-58282309D02*
X113622526Y-58282309D01*
X113622526Y-58282309D02*
X113622526Y-57782309D01*
X121842525Y-58338500D02*
X121771097Y-58362309D01*
X121771097Y-58362309D02*
X121652049Y-58362309D01*
X121652049Y-58362309D02*
X121604430Y-58338500D01*
X121604430Y-58338500D02*
X121580621Y-58314690D01*
X121580621Y-58314690D02*
X121556811Y-58267071D01*
X121556811Y-58267071D02*
X121556811Y-58219452D01*
X121556811Y-58219452D02*
X121580621Y-58171833D01*
X121580621Y-58171833D02*
X121604430Y-58148023D01*
X121604430Y-58148023D02*
X121652049Y-58124214D01*
X121652049Y-58124214D02*
X121747287Y-58100404D01*
X121747287Y-58100404D02*
X121794906Y-58076595D01*
X121794906Y-58076595D02*
X121818716Y-58052785D01*
X121818716Y-58052785D02*
X121842525Y-58005166D01*
X121842525Y-58005166D02*
X121842525Y-57957547D01*
X121842525Y-57957547D02*
X121818716Y-57909928D01*
X121818716Y-57909928D02*
X121794906Y-57886119D01*
X121794906Y-57886119D02*
X121747287Y-57862309D01*
X121747287Y-57862309D02*
X121628240Y-57862309D01*
X121628240Y-57862309D02*
X121556811Y-57886119D01*
X121342526Y-58362309D02*
X121342526Y-57862309D01*
X121342526Y-57862309D02*
X121223478Y-57862309D01*
X121223478Y-57862309D02*
X121152050Y-57886119D01*
X121152050Y-57886119D02*
X121104431Y-57933738D01*
X121104431Y-57933738D02*
X121080621Y-57981357D01*
X121080621Y-57981357D02*
X121056812Y-58076595D01*
X121056812Y-58076595D02*
X121056812Y-58148023D01*
X121056812Y-58148023D02*
X121080621Y-58243261D01*
X121080621Y-58243261D02*
X121104431Y-58290880D01*
X121104431Y-58290880D02*
X121152050Y-58338500D01*
X121152050Y-58338500D02*
X121223478Y-58362309D01*
X121223478Y-58362309D02*
X121342526Y-58362309D01*
X120866335Y-58219452D02*
X120628240Y-58219452D01*
X120913954Y-58362309D02*
X120747288Y-57862309D01*
X120747288Y-57862309D02*
X120580621Y-58362309D01*
X114592525Y-37219452D02*
X114354430Y-37219452D01*
X114640144Y-37362309D02*
X114473478Y-36862309D01*
X114473478Y-36862309D02*
X114306811Y-37362309D01*
X113878240Y-36886119D02*
X113925859Y-36862309D01*
X113925859Y-36862309D02*
X113997288Y-36862309D01*
X113997288Y-36862309D02*
X114068716Y-36886119D01*
X114068716Y-36886119D02*
X114116335Y-36933738D01*
X114116335Y-36933738D02*
X114140145Y-36981357D01*
X114140145Y-36981357D02*
X114163954Y-37076595D01*
X114163954Y-37076595D02*
X114163954Y-37148023D01*
X114163954Y-37148023D02*
X114140145Y-37243261D01*
X114140145Y-37243261D02*
X114116335Y-37290880D01*
X114116335Y-37290880D02*
X114068716Y-37338500D01*
X114068716Y-37338500D02*
X113997288Y-37362309D01*
X113997288Y-37362309D02*
X113949669Y-37362309D01*
X113949669Y-37362309D02*
X113878240Y-37338500D01*
X113878240Y-37338500D02*
X113854431Y-37314690D01*
X113854431Y-37314690D02*
X113854431Y-37148023D01*
X113854431Y-37148023D02*
X113949669Y-37148023D01*
X113640145Y-37362309D02*
X113640145Y-36862309D01*
X113640145Y-36862309D02*
X113354431Y-37362309D01*
X113354431Y-37362309D02*
X113354431Y-36862309D01*
X113116335Y-37362309D02*
X113116335Y-36862309D01*
X113116335Y-36862309D02*
X112997287Y-36862309D01*
X112997287Y-36862309D02*
X112925859Y-36886119D01*
X112925859Y-36886119D02*
X112878240Y-36933738D01*
X112878240Y-36933738D02*
X112854430Y-36981357D01*
X112854430Y-36981357D02*
X112830621Y-37076595D01*
X112830621Y-37076595D02*
X112830621Y-37148023D01*
X112830621Y-37148023D02*
X112854430Y-37243261D01*
X112854430Y-37243261D02*
X112878240Y-37290880D01*
X112878240Y-37290880D02*
X112925859Y-37338500D01*
X112925859Y-37338500D02*
X112997287Y-37362309D01*
X112997287Y-37362309D02*
X113116335Y-37362309D01*
X121132525Y-37239452D02*
X120894430Y-37239452D01*
X121180144Y-37382309D02*
X121013478Y-36882309D01*
X121013478Y-36882309D02*
X120846811Y-37382309D01*
X120751573Y-36882309D02*
X120584907Y-37382309D01*
X120584907Y-37382309D02*
X120418240Y-36882309D01*
X119965860Y-37334690D02*
X119989669Y-37358500D01*
X119989669Y-37358500D02*
X120061098Y-37382309D01*
X120061098Y-37382309D02*
X120108717Y-37382309D01*
X120108717Y-37382309D02*
X120180145Y-37358500D01*
X120180145Y-37358500D02*
X120227764Y-37310880D01*
X120227764Y-37310880D02*
X120251574Y-37263261D01*
X120251574Y-37263261D02*
X120275383Y-37168023D01*
X120275383Y-37168023D02*
X120275383Y-37096595D01*
X120275383Y-37096595D02*
X120251574Y-37001357D01*
X120251574Y-37001357D02*
X120227764Y-36953738D01*
X120227764Y-36953738D02*
X120180145Y-36906119D01*
X120180145Y-36906119D02*
X120108717Y-36882309D01*
X120108717Y-36882309D02*
X120061098Y-36882309D01*
X120061098Y-36882309D02*
X119989669Y-36906119D01*
X119989669Y-36906119D02*
X119965860Y-36929928D01*
X119465860Y-37334690D02*
X119489669Y-37358500D01*
X119489669Y-37358500D02*
X119561098Y-37382309D01*
X119561098Y-37382309D02*
X119608717Y-37382309D01*
X119608717Y-37382309D02*
X119680145Y-37358500D01*
X119680145Y-37358500D02*
X119727764Y-37310880D01*
X119727764Y-37310880D02*
X119751574Y-37263261D01*
X119751574Y-37263261D02*
X119775383Y-37168023D01*
X119775383Y-37168023D02*
X119775383Y-37096595D01*
X119775383Y-37096595D02*
X119751574Y-37001357D01*
X119751574Y-37001357D02*
X119727764Y-36953738D01*
X119727764Y-36953738D02*
X119680145Y-36906119D01*
X119680145Y-36906119D02*
X119608717Y-36882309D01*
X119608717Y-36882309D02*
X119561098Y-36882309D01*
X119561098Y-36882309D02*
X119489669Y-36906119D01*
X119489669Y-36906119D02*
X119465860Y-36929928D01*
X122422525Y-42879452D02*
X122184430Y-42879452D01*
X122470144Y-43022309D02*
X122303478Y-42522309D01*
X122303478Y-42522309D02*
X122136811Y-43022309D01*
X121874907Y-42522309D02*
X121827288Y-42522309D01*
X121827288Y-42522309D02*
X121779669Y-42546119D01*
X121779669Y-42546119D02*
X121755859Y-42569928D01*
X121755859Y-42569928D02*
X121732050Y-42617547D01*
X121732050Y-42617547D02*
X121708240Y-42712785D01*
X121708240Y-42712785D02*
X121708240Y-42831833D01*
X121708240Y-42831833D02*
X121732050Y-42927071D01*
X121732050Y-42927071D02*
X121755859Y-42974690D01*
X121755859Y-42974690D02*
X121779669Y-42998500D01*
X121779669Y-42998500D02*
X121827288Y-43022309D01*
X121827288Y-43022309D02*
X121874907Y-43022309D01*
X121874907Y-43022309D02*
X121922526Y-42998500D01*
X121922526Y-42998500D02*
X121946335Y-42974690D01*
X121946335Y-42974690D02*
X121970145Y-42927071D01*
X121970145Y-42927071D02*
X121993954Y-42831833D01*
X121993954Y-42831833D02*
X121993954Y-42712785D01*
X121993954Y-42712785D02*
X121970145Y-42617547D01*
X121970145Y-42617547D02*
X121946335Y-42569928D01*
X121946335Y-42569928D02*
X121922526Y-42546119D01*
X121922526Y-42546119D02*
X121874907Y-42522309D01*
D11*
X12293098Y-55579505D02*
X43000298Y-55579505D01*
X43000298Y-75472705D01*
X12293098Y-75472705D01*
X12293098Y-55579505D01*
G36*
X12293098Y-55579505D02*
G01*
X43000298Y-55579505D01*
X43000298Y-75472705D01*
X12293098Y-75472705D01*
X12293098Y-55579505D01*
G37*
D12*
X12020000Y-19834000D02*
X55930000Y-19834000D01*
X55930000Y-46250000D01*
X12020000Y-46250000D01*
X12020000Y-19834000D01*
G36*
X12020000Y-19834000D02*
G01*
X55930000Y-19834000D01*
X55930000Y-46250000D01*
X12020000Y-46250000D01*
X12020000Y-19834000D01*
G37*
D11*
X12328698Y-87222905D02*
X42935898Y-87222905D01*
X42935898Y-107116105D01*
X12328698Y-107116105D01*
X12328698Y-87222905D01*
G36*
X12328698Y-87222905D02*
G01*
X42935898Y-87222905D01*
X42935898Y-107116105D01*
X12328698Y-107116105D01*
X12328698Y-87222905D01*
G37*
D10*
X125122525Y-88208500D02*
X125051097Y-88232309D01*
X125051097Y-88232309D02*
X124932049Y-88232309D01*
X124932049Y-88232309D02*
X124884430Y-88208500D01*
X124884430Y-88208500D02*
X124860621Y-88184690D01*
X124860621Y-88184690D02*
X124836811Y-88137071D01*
X124836811Y-88137071D02*
X124836811Y-88089452D01*
X124836811Y-88089452D02*
X124860621Y-88041833D01*
X124860621Y-88041833D02*
X124884430Y-88018023D01*
X124884430Y-88018023D02*
X124932049Y-87994214D01*
X124932049Y-87994214D02*
X125027287Y-87970404D01*
X125027287Y-87970404D02*
X125074906Y-87946595D01*
X125074906Y-87946595D02*
X125098716Y-87922785D01*
X125098716Y-87922785D02*
X125122525Y-87875166D01*
X125122525Y-87875166D02*
X125122525Y-87827547D01*
X125122525Y-87827547D02*
X125098716Y-87779928D01*
X125098716Y-87779928D02*
X125074906Y-87756119D01*
X125074906Y-87756119D02*
X125027287Y-87732309D01*
X125027287Y-87732309D02*
X124908240Y-87732309D01*
X124908240Y-87732309D02*
X124836811Y-87756119D01*
X124622526Y-87970404D02*
X124455859Y-87970404D01*
X124384431Y-88232309D02*
X124622526Y-88232309D01*
X124622526Y-88232309D02*
X124622526Y-87732309D01*
X124622526Y-87732309D02*
X124384431Y-87732309D01*
X123884431Y-88232309D02*
X124051097Y-87994214D01*
X124170145Y-88232309D02*
X124170145Y-87732309D01*
X124170145Y-87732309D02*
X123979669Y-87732309D01*
X123979669Y-87732309D02*
X123932050Y-87756119D01*
X123932050Y-87756119D02*
X123908240Y-87779928D01*
X123908240Y-87779928D02*
X123884431Y-87827547D01*
X123884431Y-87827547D02*
X123884431Y-87898976D01*
X123884431Y-87898976D02*
X123908240Y-87946595D01*
X123908240Y-87946595D02*
X123932050Y-87970404D01*
X123932050Y-87970404D02*
X123979669Y-87994214D01*
X123979669Y-87994214D02*
X124170145Y-87994214D01*
X124622263Y-77756119D02*
X124669882Y-77732309D01*
X124669882Y-77732309D02*
X124741311Y-77732309D01*
X124741311Y-77732309D02*
X124812739Y-77756119D01*
X124812739Y-77756119D02*
X124860358Y-77803738D01*
X124860358Y-77803738D02*
X124884168Y-77851357D01*
X124884168Y-77851357D02*
X124907977Y-77946595D01*
X124907977Y-77946595D02*
X124907977Y-78018023D01*
X124907977Y-78018023D02*
X124884168Y-78113261D01*
X124884168Y-78113261D02*
X124860358Y-78160880D01*
X124860358Y-78160880D02*
X124812739Y-78208500D01*
X124812739Y-78208500D02*
X124741311Y-78232309D01*
X124741311Y-78232309D02*
X124693692Y-78232309D01*
X124693692Y-78232309D02*
X124622263Y-78208500D01*
X124622263Y-78208500D02*
X124598454Y-78184690D01*
X124598454Y-78184690D02*
X124598454Y-78018023D01*
X124598454Y-78018023D02*
X124693692Y-78018023D01*
X124384168Y-78232309D02*
X124384168Y-77732309D01*
X124384168Y-77732309D02*
X124098454Y-78232309D01*
X124098454Y-78232309D02*
X124098454Y-77732309D01*
X123860358Y-78232309D02*
X123860358Y-77732309D01*
X123860358Y-77732309D02*
X123741310Y-77732309D01*
X123741310Y-77732309D02*
X123669882Y-77756119D01*
X123669882Y-77756119D02*
X123622263Y-77803738D01*
X123622263Y-77803738D02*
X123598453Y-77851357D01*
X123598453Y-77851357D02*
X123574644Y-77946595D01*
X123574644Y-77946595D02*
X123574644Y-78018023D01*
X123574644Y-78018023D02*
X123598453Y-78113261D01*
X123598453Y-78113261D02*
X123622263Y-78160880D01*
X123622263Y-78160880D02*
X123669882Y-78208500D01*
X123669882Y-78208500D02*
X123741310Y-78232309D01*
X123741310Y-78232309D02*
X123860358Y-78232309D01*
X125413002Y-93132309D02*
X125579668Y-92894214D01*
X125698716Y-93132309D02*
X125698716Y-92632309D01*
X125698716Y-92632309D02*
X125508240Y-92632309D01*
X125508240Y-92632309D02*
X125460621Y-92656119D01*
X125460621Y-92656119D02*
X125436811Y-92679928D01*
X125436811Y-92679928D02*
X125413002Y-92727547D01*
X125413002Y-92727547D02*
X125413002Y-92798976D01*
X125413002Y-92798976D02*
X125436811Y-92846595D01*
X125436811Y-92846595D02*
X125460621Y-92870404D01*
X125460621Y-92870404D02*
X125508240Y-92894214D01*
X125508240Y-92894214D02*
X125698716Y-92894214D01*
X124913002Y-93084690D02*
X124936811Y-93108500D01*
X124936811Y-93108500D02*
X125008240Y-93132309D01*
X125008240Y-93132309D02*
X125055859Y-93132309D01*
X125055859Y-93132309D02*
X125127287Y-93108500D01*
X125127287Y-93108500D02*
X125174906Y-93060880D01*
X125174906Y-93060880D02*
X125198716Y-93013261D01*
X125198716Y-93013261D02*
X125222525Y-92918023D01*
X125222525Y-92918023D02*
X125222525Y-92846595D01*
X125222525Y-92846595D02*
X125198716Y-92751357D01*
X125198716Y-92751357D02*
X125174906Y-92703738D01*
X125174906Y-92703738D02*
X125127287Y-92656119D01*
X125127287Y-92656119D02*
X125055859Y-92632309D01*
X125055859Y-92632309D02*
X125008240Y-92632309D01*
X125008240Y-92632309D02*
X124936811Y-92656119D01*
X124936811Y-92656119D02*
X124913002Y-92679928D01*
X124460621Y-93132309D02*
X124698716Y-93132309D01*
X124698716Y-93132309D02*
X124698716Y-92632309D01*
X124293954Y-93132309D02*
X124293954Y-92632309D01*
X124008240Y-93132309D02*
X124222525Y-92846595D01*
X124008240Y-92632309D02*
X124293954Y-92918023D01*
D13*
X57848457Y-38554060D02*
X57705600Y-38696917D01*
X57705600Y-38696917D02*
X57562742Y-39125489D01*
X57562742Y-39125489D02*
X57562742Y-39411203D01*
X57562742Y-39411203D02*
X57705600Y-39839774D01*
X57705600Y-39839774D02*
X57991314Y-40125489D01*
X57991314Y-40125489D02*
X58277028Y-40268346D01*
X58277028Y-40268346D02*
X58848457Y-40411203D01*
X58848457Y-40411203D02*
X59277028Y-40411203D01*
X59277028Y-40411203D02*
X59848457Y-40268346D01*
X59848457Y-40268346D02*
X60134171Y-40125489D01*
X60134171Y-40125489D02*
X60419885Y-39839774D01*
X60419885Y-39839774D02*
X60562742Y-39411203D01*
X60562742Y-39411203D02*
X60562742Y-39125489D01*
X60562742Y-39125489D02*
X60419885Y-38696917D01*
X60419885Y-38696917D02*
X60277028Y-38554060D01*
X58419885Y-37411203D02*
X58419885Y-35982632D01*
X57562742Y-37696917D02*
X60562742Y-36696917D01*
X60562742Y-36696917D02*
X57562742Y-35696917D01*
X60562742Y-34696917D02*
X58134171Y-34696917D01*
X58134171Y-34696917D02*
X57848457Y-34554060D01*
X57848457Y-34554060D02*
X57705600Y-34411203D01*
X57705600Y-34411203D02*
X57562742Y-34125488D01*
X57562742Y-34125488D02*
X57562742Y-33554060D01*
X57562742Y-33554060D02*
X57705600Y-33268345D01*
X57705600Y-33268345D02*
X57848457Y-33125488D01*
X57848457Y-33125488D02*
X58134171Y-32982631D01*
X58134171Y-32982631D02*
X60562742Y-32982631D01*
X60562742Y-31982631D02*
X60562742Y-30268346D01*
X57562742Y-31125488D02*
X60562742Y-31125488D01*
X57562742Y-29268346D02*
X60562742Y-29268346D01*
X60562742Y-27268346D02*
X60562742Y-26696918D01*
X60562742Y-26696918D02*
X60419885Y-26411203D01*
X60419885Y-26411203D02*
X60134171Y-26125489D01*
X60134171Y-26125489D02*
X59562742Y-25982632D01*
X59562742Y-25982632D02*
X58562742Y-25982632D01*
X58562742Y-25982632D02*
X57991314Y-26125489D01*
X57991314Y-26125489D02*
X57705600Y-26411203D01*
X57705600Y-26411203D02*
X57562742Y-26696918D01*
X57562742Y-26696918D02*
X57562742Y-27268346D01*
X57562742Y-27268346D02*
X57705600Y-27554061D01*
X57705600Y-27554061D02*
X57991314Y-27839775D01*
X57991314Y-27839775D02*
X58562742Y-27982632D01*
X58562742Y-27982632D02*
X59562742Y-27982632D01*
X59562742Y-27982632D02*
X60134171Y-27839775D01*
X60134171Y-27839775D02*
X60419885Y-27554061D01*
X60419885Y-27554061D02*
X60562742Y-27268346D01*
X57562742Y-24696918D02*
X60562742Y-24696918D01*
X60562742Y-24696918D02*
X57562742Y-22982632D01*
X57562742Y-22982632D02*
X60562742Y-22982632D01*
D10*
X126522525Y-98308500D02*
X126451097Y-98332309D01*
X126451097Y-98332309D02*
X126332049Y-98332309D01*
X126332049Y-98332309D02*
X126284430Y-98308500D01*
X126284430Y-98308500D02*
X126260621Y-98284690D01*
X126260621Y-98284690D02*
X126236811Y-98237071D01*
X126236811Y-98237071D02*
X126236811Y-98189452D01*
X126236811Y-98189452D02*
X126260621Y-98141833D01*
X126260621Y-98141833D02*
X126284430Y-98118023D01*
X126284430Y-98118023D02*
X126332049Y-98094214D01*
X126332049Y-98094214D02*
X126427287Y-98070404D01*
X126427287Y-98070404D02*
X126474906Y-98046595D01*
X126474906Y-98046595D02*
X126498716Y-98022785D01*
X126498716Y-98022785D02*
X126522525Y-97975166D01*
X126522525Y-97975166D02*
X126522525Y-97927547D01*
X126522525Y-97927547D02*
X126498716Y-97879928D01*
X126498716Y-97879928D02*
X126474906Y-97856119D01*
X126474906Y-97856119D02*
X126427287Y-97832309D01*
X126427287Y-97832309D02*
X126308240Y-97832309D01*
X126308240Y-97832309D02*
X126236811Y-97856119D01*
X125736812Y-98332309D02*
X125903478Y-98094214D01*
X126022526Y-98332309D02*
X126022526Y-97832309D01*
X126022526Y-97832309D02*
X125832050Y-97832309D01*
X125832050Y-97832309D02*
X125784431Y-97856119D01*
X125784431Y-97856119D02*
X125760621Y-97879928D01*
X125760621Y-97879928D02*
X125736812Y-97927547D01*
X125736812Y-97927547D02*
X125736812Y-97998976D01*
X125736812Y-97998976D02*
X125760621Y-98046595D01*
X125760621Y-98046595D02*
X125784431Y-98070404D01*
X125784431Y-98070404D02*
X125832050Y-98094214D01*
X125832050Y-98094214D02*
X126022526Y-98094214D01*
X125236812Y-98284690D02*
X125260621Y-98308500D01*
X125260621Y-98308500D02*
X125332050Y-98332309D01*
X125332050Y-98332309D02*
X125379669Y-98332309D01*
X125379669Y-98332309D02*
X125451097Y-98308500D01*
X125451097Y-98308500D02*
X125498716Y-98260880D01*
X125498716Y-98260880D02*
X125522526Y-98213261D01*
X125522526Y-98213261D02*
X125546335Y-98118023D01*
X125546335Y-98118023D02*
X125546335Y-98046595D01*
X125546335Y-98046595D02*
X125522526Y-97951357D01*
X125522526Y-97951357D02*
X125498716Y-97903738D01*
X125498716Y-97903738D02*
X125451097Y-97856119D01*
X125451097Y-97856119D02*
X125379669Y-97832309D01*
X125379669Y-97832309D02*
X125332050Y-97832309D01*
X125332050Y-97832309D02*
X125260621Y-97856119D01*
X125260621Y-97856119D02*
X125236812Y-97879928D01*
X124784431Y-98332309D02*
X125022526Y-98332309D01*
X125022526Y-98332309D02*
X125022526Y-97832309D01*
X124617764Y-98332309D02*
X124617764Y-97832309D01*
X124332050Y-98332309D02*
X124546335Y-98046595D01*
X124332050Y-97832309D02*
X124617764Y-98118023D01*
D14*
X30935827Y-54516961D02*
X31031065Y-54612200D01*
X31031065Y-54612200D02*
X31316779Y-54707438D01*
X31316779Y-54707438D02*
X31507255Y-54707438D01*
X31507255Y-54707438D02*
X31792970Y-54612200D01*
X31792970Y-54612200D02*
X31983446Y-54421723D01*
X31983446Y-54421723D02*
X32078684Y-54231247D01*
X32078684Y-54231247D02*
X32173922Y-53850295D01*
X32173922Y-53850295D02*
X32173922Y-53564580D01*
X32173922Y-53564580D02*
X32078684Y-53183628D01*
X32078684Y-53183628D02*
X31983446Y-52993152D01*
X31983446Y-52993152D02*
X31792970Y-52802676D01*
X31792970Y-52802676D02*
X31507255Y-52707438D01*
X31507255Y-52707438D02*
X31316779Y-52707438D01*
X31316779Y-52707438D02*
X31031065Y-52802676D01*
X31031065Y-52802676D02*
X30935827Y-52897914D01*
X30173922Y-54136009D02*
X29221541Y-54136009D01*
X30364398Y-54707438D02*
X29697732Y-52707438D01*
X29697732Y-52707438D02*
X29031065Y-54707438D01*
X28364398Y-52707438D02*
X28364398Y-54326485D01*
X28364398Y-54326485D02*
X28269160Y-54516961D01*
X28269160Y-54516961D02*
X28173922Y-54612200D01*
X28173922Y-54612200D02*
X27983446Y-54707438D01*
X27983446Y-54707438D02*
X27602493Y-54707438D01*
X27602493Y-54707438D02*
X27412017Y-54612200D01*
X27412017Y-54612200D02*
X27316779Y-54516961D01*
X27316779Y-54516961D02*
X27221541Y-54326485D01*
X27221541Y-54326485D02*
X27221541Y-52707438D01*
X26554874Y-52707438D02*
X25412017Y-52707438D01*
X25983446Y-54707438D02*
X25983446Y-52707438D01*
X24745350Y-54707438D02*
X24745350Y-52707438D01*
X23412017Y-52707438D02*
X23031064Y-52707438D01*
X23031064Y-52707438D02*
X22840588Y-52802676D01*
X22840588Y-52802676D02*
X22650112Y-52993152D01*
X22650112Y-52993152D02*
X22554874Y-53374104D01*
X22554874Y-53374104D02*
X22554874Y-54040771D01*
X22554874Y-54040771D02*
X22650112Y-54421723D01*
X22650112Y-54421723D02*
X22840588Y-54612200D01*
X22840588Y-54612200D02*
X23031064Y-54707438D01*
X23031064Y-54707438D02*
X23412017Y-54707438D01*
X23412017Y-54707438D02*
X23602493Y-54612200D01*
X23602493Y-54612200D02*
X23792969Y-54421723D01*
X23792969Y-54421723D02*
X23888207Y-54040771D01*
X23888207Y-54040771D02*
X23888207Y-53374104D01*
X23888207Y-53374104D02*
X23792969Y-52993152D01*
X23792969Y-52993152D02*
X23602493Y-52802676D01*
X23602493Y-52802676D02*
X23412017Y-52707438D01*
X21697731Y-54707438D02*
X21697731Y-52707438D01*
X21697731Y-52707438D02*
X20554874Y-54707438D01*
X20554874Y-54707438D02*
X20554874Y-52707438D01*
X30935827Y-86386961D02*
X31031065Y-86482200D01*
X31031065Y-86482200D02*
X31316779Y-86577438D01*
X31316779Y-86577438D02*
X31507255Y-86577438D01*
X31507255Y-86577438D02*
X31792970Y-86482200D01*
X31792970Y-86482200D02*
X31983446Y-86291723D01*
X31983446Y-86291723D02*
X32078684Y-86101247D01*
X32078684Y-86101247D02*
X32173922Y-85720295D01*
X32173922Y-85720295D02*
X32173922Y-85434580D01*
X32173922Y-85434580D02*
X32078684Y-85053628D01*
X32078684Y-85053628D02*
X31983446Y-84863152D01*
X31983446Y-84863152D02*
X31792970Y-84672676D01*
X31792970Y-84672676D02*
X31507255Y-84577438D01*
X31507255Y-84577438D02*
X31316779Y-84577438D01*
X31316779Y-84577438D02*
X31031065Y-84672676D01*
X31031065Y-84672676D02*
X30935827Y-84767914D01*
X30173922Y-86006009D02*
X29221541Y-86006009D01*
X30364398Y-86577438D02*
X29697732Y-84577438D01*
X29697732Y-84577438D02*
X29031065Y-86577438D01*
X28364398Y-84577438D02*
X28364398Y-86196485D01*
X28364398Y-86196485D02*
X28269160Y-86386961D01*
X28269160Y-86386961D02*
X28173922Y-86482200D01*
X28173922Y-86482200D02*
X27983446Y-86577438D01*
X27983446Y-86577438D02*
X27602493Y-86577438D01*
X27602493Y-86577438D02*
X27412017Y-86482200D01*
X27412017Y-86482200D02*
X27316779Y-86386961D01*
X27316779Y-86386961D02*
X27221541Y-86196485D01*
X27221541Y-86196485D02*
X27221541Y-84577438D01*
X26554874Y-84577438D02*
X25412017Y-84577438D01*
X25983446Y-86577438D02*
X25983446Y-84577438D01*
X24745350Y-86577438D02*
X24745350Y-84577438D01*
X23412017Y-84577438D02*
X23031064Y-84577438D01*
X23031064Y-84577438D02*
X22840588Y-84672676D01*
X22840588Y-84672676D02*
X22650112Y-84863152D01*
X22650112Y-84863152D02*
X22554874Y-85244104D01*
X22554874Y-85244104D02*
X22554874Y-85910771D01*
X22554874Y-85910771D02*
X22650112Y-86291723D01*
X22650112Y-86291723D02*
X22840588Y-86482200D01*
X22840588Y-86482200D02*
X23031064Y-86577438D01*
X23031064Y-86577438D02*
X23412017Y-86577438D01*
X23412017Y-86577438D02*
X23602493Y-86482200D01*
X23602493Y-86482200D02*
X23792969Y-86291723D01*
X23792969Y-86291723D02*
X23888207Y-85910771D01*
X23888207Y-85910771D02*
X23888207Y-85244104D01*
X23888207Y-85244104D02*
X23792969Y-84863152D01*
X23792969Y-84863152D02*
X23602493Y-84672676D01*
X23602493Y-84672676D02*
X23412017Y-84577438D01*
X21697731Y-86577438D02*
X21697731Y-84577438D01*
X21697731Y-84577438D02*
X20554874Y-86577438D01*
X20554874Y-86577438D02*
X20554874Y-84577438D01*
D10*
X124720144Y-82932309D02*
X124553478Y-83432309D01*
X124553478Y-83432309D02*
X124386811Y-82932309D01*
X123934431Y-83384690D02*
X123958240Y-83408500D01*
X123958240Y-83408500D02*
X124029669Y-83432309D01*
X124029669Y-83432309D02*
X124077288Y-83432309D01*
X124077288Y-83432309D02*
X124148716Y-83408500D01*
X124148716Y-83408500D02*
X124196335Y-83360880D01*
X124196335Y-83360880D02*
X124220145Y-83313261D01*
X124220145Y-83313261D02*
X124243954Y-83218023D01*
X124243954Y-83218023D02*
X124243954Y-83146595D01*
X124243954Y-83146595D02*
X124220145Y-83051357D01*
X124220145Y-83051357D02*
X124196335Y-83003738D01*
X124196335Y-83003738D02*
X124148716Y-82956119D01*
X124148716Y-82956119D02*
X124077288Y-82932309D01*
X124077288Y-82932309D02*
X124029669Y-82932309D01*
X124029669Y-82932309D02*
X123958240Y-82956119D01*
X123958240Y-82956119D02*
X123934431Y-82979928D01*
X123434431Y-83384690D02*
X123458240Y-83408500D01*
X123458240Y-83408500D02*
X123529669Y-83432309D01*
X123529669Y-83432309D02*
X123577288Y-83432309D01*
X123577288Y-83432309D02*
X123648716Y-83408500D01*
X123648716Y-83408500D02*
X123696335Y-83360880D01*
X123696335Y-83360880D02*
X123720145Y-83313261D01*
X123720145Y-83313261D02*
X123743954Y-83218023D01*
X123743954Y-83218023D02*
X123743954Y-83146595D01*
X123743954Y-83146595D02*
X123720145Y-83051357D01*
X123720145Y-83051357D02*
X123696335Y-83003738D01*
X123696335Y-83003738D02*
X123648716Y-82956119D01*
X123648716Y-82956119D02*
X123577288Y-82932309D01*
X123577288Y-82932309D02*
X123529669Y-82932309D01*
X123529669Y-82932309D02*
X123458240Y-82956119D01*
X123458240Y-82956119D02*
X123434431Y-82979928D01*
D14*
X80837618Y-70014819D02*
X80647142Y-70014819D01*
X80647142Y-70014819D02*
X80551904Y-70062438D01*
X80551904Y-70062438D02*
X80456666Y-70157676D01*
X80456666Y-70157676D02*
X80409047Y-70348152D01*
X80409047Y-70348152D02*
X80409047Y-70681485D01*
X80409047Y-70681485D02*
X80456666Y-70871961D01*
X80456666Y-70871961D02*
X80551904Y-70967200D01*
X80551904Y-70967200D02*
X80647142Y-71014819D01*
X80647142Y-71014819D02*
X80837618Y-71014819D01*
X80837618Y-71014819D02*
X80932856Y-70967200D01*
X80932856Y-70967200D02*
X81028094Y-70871961D01*
X81028094Y-70871961D02*
X81075713Y-70681485D01*
X81075713Y-70681485D02*
X81075713Y-70348152D01*
X81075713Y-70348152D02*
X81028094Y-70157676D01*
X81028094Y-70157676D02*
X80932856Y-70062438D01*
X80932856Y-70062438D02*
X80837618Y-70014819D01*
X79980475Y-71014819D02*
X79980475Y-70014819D01*
X79980475Y-70014819D02*
X79409047Y-71014819D01*
X79409047Y-71014819D02*
X79409047Y-70014819D01*
X78932856Y-70491009D02*
X78599523Y-70491009D01*
X78456666Y-71014819D02*
X78932856Y-71014819D01*
X78932856Y-71014819D02*
X78932856Y-70014819D01*
X78932856Y-70014819D02*
X78456666Y-70014819D01*
X78075713Y-70967200D02*
X77932856Y-71014819D01*
X77932856Y-71014819D02*
X77694761Y-71014819D01*
X77694761Y-71014819D02*
X77599523Y-70967200D01*
X77599523Y-70967200D02*
X77551904Y-70919580D01*
X77551904Y-70919580D02*
X77504285Y-70824342D01*
X77504285Y-70824342D02*
X77504285Y-70729104D01*
X77504285Y-70729104D02*
X77551904Y-70633866D01*
X77551904Y-70633866D02*
X77599523Y-70586247D01*
X77599523Y-70586247D02*
X77694761Y-70538628D01*
X77694761Y-70538628D02*
X77885237Y-70491009D01*
X77885237Y-70491009D02*
X77980475Y-70443390D01*
X77980475Y-70443390D02*
X78028094Y-70395771D01*
X78028094Y-70395771D02*
X78075713Y-70300533D01*
X78075713Y-70300533D02*
X78075713Y-70205295D01*
X78075713Y-70205295D02*
X78028094Y-70110057D01*
X78028094Y-70110057D02*
X77980475Y-70062438D01*
X77980475Y-70062438D02*
X77885237Y-70014819D01*
X77885237Y-70014819D02*
X77647142Y-70014819D01*
X77647142Y-70014819D02*
X77504285Y-70062438D01*
X85882119Y-105196000D02*
X86120214Y-105196000D01*
X86024976Y-104957905D02*
X86120214Y-105196000D01*
X86120214Y-105196000D02*
X86024976Y-105434095D01*
X86310690Y-105053143D02*
X86120214Y-105196000D01*
X86120214Y-105196000D02*
X86310690Y-105338857D01*
X106594696Y-70111814D02*
X106023268Y-70111814D01*
X106308982Y-71111814D02*
X106308982Y-70111814D01*
X105689934Y-70588004D02*
X105356601Y-70588004D01*
X105213744Y-71111814D02*
X105689934Y-71111814D01*
X105689934Y-71111814D02*
X105689934Y-70111814D01*
X105689934Y-70111814D02*
X105213744Y-70111814D01*
X104785172Y-71111814D02*
X104785172Y-70111814D01*
X104785172Y-70111814D02*
X104213744Y-71111814D01*
X104213744Y-71111814D02*
X104213744Y-70111814D01*
X103785172Y-71064195D02*
X103642315Y-71111814D01*
X103642315Y-71111814D02*
X103404220Y-71111814D01*
X103404220Y-71111814D02*
X103308982Y-71064195D01*
X103308982Y-71064195D02*
X103261363Y-71016575D01*
X103261363Y-71016575D02*
X103213744Y-70921337D01*
X103213744Y-70921337D02*
X103213744Y-70826099D01*
X103213744Y-70826099D02*
X103261363Y-70730861D01*
X103261363Y-70730861D02*
X103308982Y-70683242D01*
X103308982Y-70683242D02*
X103404220Y-70635623D01*
X103404220Y-70635623D02*
X103594696Y-70588004D01*
X103594696Y-70588004D02*
X103689934Y-70540385D01*
X103689934Y-70540385D02*
X103737553Y-70492766D01*
X103737553Y-70492766D02*
X103785172Y-70397528D01*
X103785172Y-70397528D02*
X103785172Y-70302290D01*
X103785172Y-70302290D02*
X103737553Y-70207052D01*
X103737553Y-70207052D02*
X103689934Y-70159433D01*
X103689934Y-70159433D02*
X103594696Y-70111814D01*
X103594696Y-70111814D02*
X103356601Y-70111814D01*
X103356601Y-70111814D02*
X103213744Y-70159433D01*
X111410721Y-105200995D02*
X111648816Y-105200995D01*
X111553578Y-104962900D02*
X111648816Y-105200995D01*
X111648816Y-105200995D02*
X111553578Y-105439090D01*
X111839292Y-105058138D02*
X111648816Y-105200995D01*
X111648816Y-105200995D02*
X111839292Y-105343852D01*
D15*
%TO.C,J3*%
X29119399Y-75810405D02*
G75*
G02*
X28357399Y-75810405I-381000J0D01*
G01*
X28357399Y-75810405D02*
G75*
G02*
X29119399Y-75810405I381000J0D01*
G01*
%TO.C,J4*%
X29159399Y-107538205D02*
G75*
G02*
X28397399Y-107538205I-381000J0D01*
G01*
X28397399Y-107538205D02*
G75*
G02*
X29159399Y-107538205I381000J0D01*
G01*
%TO.C,ONES*%
X67580500Y-72749405D02*
X92091500Y-72749405D01*
X67580500Y-107242605D02*
X67580500Y-72749405D01*
X92091500Y-72749405D02*
X92091500Y-107242605D01*
X92091500Y-107242605D02*
X67580500Y-107242605D01*
%TO.C,TENS*%
X93109102Y-72754400D02*
X117620102Y-72754400D01*
X93109102Y-107247600D02*
X93109102Y-72754400D01*
X117620102Y-72754400D02*
X117620102Y-107247600D01*
X117620102Y-107247600D02*
X93109102Y-107247600D01*
%TD*%
M02*
